<svg xmlns="http://www.w3.org/2000/svg" version="1.1" xmlns:xlink="http://www.w3.org/1999/xlink" xmlns:svgjs="http://svgjs.dev/svgjs" viewBox="0 0 1422 800"><defs><filter id="uuunion-blur" x="-100%" y="-100%" width="400%" height="400%" color-interpolation-filters="sRGB">
        <feGaussianBlur in="SourceGraphic" stdDeviation="7.5 0" result="blur"></feGaussianBlur>
        <feDropShadow stdDeviation="12.307692307692308" in="blur" dx="10" dy="10" flood-color="#176b87" flood-opacity="0.25" x="0%" y="0%" width="100%" height="100%"></feDropShadow>
      </filter><filter id="uuunion-blur2" x="-100%" y="-100%" width="400%" height="400%" color-interpolation-filters="sRGB">
        <feGaussianBlur in="SourceGraphic" stdDeviation="7.5 0" result="blur"></feGaussianBlur>
        <feDropShadow stdDeviation="12.307692307692308" in="blur" dx="-10" dy="-10" flood-color="#176b87" flood-opacity="0.25" x="0%" y="0%" width="100%" height="100%"></feDropShadow>
      </filter><linearGradient gradientTransform="rotate(0, 0.5, 0.5)" x1="50%" y1="0%" x2="50%" y2="100%" id="uuunion-grad"><stop stop-color="#dafffb" offset="10%"></stop><stop stop-color="#176b87" offset="90%"></stop></linearGradient><linearGradient gradientTransform="rotate(135, 0.5, 0.5)" x1="50%" y1="0%" x2="50%" y2="100%" id="uuunion-grad2"><stop stop-color="#dafffb" offset="25%"></stop><stop stop-color="#176b87" offset="100%"></stop></linearGradient><linearGradient gradientTransform="rotate(333, 0.5, 0.5)" x1="50%" y1="0%" x2="50%" y2="100%" id="uuunion-grad3"><stop stop-color="#dafffb" offset="0%"></stop><stop stop-color="#176b87" offset="75%"></stop></linearGradient></defs><path d="M-131.44 -88.25Q-118.45 -87.18 -105.47 -85.63 -92.48 -83.69 -79.5 -81.5 -66.51 -79.21 -53.52 -76.97 -40.54 -74.94 -27.55 -73.25 -14.57 -72.02 -1.58 -71.33 11.4 -71.23 24.38 -71.72 37.37 -72.78 50.35 -74.33 63.34 -76.26 76.33 -78.45 89.31 -80.74 102.3 -82.98 115.28 -85.02 128.27 -86.72 141.26 -87.96 154.24 -88.65 167.23 -88.77 180.21 -88.28 193.2 -87.23 206.19 -85.69 219.17 -83.77 232.16 -81.58 245.14 -79.29 258.13 -77.05 271.12 -75.01 284.1 -73.3 297.09 -72.05 310.08 -71.34 323.06 -71.22 336.05 -71.7 349.03 -72.73 362.02 -74.27 375.01 -76.19 387.99 -78.37 400.98 -80.66 413.96 -82.9 426.95 -84.95 439.94 -86.66 452.92 -87.92 465.91 -88.64 478.89 -88.77 491.88 -88.31 504.87 -87.28 517.85 -85.76 530.84 -83.84 543.82 -81.67 556.81 -79.38 569.8 -77.13 582.78 -75.08 595.77 -73.36 608.76 -72.09 621.74 -71.36 634.73 -71.22 647.71 -71.67 660.7 -72.69 673.69 -74.2 686.67 -76.11 699.66 -78.28 712.64 -80.57 725.63 -82.82 738.62 -84.88 751.6 -86.6 764.59 -87.88 777.57 -88.62 790.56 -88.78 803.55 -88.34 816.53 -87.33 829.52 -85.82 842.51 -83.92 855.49 -81.75 868.48 -79.46 881.46 -77.21 894.45 -75.15 907.44 -73.41 920.42 -72.13 933.41 -71.38 946.39 -71.21 959.38 -71.64 972.37 -72.64 985.35 -74.14 998.34 -76.03 1011.33 -78.2 1024.31 -80.49 1037.3 -82.74 1050.28 -84.81 1063.27 -86.55 1076.26 -87.84 1089.24 -88.61 1102.23 -88.78 1115.21 -88.36 1128.2 -87.37 1141.19 -85.88 1154.17 -83.99 1167.16 -81.83 1180.14 -79.55 1193.13 -77.29 1206.12 -75.22 1219.1 -73.47 1232.09 -72.17 1245.08 -71.39 1258.06 -71.21 1271.05 -71.61 1284.03 -72.59 1297.02 -74.07 1310.01 -75.96 1322.99 -78.11 1335.98 -80.4 1348.97 -82.66 1361.95 -84.74 1374.94 -86.49 1387.92 -87.8 1400.91 -88.59 1413.9 -88.79 1426.88 -88.39 1439.87 -87.42 1452.85 -85.95 1465.84 -84.07 1478.83 -81.92 1491.81 -79.63 1504.8 -77.37 1517.79 -75.29 1530.77 -73.53 1533.39 -58.36 1538.13 -43.2 1544.66 -28.03 1552.54 -12.87 1561.23 2.29 1570.11 17.45 1578.59 32.62 1586.08 47.78 1592.06 62.95 1596.12 78.12 1597.98 93.28 1597.52 108.45 1594.76 123.61 1589.9 138.78 1583.27 153.94 1575.33 169.11 1566.61 184.27 1557.74 199.44 1549.3 214.6 1541.89 229.77 1536.02 244.93 1532.09 260.1 1530.37 275.26 1530.97 290.43 1533.87 305.6 1538.85 320.76 1545.58 335.93 1553.59 351.09 1562.33 366.26 1571.2 381.42 1579.58 396.59 1586.91 411.75 1592.67 426.92 1596.47 442.08 1598.05 457.25 1597.3 472.41 1594.27 487.58 1589.17 502.74 1582.35 517.91 1574.28 533.08 1565.51 548.24 1556.65 563.41 1548.32 578.57 1541.07 593.74 1535.42 608.9 1531.75 624.07 1530.31 639.23 1531.21 654.4 1534.38 669.56 1539.6 684.73 1546.51 699.89 1554.64 715.06 1563.43 730.22 1572.27 745.39 1580.56 760.56 1587.72 775.72 1593.26 790.89 1596.79 806.05 1598.09 821.22 1597.05 836.38 1593.75 851.55 1588.41 866.71 1581.4 881.88 1573.22 897.04 1559.79 892.4 1546.37 886.91 1532.94 880.95 1519.52 874.93 1506.09 869.25 1492.67 864.3 1479.24 860.42 1465.82 857.87 1452.4 856.82 1438.97 857.34 1425.55 859.41 1412.12 862.87 1398.7 867.5 1385.27 872.97 1371.85 878.93 1358.43 884.95 1345 890.64 1331.58 895.61 1318.15 899.51 1304.73 902.09 1291.3 903.17 1277.88 902.67 1264.46 900.63 1251.03 897.19 1237.61 892.59 1224.18 887.12 1210.76 881.18 1197.33 875.15 1183.91 869.45 1170.48 864.47 1157.06 860.54 1143.64 857.93 1130.21 856.83 1116.79 857.3 1103.36 859.3 1089.94 862.72 1076.51 867.31 1063.09 872.76 1049.67 878.7 1036.24 884.73 1022.82 890.44 1009.39 895.44 995.97 899.39 982.54 902.02 969.12 903.16 955.7 902.72 942.27 900.74 928.85 897.34 915.42 892.78 902 887.34 888.57 881.4 875.15 875.37 861.73 869.65 848.3 864.63 834.88 860.66 821.45 858.01 808.03 856.84 794.6 857.25 781.18 859.2 767.76 862.57 754.33 867.12 740.91 872.55 727.48 878.48 714.06 884.51 700.63 890.24 687.21 895.27 673.79 899.26 660.36 901.95 646.94 903.14 633.51 902.76 620.09 900.84 606.66 897.49 593.24 892.96 579.81 887.55 566.39 881.62 552.97 875.59 539.54 869.85 526.12 864.8 512.69 860.79 499.27 858.08 485.85 856.86 472.42 857.21 459 859.11 445.57 862.42 432.15 866.93 418.72 872.33 405.3 878.25 391.88 884.29 378.45 890.04 365.03 895.1 351.6 899.14 338.18 901.87 324.75 903.13 311.33 902.8 297.91 900.93 284.48 897.64 271.06 893.15 257.63 887.76 244.21 881.85 230.78 875.81 217.36 870.05 203.94 864.98 190.51 860.92 177.09 858.15 163.66 856.87 150.24 857.17 136.81 859.01 123.39 862.28 109.97 866.75 96.54 872.12 83.12 878.03 69.69 884.07 56.27 889.83 42.84 894.93 29.42 899.01 16 901.8 2.57 903.11 -10.84 902.84 -24.27 901.03 -37.69 897.79 -51.12 893.33 -64.54 887.97 -77.96 882.07 -91.39 876.03 -104.81 870.26 -118.24 865.15 -131.66 861.05 -145.08 858.23 -147.72 843.44 -149.97 828.65 -151.68 813.86 -152.75 799.07 -153.08 784.29 -152.66 769.5 -151.53 754.71 -149.75 739.92 -147.45 725.13 -144.78 710.34 -141.94 695.55 -139.11 680.76 -136.5 665.97 -134.28 651.19 -132.6 636.4 -131.58 621.61 -131.29 606.82 -131.76 592.03 -132.94 577.24 -134.75 562.45 -137.08 547.66 -139.76 532.87 -142.61 518.08 -145.43 503.3 -148.02 488.51 -150.21 473.72 -151.85 458.93 -152.83 444.14 -153.07 429.35 -152.56 414.56 -151.34 399.77 -149.49 384.98 -147.13 370.2 -144.44 355.41 -141.58 340.62 -138.78 325.83 -136.2 311.04 -134.04 296.25 -132.44 281.46 -131.51 266.67 -131.31 251.88 -131.86 237.1 -133.13 222.31 -135.02 207.52 -137.4 192.73 -140.11 177.94 -142.96 163.15 -145.76 148.36 -148.32 133.57 -150.45 118.78 -152.01 104 -152.9 89.21 -153.05 74.42 -152.45 59.63 -151.14 44.84 -149.22 30.05 -146.81 15.26 -144.09 0.47 -141.23 -14.31 -138.44 -29.1 -135.91 -43.88 -133.81 -58.67 -132.28 -73.46 -131.44 -88.25" fill="url(#uuunion-grad)"></path><path d="M-131.45 -88.25Q-132.29 -73.46 -133.82 -58.67 -135.92 -43.88 -138.45 -29.1 -141.24 -14.31 -144.1 0.47 -146.82 15.26 -149.23 30.05 -151.15 44.84 -152.46 59.63 -153.06 74.42 -152.91 89.21 -152.02 103.99 -150.46 118.78 -148.33 133.57 -145.77 148.36 -142.97 163.15 -140.12 177.94 -137.41 192.73 -135.03 207.52 -133.14 222.31 -131.87 237.09 -131.32 251.88 -131.52 266.67 -132.45 281.46 -134.05 296.25 -136.21 311.04 -138.79 325.83 -141.59 340.62 -144.45 355.41 -143.8 378.18 -131.41 387.78 -122.37 389.75 -113.32 392.04 -104.28 394.57 -95.23 397.26 -86.19 400.03 -77.15 402.81 -68.1 405.5 -59.06 408.02 -50.01 410.3 -40.97 412.26 -31.93 413.86 -22.88 415.03 -5.79 415.93 -2.77 415.98 8.79 412.3 20.35 407.9 31.9 402.84 43.43 397.21 54.94 391.14 66.43 384.78 77.9 378.26 89.34 371.76 100.76 365.43 112.15 359.43 123.5 353.88 134.83 348.89 146.13 344.56 157.4 340.93 168.63 338.02 179.83 335.82 191 334.28 202.14 333.33 213.24 332.85 224.32 332.72 235.36 332.79 246.37 332.92 257.35 332.95 268.3 332.73 279.23 332.14 290.13 331.04 301.01 329.35 311.86 327.01 322.7 323.98 333.51 320.26 344.32 315.89 355.1 310.93 365.88 305.46 376.65 299.61 387.41 293.5 398.17 287.27 408.93 281.07 419.69 275.05 430.46 269.34 441.23 264.05 452.01 259.3 462.8 255.15 473.61 251.64 484.44 248.8 495.29 246.59 506.16 244.98 517.06 243.89 527.98 243.22 538.94 242.85 549.92 242.65 560.94 242.48 572 242.21 583.09 241.69 594.22 240.81 605.39 239.47 616.6 237.58 627.86 235.09 639.15 231.97 650.49 228.24 661.88 223.91 673.31 219.06 684.78 213.76 696.29 208.13 707.85 202.28 719.45 196.34 731.09 190.45 742.77 184.73 754.49 179.3 766.25 174.28 778.04 169.75 789.87 165.77 801.73 162.37 813.61 159.57 825.53 157.34 837.46 155.65 849.42 154.41 861.39 153.54 873.38 152.92 885.38 152.44 897.39 151.97 909.4 151.39 921.41 150.58 933.42 149.43 945.43 147.85 957.42 145.77 969.39 143.15 981.35 139.96 993.29 136.22 1005.19 131.96 1017.07 127.23 1028.91 122.11 1040.72 116.71 1052.48 111.13 1064.2 105.48 1075.87 99.89 1087.49 94.47 1099.05 89.33 1110.55 84.56 1121.99 80.23 1133.36 76.41 1144.67 73.11 1155.91 70.34 1167.07 68.08 1178.17 66.28 1189.18 64.88 1200.12 63.8 1210.99 62.93 1221.77 62.17 1232.47 61.4 1243.1 60.52 1253.64 59.41 1264.1 58 1274.49 56.19 1284.79 53.94 1295.02 51.2 1305.18 47.96 1315.25 44.22 1325.26 40.03 1335.2 35.44 1345.06 30.52 1354.87 25.35 1364.61 20.04 1374.3 14.69 1383.93 9.4 1393.51 4.28 1403.04 -0.58 1412.54 -5.11 1422 -9.24 1412.88 -26.49 1404.62 -43.75 1397.98 -61.01 1393.59 -78.27 1391.85 -95.52 1392.93 -112.78 1396.74 -130.04 1402.9 -147.3 1390.79 -146.36 1378.68 -145.06 1366.58 -143.46 1354.47 -141.67 1342.36 -139.77 1330.25 -137.89 1318.15 -136.13 1306.04 -134.6 1293.93 -133.37 1281.82 -132.54 1269.71 -132.13 1257.61 -132.18 1245.5 -132.68 1233.39 -133.61 1221.28 -134.91 1209.17 -136.5 1197.07 -138.3 1184.96 -140.19 1172.85 -142.08 1160.74 -143.84 1148.63 -145.38 1136.53 -146.6 1124.42 -147.45 1112.31 -147.86 1100.2 -147.81 1088.1 -147.31 1075.99 -146.39 1063.88 -145.1 1051.77 -143.51 1039.66 -141.71 1027.56 -139.82 1015.45 -137.94 1003.34 -136.17 991.23 -134.63 979.12 -133.4 967.02 -132.55 954.91 -132.13 942.8 -132.17 930.69 -132.67 918.58 -133.58 906.48 -134.87 894.37 -136.46 882.26 -138.25 870.15 -140.14 858.04 -142.03 845.94 -143.79 833.83 -145.34 821.72 -146.58 809.61 -147.43 797.51 -147.85 785.4 -147.82 773.29 -147.33 761.18 -146.42 749.07 -145.14 736.97 -143.55 724.86 -141.76 712.75 -139.87 700.64 -137.98 688.53 -136.22 676.43 -134.67 664.32 -133.43 652.21 -132.57 640.1 -132.14 627.99 -132.17 615.89 -132.65 603.78 -133.56 591.67 -134.84 579.56 -136.42 567.46 -138.2 555.35 -140.1 543.24 -141.98 531.13 -143.75 519.02 -145.3 506.92 -146.55 494.81 -147.41 482.7 -147.85 470.59 -147.83 458.48 -147.35 446.38 -146.45 434.27 -145.17 422.16 -143.6 410.05 -141.81 397.94 -139.92 385.84 -138.03 373.73 -136.26 361.62 -134.7 349.51 -133.45 337.41 -132.59 325.3 -132.15 313.19 -132.16 301.08 -132.63 288.97 -133.53 276.87 -134.8 264.76 -136.37 252.65 -138.16 240.54 -140.05 228.43 -141.93 216.33 -143.71 204.22 -145.27 192.11 -146.52 180 -147.4 167.89 -147.84 155.79 -147.83 143.68 -147.37 131.57 -146.48 119.46 -145.21 107.35 -143.64 95.25 -141.86 83.14 -139.97 71.03 -138.08 58.92 -136.3 46.82 -134.74 34.71 -133.48 22.6 -132.6 10.49 -132.15 -1.61 -132.15 -13.71 -132.61 -25.82 -133.5 -37.93 -134.76 -50.04 -136.33 -62.15 -138.11 -74.25 -140 -86.36 -141.89 -98.47 -143.66 -110.58 -145.23 -122.69 -146.49 -138.4 -140.18 -137.75 -118.11 -134.22 -103.2 -131.45 -88.25" fill="url(#uuunion-grad2)" filter="url(#uuunion-blur)"></path><path d="M1403.28 306.32Q1420.77 305.43 1438.25 305.88 1447 306.86 1455.74 308.25 1464.48 309.98 1473.23 312.03 1481.97 314.31 1490.71 316.76 1499.45 319.32 1508.2 321.89 1516.94 324.41 1525.68 326.79 1534.43 328.97 1543.17 330.87 1552.19 348.56 1562.33 366.26 1572.64 383.95 1582.17 401.64 1590.01 419.34 1595.44 437.03 1597.95 454.72 1597.3 472.41 1593.56 490.11 1587.07 507.8 1578.43 525.49 1568.47 543.19 1558.11 560.88 1548.32 578.57 1540.01 596.26 1533.96 613.96 1530.74 631.65 1530.65 649.34 1533.7 667.04 1539.6 684.73 1547.8 702.42 1557.53 720.11 1567.88 737.81 1577.9 755.5 1586.62 773.19 1593.26 790.89 1597.17 808.58 1598 826.27 1595.67 843.97 1590.39 861.66 1582.67 879.35 1573.22 897.04 1560.9 892.82 1548.59 887.86 1536.27 882.45 1523.96 876.9 1511.65 871.53 1499.33 866.64 1487.02 862.52 1474.71 859.4 1462.39 857.45 1450.08 856.8 1437.77 857.47 1425.45 859.43 1413.14 862.56 1400.83 866.7 1388.51 871.59 1376.2 876.97 1363.89 882.52 1351.57 887.92 1339.26 892.87 1326.94 897.09 1314.63 900.32 1302.32 902.4 1290 903.19 1277.69 902.65 1265.38 900.82 1253.06 897.8 1240.75 893.76 1228.44 888.93 1216.12 883.59 1203.81 878.04 1191.5 872.61 1179.18 867.59 1166.87 863.29 1154.55 859.95 1142.24 857.75 1129.93 856.82 1117.61 857.22 1105.3 858.92 1092.99 861.83 1080.67 865.78 1068.36 870.54 1056.05 875.84 1043.73 881.38 1031.42 886.84 1019.11 891.91 1006.79 896.3 994.48 899.75 982.17 902.07 969.85 903.13 957.54 902.87 945.22 901.3 932.91 898.51 920.6 894.66 908.28 889.97 895.97 884.71 883.66 879.18 871.34 873.7 859.03 868.57 846.72 864.11 834.4 860.55 822.09 858.1 809.78 856.9 797.46 857.03 785.15 858.47 772.84 861.14 760.52 864.89 748.21 869.51 735.89 874.72 723.58 880.24 711.27 885.74 698.95 890.91 686.64 895.46 674.33 899.13 662.01 901.7 649.7 903.02 637.39 903.03 625.07 901.73 612.76 899.17 600.45 895.53 588.13 890.99 575.82 885.82 563.5 880.32 551.19 874.8 538.88 869.58 526.56 864.96 514.25 861.19 501.94 858.5 489.62 857.04 477.31 856.9 465 858.07 452.68 860.5 440.37 864.05 428.06 868.5 415.74 873.62 403.43 879.1 391.12 884.63 378.8 889.89 366.49 894.59 354.17 898.46 341.86 901.27 329.55 902.86 317.23 903.14 304.92 902.1 292.61 899.79 280.29 896.35 267.98 891.98 255.67 886.92 243.35 881.46 231.04 875.92 218.73 870.62 206.41 865.84 194.1 861.88 181.78 858.96 169.47 857.24 157.16 856.82 144.84 857.72 132.53 859.91 120.22 863.24 107.9 867.52 95.59 872.53 83.28 877.96 70.96 883.5 58.65 888.85 46.34 893.69 34.02 897.74 21.71 900.78 2.65 897.84 -5.17 882.89 -6.13 872.74 -6.93 862.59 -7.55 852.44 -7.96 842.29 -7.9 827.07 -7.12 822 5.81 815 18.82 806.74 31.88 797.35 44.98 787.03 58.1 776.03 71.23 764.64 84.36 753.16 97.46 741.92 110.54 731.19 123.58 721.26 136.57 712.32 149.5 704.54 162.37 697.98 175.17 692.67 187.89 688.53 200.53 685.42 213.11 683.15 225.6 681.48 238.03 680.12 250.39 678.79 262.7 677.18 274.95 675.03 287.16 672.09 299.34 668.18 311.5 663.16 323.65 656.98 335.8 649.63 347.97 641.21 360.17 631.83 372.4 621.71 384.68 611.08 397.02 600.2 409.43 589.36 421.91 578.82 434.48 568.84 447.13 559.64 459.88 551.38 472.72 544.17 485.65 538.07 498.67 533.04 511.78 529.01 524.96 525.84 538.22 523.33 551.54 521.25 564.91 519.35 578.33 517.36 591.76 515.05 605.21 512.17 618.65 508.52 632.07 503.97 645.45 498.43 658.78 491.85 672.03 484.27 685.2 475.78 698.26 466.53 711.2 456.7 724.01 446.51 736.67 436.2 749.19 426.01 761.54 416.18 773.73 406.91 785.74 398.38 797.59 390.72 809.27 384 818.92 382.99 828.57 382.55 838.2 382.65 847.82 383.24 857.43 384.25 867.02 385.6 876.6 387.19 886.16 388.92 895.72 390.68 905.25 392.37 914.78 393.87 924.29 395.09 933.79 395.94 943.27 396.34 952.74 396.24 962.2 395.59 971.64 394.38 981.07 392.6 990.49 390.28 999.89 387.45 1009.28 384.18 1018.66 380.53 1028.02 376.6 1037.37 372.48 1046.7 368.28 1056.03 364.1 1065.34 360.05 1074.64 356.24 1083.92 352.74 1093.2 349.65 1102.46 347.03 1111.71 344.92 1120.95 343.37 1130.18 342.37 1139.4 341.91 1148.6 341.97 1157.8 342.5 1166.98 343.44 1176.16 344.69 1185.32 346.18 1194.48 347.79 1203.63 349.44 1212.76 351 1221.89 352.39 1231.01 353.51 1240.13 354.26 1249.23 354.58 1258.33 354.42 1267.43 353.74 1276.51 352.51 1285.59 350.73 1294.67 348.44 1303.74 345.66 1312.8 342.45 1321.86 338.89 1330.92 335.06 1339.97 331.05 1349.02 326.97 1358.07 322.91 1367.11 318.98 1376.16 315.27 1385.2 311.88 1394.24 308.87 1403.28 306.32" fill="url(#uuunion-grad3)" filter="url(#uuunion-blur2)"></path></svg>