<svg xmlns="http://www.w3.org/2000/svg" version="1.1" xmlns:xlink="http://www.w3.org/1999/xlink" width="512" height="512" x="0" y="0" viewBox="0 0 60 60" style="enable-background:new 0 0 512 512" xml:space="preserve"><g><path d="M8 51c0 3.311 9.035 7 22 7s22-3.689 22-7V40.641C48.666 43.605 41.2 46 30 46s-18.666-2.4-22-5.359z" fill="#ffffff" opacity="1" data-original="#000000"></path><path d="M8 37c0 3.311 9.035 7 22 7s22-3.689 22-7V26.641C48.666 29.605 41.2 32 30 32s-18.666-2.395-22-5.359z" fill="#ffffff" opacity="1" data-original="#000000"></path><path d="M8 23c0 3.311 9.035 7 22 7s22-3.689 22-7V12.641C48.666 15.605 41.2 18 30 18s-18.666-2.395-22-5.359zm7.034-.911a1 1 0 0 1 1.224-.707q.479.127.975.246A1 1 0 0 1 17 23.6a.985.985 0 0 1-.234-.028q-.524-.126-1.025-.26a1 1 0 0 1-.707-1.223zm-4.926-2.032a1 1 0 0 1 1.345-.439c.313.159.644.314.99.465a1 1 0 0 1-.4 1.917.982.982 0 0 1-.4-.083q-.577-.251-1.1-.516a1 1 0 0 1-.435-1.344z" fill="#ffffff" opacity="1" data-original="#000000"></path><path d="M30 16c12.965 0 22-3.689 22-7s-9.035-7-22-7S8 5.689 8 9s9.035 7 22 7zM11.4 8.2C11.624 8.031 17.107 4 30 4a1 1 0 0 1 0 2C17.859 6 12.651 9.762 12.6 9.8a1 1 0 0 1-1.2-1.6z" fill="#ffffff" opacity="1" data-original="#000000"></path></g></svg>