<svg xmlns="http://www.w3.org/2000/svg" version="1.1" xmlns:xlink="http://www.w3.org/1999/xlink" width="512" height="512" x="0" y="0" viewBox="0 0 66 66" style="enable-background:new 0 0 512 512" xml:space="preserve" class=""><g><path d="M41.4 58h-.3v-4.7H24.9V58h-.3c-3.3 0-6 2.7-6 6 0 .5.4 1 1 1h26.8c.6 0 1-.5 1-1 0-3.3-2.7-6-6-6zM61 1H5C3.2 1 1.8 2.4 1.8 4.1v44c0 1.7 1.4 3.1 3.1 3.1H61c1.7 0 3.1-1.4 3.1-3.1v-44C64.2 2.4 62.7 1 61 1zm-6.3 45.9h-8.2c-.6 0-1-.5-1-1s.4-1 1-1h8.2c.6 0 1 .5 1 1s-.5 1-1 1zm7.5-6.6H3.8V4.1C3.8 3.5 4.3 3 5 3h56c.6 0 1.1.5 1.1 1.1v36.2z" fill="#ffffff" opacity="1" data-original="#000000" class=""></path><path d="m34.1 18.5-2.8-.6-.3-.9 2-2.2c.3-.3.3-.8 0-1.1l-3-3.4c-.3-.3-.8-.4-1.1-.2l-2.4 1.6c-.6-.4-1.3-.7-2-.9l-.4-2.9c-.1-.4-.4-.7-.8-.7h-4.4c-.4 0-.8.3-.8.7l-.4 2.9c-.3.1-.6.2-.9.4l-2.2-1.8c-.3-.3-.8-.3-1.1 0l-3.2 3.1c-.3.3-.4.8-.1 1.1l1.7 2.4c-.1.3-.3.6-.4.9l-2.9.2c-.4 0-.8.4-.8.8l-.3 4.5c0 .4.3.8.7.9l2.8.5.3.9-2 2.2c-.3.3-.3.8 0 1.1l2.9 3.4c.3.3.8.4 1.1.2l2.4-1.6c.6.4 1.3.7 2 .9l.4 2.9c.1.4.4.7.8.7h4.4c.4 0 .8-.3.8-.7l.4-2.9c.3-.1.6-.2.9-.4l2.2 1.8c.3.3.8.3 1.1 0l3.2-3.1c.3-.3.4-.8.1-1.1l-1.7-2.4c.2-.3.3-.6.4-.9l2.9-.2c.4 0 .8-.4.8-.8l.3-4.5c.1-.4-.2-.8-.6-.8zm-13 11.3c-3.7 0-6.6-3-6.6-6.7s3-6.7 6.6-6.7c3.7 0 6.6 3 6.6 6.7s-3 6.7-6.6 6.7zM56.9 26.2l-1.6-.3c0-.1 0-.1-.1-.2l1.1-1.2c.3-.3.3-.9 0-1.2L54.5 21c-.3-.4-.8-.4-1.2-.2l-1.4.9c-.3-.2-.6-.3-.9-.4l-.2-1.7c-.1-.5-.5-.8-.9-.8H47c-.5 0-.9.3-.9.8l-.2 1.7c-.1 0-.1 0-.2.1l-1.3-1.1c-.4-.3-.9-.3-1.2 0l-2.1 2c-.3.3-.4.8-.1 1.2l1 1.4c0 .1-.1.1-.1.2l-1.7.1c-.5 0-.8.4-.9.9l-.2 2.9c0 .5.3.9.8 1l1.6.3c0 .1 0 .1.1.2l-1.1 1.2c-.3.3-.3.9 0 1.2l1.9 2.2c.3.4.8.4 1.2.2l1.4-.9c.3.2.6.3.9.4l.2 1.7c.1.5.5.8.9.8h2.9c.5 0 .9-.3.9-.8l.2-1.7c.1 0 .1 0 .2-.1l1.3 1.1c.4.3.9.3 1.2 0l2.1-2c.3-.3.4-.8.1-1.2l-1-1.4c0-.1.1-.1.1-.2l1.6-.1c.5 0 .8-.4.9-.9l.2-2.9c0-.4-.3-.8-.8-.9zm-8.5 4.9c-1.7 0-3-1.4-3-3.1s1.4-3.1 3-3.1c1.7 0 3 1.4 3 3.1 0 1.8-1.3 3.1-3 3.1z" fill="#ffffff" opacity="1" data-original="#000000" class=""></path></g></svg>