<?xml version="1.0" encoding="UTF-8" standalone="no"?>
<!DOCTYPE svg PUBLIC "-//W3C//DTD SVG 1.1//EN" "http://www.w3.org/Graphics/SVG/1.1/DTD/svg11.dtd">
<svg width="100%" height="100%" viewBox="0 0 1488 1482" version="1.1" xmlns="http://www.w3.org/2000/svg" xmlns:xlink="http://www.w3.org/1999/xlink" xml:space="preserve" xmlns:serif="http://www.serif.com/" style="fill-rule:evenodd;clip-rule:evenodd;stroke-linejoin:round;stroke-miterlimit:2;">
    <g id="Plan-de-travail1" serif:id="Plan de travail1" transform="matrix(1,0,0,1,5.17075,-3.45795)">
        <rect x="-5.171" y="3.458" width="1487.46" height="1481.92" style="fill:none;"/>
        <clipPath id="_clip1">
            <rect x="-5.171" y="3.458" width="1487.46" height="1481.92"/>
        </clipPath>
        <g clip-path="url(#_clip1)">
            <g transform="matrix(4.16667,0,0,4.16667,0.829252,0.45795)">
                <path d="M178.584,0.041C271.084,0.041 346.071,75.028 346.071,167.528C346.071,260.029 271.084,335.016 178.584,335.016C86.083,335.015 11.097,260.028 11.097,167.527C11.097,75.028 86.083,0.041 178.584,0.041Z" style="fill:rgb(218,255,251);"/>
                <path d="M111.691,296.823C111.691,296.823 100.894,298.172 91.066,296.478C88.05,295.957 89.671,298.683 90.037,298.917C91.943,300.146 98.77,301.821 98.379,302.23C97.562,303.088 84.63,304.339 80.08,304.247C79.622,304.238 74.683,303.964 74.694,304.653C74.716,306.258 77.324,306.654 78.536,306.821C82.647,307.386 95.273,307.197 94.645,307.289C93.515,307.452 83.926,309.263 80.229,309.794C79.988,309.829 74.76,310.575 74.866,311.245C75.083,312.604 79.165,312.505 80.107,312.422C83.813,312.102 93.9,311.36 95.181,311.28C95.713,311.245 91.678,312.493 90.549,312.827C87.054,313.856 83.335,314.333 79.889,315.474C79.214,315.698 76.832,316.26 77.136,317.417C77.334,318.171 79.29,318.21 79.822,318.206C83.135,318.178 104.905,313.599 110.413,310.399C112.533,309.169 116.771,309.023 116.771,309.023C116.771,309.023 117.435,298.894 111.691,296.823Z" style="fill:rgb(213,163,203);"/>
                <path d="M102.017,144.016C102.017,133.974 93.863,125.82 83.821,125.82L38.132,125.82C28.089,125.82 19.936,133.974 19.936,144.016L19.936,163.225C19.936,173.269 28.089,181.421 38.132,181.421L53.457,181.421L64.299,197.452C64.299,197.452 67.059,201.564 69.814,201.139C72.998,200.645 72.495,195.254 72.495,195.254L73.19,181.421L83.821,181.421C93.863,181.421 102.017,173.269 102.017,163.225L102.017,144.016Z" style="fill:rgb(100,204,197);"/>
                <path d="M34.583,144.484L34.688,144.497L34.792,144.516L34.894,144.543L34.995,144.577L35.091,144.617L35.186,144.665L35.277,144.717L35.365,144.777L35.448,144.842L35.526,144.913L35.599,144.989L35.668,145.07L35.731,145.156L35.786,145.245L35.837,145.337L35.881,145.434L35.918,145.533L35.947,145.634L35.971,145.737L35.987,145.841L35.996,145.946L36.113,148.228L36.23,150.514L36.287,151.659L36.343,152.803L36.398,153.948L36.451,155.093L36.503,156.239L36.553,157.386L36.601,158.532L36.645,159.678L36.688,160.825L36.726,161.971L36.745,162.544L36.762,163.117L36.779,163.691L36.794,164.263L36.794,164.368L36.785,164.473L36.771,164.577L36.749,164.681L36.719,164.782L36.683,164.881L36.64,164.977L36.591,165.071L36.535,165.162L36.474,165.248L36.407,165.329L36.334,165.405L36.257,165.477L36.174,165.543L36.087,165.603L35.997,165.658L35.902,165.705L35.806,165.747L35.706,165.781L35.604,165.81L35.501,165.831L35.395,165.844L35.29,165.851L35.185,165.851L35.079,165.842L34.974,165.827L34.871,165.806L34.77,165.775L34.67,165.739L34.573,165.696L34.48,165.647L34.391,165.593L34.305,165.53L34.223,165.464L34.147,165.391L34.075,165.313L34.008,165.23L33.948,165.144L33.895,165.053L33.846,164.959L33.805,164.862L33.77,164.762L33.742,164.66L33.721,164.557L33.708,164.451L33.701,164.347L33.686,163.777L33.67,163.209L33.651,162.641L33.634,162.073L33.595,160.934L33.554,159.795L33.509,158.657L33.461,157.517L33.412,156.376L33.36,155.235L33.308,154.094L33.253,152.953L33.196,151.811L33.139,150.67L33.023,148.386L32.906,146.105L32.905,145.999L32.91,145.894L32.922,145.788L32.942,145.685L32.969,145.583L33.003,145.483L33.044,145.385L33.09,145.291L33.144,145.2L33.203,145.113L33.268,145.029L33.339,144.95L33.415,144.877L33.496,144.81L33.581,144.746L33.67,144.69L33.763,144.64L33.859,144.596L33.958,144.559L34.059,144.529L34.162,144.505L34.267,144.489L34.373,144.481L34.478,144.478L34.583,144.484Z" style="fill:white;"/>
                <path d="M46.088,143.548L46.195,143.561L46.302,143.581L46.406,143.608L46.508,143.644L46.608,143.686L46.705,143.734L46.797,143.789L46.886,143.851L46.97,143.919L47.049,143.992L47.124,144.07L47.191,144.154L47.253,144.242L47.31,144.335L47.359,144.43L47.402,144.53L47.438,144.632L47.465,144.735L47.487,144.842L47.501,144.949L47.506,145.057L47.505,145.165L47.491,145.457L47.478,145.745L47.468,146.034L47.459,146.323L47.451,146.612L47.441,147.192L47.439,147.482L47.436,147.774L47.435,148.065L47.436,148.356L47.439,148.648L47.441,148.94L47.445,149.232L47.45,149.526L47.457,149.819L47.463,150.112L47.471,150.406L47.489,150.997L47.509,151.586L47.533,152.178L47.558,152.771L47.585,153.366L47.64,154.558L47.696,155.755L47.723,156.354L47.749,156.956L47.774,157.559L47.796,158.161L47.816,158.765L47.832,159.371L47.839,159.674L47.844,159.977L47.85,160.281L47.854,160.584L47.857,160.888L47.858,161.192L47.858,161.497L47.857,161.801L47.855,162.106L47.852,162.412L47.847,162.716L47.84,163.021L47.833,163.328L47.822,163.633L47.811,163.939L47.797,164.241L47.789,164.349L47.774,164.456L47.75,164.561L47.719,164.664L47.681,164.766L47.636,164.864L47.585,164.959L47.526,165.05L47.463,165.137L47.392,165.219L47.317,165.296L47.236,165.367L47.15,165.434L47.06,165.492L46.967,165.546L46.869,165.593L46.768,165.632L46.666,165.664L46.561,165.689L46.454,165.707L46.347,165.718L46.238,165.721L46.131,165.716L46.024,165.703L45.917,165.684L45.813,165.657L45.71,165.623L45.611,165.582L45.514,165.533L45.421,165.478L45.332,165.417L45.247,165.35L45.168,165.276L45.093,165.198L45.024,165.115L44.962,165.027L44.905,164.935L44.856,164.84L44.813,164.74L44.776,164.639L44.747,164.534L44.726,164.429L44.712,164.321L44.705,164.214L44.707,164.105L44.719,163.813L44.73,163.524L44.74,163.236L44.747,162.946L44.753,162.657L44.758,162.367L44.762,162.076L44.764,161.786L44.764,161.203L44.76,160.62L44.756,160.326L44.752,160.034L44.745,159.741L44.739,159.446L44.731,159.153L44.723,158.858L44.703,158.269L44.682,157.678L44.658,157.085L44.632,156.492L44.606,155.896L44.549,154.703L44.494,153.506L44.467,152.906L44.441,152.304L44.418,151.702L44.397,151.098L44.378,150.494L44.37,150.191L44.363,149.888L44.357,149.584L44.352,149.281L44.348,148.977L44.344,148.674L44.342,148.37L44.341,148.065L44.342,147.761L44.344,147.456L44.348,147.15L44.352,146.846L44.358,146.54L44.366,146.235L44.376,145.929L44.387,145.623L44.4,145.317L44.414,145.016L44.424,144.907L44.44,144.801L44.463,144.696L44.495,144.593L44.533,144.492L44.579,144.394L44.63,144.298L44.689,144.208L44.753,144.121L44.823,144.04L44.9,143.963L44.982,143.892L45.067,143.827L45.158,143.768L45.252,143.715L45.35,143.668L45.45,143.629L45.553,143.598L45.658,143.573L45.765,143.556L45.872,143.545L45.981,143.543L46.088,143.548Z" style="fill:white;"/>
                <path d="M45.826,153.33L45.907,153.336L45.989,153.346L46.071,153.361L46.15,153.379L46.23,153.403L46.307,153.43L46.383,153.461L46.458,153.497L46.531,153.537L46.601,153.58L46.668,153.625L46.733,153.676L46.796,153.73L46.856,153.787L46.912,153.847L46.966,153.91L47.015,153.976L47.062,154.043L47.103,154.114L47.142,154.187L47.176,154.262L47.208,154.338L47.234,154.416L47.257,154.496L47.274,154.576L47.288,154.657L47.298,154.739L47.303,154.821L47.304,154.904L47.3,154.986L47.293,155.067L47.279,155.149L47.263,155.229L47.242,155.309L47.217,155.388L47.187,155.465L47.154,155.54L47.117,155.613L47.075,155.685L47.03,155.754L46.982,155.82L46.93,155.885L46.875,155.945L46.816,156.003L46.755,156.058L46.691,156.109L46.623,156.158L46.554,156.202L46.482,156.243L46.408,156.279L46.333,156.311L46.255,156.34L46.177,156.365L46.098,156.386L46.016,156.402L45.936,156.413L45.853,156.42L45.506,156.441L45.154,156.462L44.803,156.481L43.747,156.532L43.044,156.563L42.341,156.594L41.64,156.627L41.291,156.645L40.943,156.664L40.597,156.684L40.251,156.706L39.906,156.729L39.564,156.754L39.222,156.782L38.882,156.812L38.544,156.844L38.207,156.878L38.04,156.898L37.874,156.916L37.708,156.936L37.543,156.958L37.378,156.979L37.213,157.002L37.05,157.026L36.886,157.049L36.562,157.101L36.401,157.128L36.241,157.157L36.081,157.186L35.921,157.216L35.764,157.247L35.607,157.279L35.45,157.312L35.138,157.382L34.979,157.42L34.898,157.437L34.816,157.45L34.734,157.457L34.652,157.462L34.57,157.461L34.487,157.456L34.406,157.447L34.324,157.434L34.245,157.416L34.165,157.393L34.086,157.368L34.01,157.336L33.935,157.302L33.862,157.264L33.793,157.221L33.724,157.175L33.658,157.126L33.595,157.073L33.534,157.017L33.478,156.957L33.424,156.894L33.373,156.83L33.326,156.763L33.283,156.693L33.243,156.62L33.208,156.545L33.177,156.469L33.149,156.392L33.125,156.313L33.107,156.233L33.092,156.152L33.081,156.07L33.075,155.988L33.074,155.905L33.076,155.824L33.083,155.741L33.095,155.659L33.11,155.579L33.13,155.499L33.155,155.421L33.183,155.343L33.215,155.267L33.252,155.193L33.293,155.122L33.337,155.052L33.384,154.984L33.436,154.92L33.49,154.859L33.548,154.8L33.608,154.745L33.673,154.692L33.739,154.644L33.809,154.599L33.879,154.557L33.952,154.519L34.027,154.486L34.105,154.457L34.183,154.431L34.263,154.41L34.436,154.369L34.615,154.328L34.795,154.289L34.974,154.249L35.154,154.213L35.335,154.178L35.516,154.144L35.696,154.11L35.878,154.079L36.058,154.049L36.24,154.019L36.421,153.991L36.602,153.964L36.783,153.938L36.965,153.914L37.147,153.889L37.328,153.866L37.51,153.844L37.692,153.823L37.875,153.803L38.237,153.765L38.6,153.731L38.963,153.699L39.325,153.669L39.687,153.643L40.049,153.618L40.41,153.596L40.77,153.575L41.129,153.555L41.488,153.537L42.199,153.503L42.906,153.472L43.607,153.441L44.3,153.409L44.642,153.391L44.982,153.372L45.321,153.352L45.66,153.332L45.743,153.329L45.826,153.33Z" style="fill:white;"/>
                <path d="M61.274,142.84L61.358,142.849L61.443,142.863L61.526,142.881L61.609,142.904L61.69,142.931L61.769,142.962L61.846,142.998L61.921,143.038L61.993,143.082L62.065,143.13L62.132,143.182L62.196,143.238L62.258,143.297L62.316,143.359L62.371,143.425L62.422,143.494L62.469,143.564L62.512,143.638L62.551,143.714L62.586,143.791L62.617,143.871L62.642,143.952L62.664,144.035L62.68,144.119L62.693,144.203L62.7,144.288L62.704,144.373L62.701,144.458L62.695,144.543L62.683,144.628L62.668,144.712L62.648,144.794L62.622,144.876L62.593,144.956L62.56,145.034L62.521,145.11L62.479,145.185L62.433,145.256L62.383,145.325L62.329,145.391L62.272,145.454L62.211,145.514L62.147,145.57L62.081,145.624L62.011,145.672L61.938,145.717L61.863,145.758L61.786,145.796L61.708,145.828L61.627,145.856L61.545,145.88L61.463,145.899L61.378,145.914L61.185,145.942L60.983,145.969L60.784,145.995L60.384,146.039L60.185,146.059L59.985,146.077L59.788,146.093L59.589,146.108L59.393,146.123L59.195,146.135L58.998,146.146L58.802,146.157L58.606,146.165L58.411,146.173L58.215,146.181L57.828,146.192L57.442,146.202L57.059,146.209L56.677,146.215L55.92,146.224L55.545,146.227L55.172,146.233L54.803,146.24L54.436,146.248L54.069,146.259L53.889,146.265L53.708,146.272L53.528,146.279L53.348,146.289L53.17,146.299L52.816,146.321L52.638,146.334L52.463,146.348L52.288,146.363L51.94,146.397L51.768,146.417L51.596,146.438L51.424,146.461L51.254,146.484L51.085,146.51L50.916,146.537L50.747,146.566L50.58,146.597L50.414,146.629L50.248,146.664L50.084,146.7L49.919,146.739L49.754,146.779L49.582,146.824L49.499,146.843L49.415,146.858L49.33,146.868L49.246,146.873L49.161,146.874L49.075,146.87L48.99,146.862L48.906,146.848L48.822,146.831L48.74,146.808L48.66,146.78L48.581,146.748L48.503,146.713L48.428,146.673L48.355,146.628L48.284,146.581L48.216,146.528L48.152,146.474L48.09,146.415L48.033,146.352L47.978,146.287L47.926,146.218L47.879,146.147L47.836,146.074L47.797,145.998L47.762,145.92L47.732,145.841L47.706,145.759L47.685,145.678L47.667,145.594L47.654,145.509L47.647,145.424L47.644,145.339L47.646,145.254L47.652,145.168L47.663,145.084L47.679,145.001L47.699,144.918L47.724,144.836L47.753,144.756L47.788,144.677L47.825,144.601L47.867,144.527L47.913,144.455L47.962,144.386L48.017,144.321L48.074,144.257L48.135,144.197L48.199,144.14L48.266,144.088L48.336,144.038L48.407,143.993L48.482,143.952L48.559,143.916L48.637,143.882L48.718,143.854L48.799,143.831L48.993,143.78L49.195,143.73L49.398,143.683L49.6,143.639L49.802,143.597L50.004,143.557L50.206,143.52L50.407,143.485L50.607,143.453L50.809,143.423L51.008,143.394L51.21,143.368L51.409,143.344L51.608,143.322L51.807,143.301L52.005,143.282L52.204,143.265L52.402,143.248L52.6,143.235L52.796,143.221L52.993,143.209L53.19,143.198L53.385,143.189L53.58,143.181L53.775,143.172L53.97,143.166L54.356,143.155L54.741,143.146L55.124,143.139L55.505,143.135L55.884,143.129L56.636,143.121L57.007,143.115L57.377,143.109L57.745,143.099L58.111,143.088L58.29,143.082L58.471,143.075L58.651,143.066L58.831,143.056L59.009,143.047L59.186,143.035L59.363,143.023L59.541,143.009L59.716,142.995L59.891,142.979L60.065,142.962L60.239,142.942L60.412,142.922L60.584,142.9L60.756,142.878L60.934,142.852L61.019,142.841L61.104,142.836L61.189,142.836L61.274,142.84Z" style="fill:white;"/>
                <path d="M55.216,143.931L55.322,143.942L55.426,143.961L55.528,143.988L55.628,144.02L55.726,144.06L55.821,144.106L55.913,144.16L56.001,144.218L56.084,144.283L56.163,144.353L56.237,144.428L56.305,144.509L56.368,144.594L56.425,144.683L56.476,144.775L56.521,144.871L56.559,144.97L56.589,145.071L56.613,145.174L56.629,145.278L56.64,145.383L56.673,145.961L56.705,146.542L56.761,147.704L56.786,148.284L56.81,148.863L56.833,149.443L56.853,150.022L56.871,150.602L56.889,151.18L56.905,151.758L56.921,152.337L56.951,153.492L56.976,154.646L57.001,155.799L57.024,156.951L57.049,158.1L57.075,159.248L57.104,160.397L57.119,160.97L57.135,161.542L57.152,162.115L57.171,162.687L57.191,163.259L57.211,163.833L57.212,163.938L57.205,164.043L57.191,164.148L57.171,164.252L57.142,164.353L57.107,164.453L57.066,164.551L57.017,164.644L56.962,164.734L56.901,164.821L56.836,164.902L56.764,164.98L56.686,165.053L56.605,165.12L56.519,165.181L56.428,165.236L56.335,165.285L56.238,165.327L56.138,165.362L56.037,165.392L55.933,165.414L55.829,165.428L55.724,165.436L55.618,165.436L55.513,165.43L55.408,165.415L55.305,165.394L55.203,165.366L55.103,165.33L55.006,165.288L54.912,165.241L54.821,165.186L54.735,165.125L54.652,165.059L54.575,164.987L54.503,164.91L54.437,164.829L54.376,164.743L54.319,164.652L54.271,164.559L54.228,164.462L54.193,164.362L54.164,164.261L54.142,164.157L54.127,164.053L54.12,163.947L54.098,163.37L54.079,162.79L54.06,162.211L54.043,161.634L54.026,161.055L54.01,160.477L53.982,159.322L53.957,158.168L53.932,157.015L53.908,155.864L53.883,154.714L53.857,153.565L53.829,152.418L53.813,151.845L53.796,151.273L53.779,150.7L53.76,150.127L53.718,148.985L53.695,148.414L53.67,147.844L53.644,147.273L53.615,146.704L53.584,146.134L53.55,145.561L53.548,145.456L53.552,145.351L53.564,145.246L53.584,145.142L53.609,145.04L53.643,144.939L53.683,144.842L53.729,144.746L53.781,144.655L53.84,144.567L53.905,144.484L53.976,144.405L54.051,144.331L54.131,144.263L54.216,144.199L54.306,144.143L54.398,144.092L54.494,144.047L54.592,144.009L54.693,143.978L54.796,143.955L54.901,143.937L55.006,143.928L55.111,143.925L55.216,143.931Z" style="fill:white;"/>
                <path d="M76.536,141.317L76.644,141.326L76.65,141.327L76.766,141.344L76.878,141.37L76.989,141.404L76.995,141.406L77.079,141.438L77.161,141.475L77.24,141.517L77.247,141.521L77.332,141.573L77.414,141.629L77.421,141.635L77.479,141.68L77.535,141.727L77.541,141.735L77.6,141.79L77.656,141.85L77.671,141.867L77.718,141.921L77.762,141.977L77.808,142.039L77.87,142.135L77.917,142.217L77.958,142.291L78.029,142.433L78.085,142.556L78.138,142.683L78.189,142.805L78.235,142.924L78.279,143.04L78.352,143.24L78.406,143.393L78.438,143.485L78.486,143.643L78.529,143.791L78.57,143.939L78.608,144.089L78.645,144.237L78.678,144.386L78.71,144.536L78.74,144.684L78.768,144.832L78.794,144.98L78.817,145.129L78.84,145.277L78.86,145.425L78.88,145.572L78.898,145.72L78.914,145.866L78.928,146.013L78.942,146.158L78.954,146.304L78.964,146.448L78.974,146.593L78.983,146.736L78.99,146.88L78.998,147.024L79.007,147.304L79.015,147.583L79.02,147.86L79.022,148.129L79.024,148.672L79.024,149.212L79.022,150.29L79.018,151.367L79.014,152.443L79.011,153.516L79.01,154.589L79.01,155.123L79.012,155.658L79.018,156.726L79.025,157.259L79.032,157.792L79.041,158.324L79.053,158.855L79.066,159.386L79.082,159.915L79.1,160.445L79.122,160.975L79.145,161.502L79.173,162.032L79.187,162.294L79.203,162.558L79.219,162.821L79.236,163.084L79.255,163.347L79.273,163.609L79.294,163.871L79.314,164.135L79.336,164.396L79.359,164.659L79.382,164.92L79.407,165.186L79.414,165.301L79.412,165.416L79.401,165.531L79.381,165.645L79.354,165.758L79.318,165.867L79.274,165.975L79.221,166.078L79.162,166.177L79.095,166.271L79.022,166.36L78.941,166.444L78.855,166.52L78.763,166.592L78.666,166.655L78.565,166.711L78.46,166.759L78.351,166.8L78.24,166.832L78.128,166.855L78.013,166.871L77.897,166.877L77.782,166.875L77.666,166.864L77.552,166.845L77.44,166.817L77.33,166.782L77.223,166.737L77.12,166.686L77.02,166.626L76.927,166.559L76.837,166.485L76.753,166.404L76.676,166.318L76.607,166.227L76.542,166.13L76.486,166.028L76.438,165.924L76.398,165.814L76.366,165.704L76.342,165.592L76.327,165.477L76.301,165.206L76.276,164.932L76.253,164.658L76.231,164.385L76.208,164.111L76.188,163.837L76.168,163.564L76.149,163.29L76.131,163.018L76.114,162.745L76.098,162.471L76.083,162.197L76.055,161.652L76.031,161.106L76.008,160.561L75.99,160.016L75.974,159.472L75.96,158.927L75.948,158.384L75.938,157.84L75.931,157.298L75.925,156.755L75.921,156.212L75.918,155.671L75.916,155.129L75.916,154.589L75.917,153.51L75.92,152.432L75.924,151.355L75.927,150.282L75.93,149.211L75.93,148.676L75.927,148.144L75.926,147.895L75.925,147.849L75.884,147.955L75.736,148.352L75.437,149.153L75.284,149.558L75.129,149.963L74.972,150.369L74.893,150.575L74.811,150.779L74.73,150.983L74.646,151.187L74.562,151.392L74.476,151.596L74.389,151.801L74.3,152.005L74.21,152.21L74.119,152.411L74.005,152.662L73.936,152.814L73.857,152.98L73.772,153.155L73.724,153.25L73.675,153.345L73.624,153.441L73.57,153.54L73.515,153.639L73.456,153.738L73.394,153.839L73.331,153.941L73.263,154.044L73.192,154.147L73.117,154.251L73.038,154.354L72.954,154.457L72.863,154.561L72.772,154.658L72.716,154.715L72.663,154.767L72.608,154.817L72.55,154.869L72.49,154.919L72.426,154.968L72.359,155.018L72.29,155.066L72.218,155.113L72.142,155.16L72.061,155.204L71.977,155.247L71.889,155.287L71.828,155.312L71.722,155.351L71.612,155.382L71.501,155.405L71.388,155.42L71.275,155.426L71.163,155.424L71.049,155.415L70.937,155.396L70.828,155.369L70.719,155.335L70.614,155.293L70.512,155.242L70.414,155.186L70.412,155.185L70.319,155.121L70.232,155.051L70.15,154.975L70.073,154.892L70.025,154.836L69.951,154.735L69.877,154.623L69.795,154.493L69.697,154.337L69.465,153.959L69.201,153.524L68.696,152.694L68.519,152.404L68.467,152.32L68.446,152.287L68.345,152.132L68.234,151.957L68.128,151.783L68.024,151.61L67.921,151.437L67.823,151.265L67.725,151.094L67.63,150.925L67.446,150.593L67.265,150.267L67.086,149.947L66.999,149.793L66.911,149.641L66.822,149.49L66.733,149.343L66.645,149.2L66.556,149.06L66.467,148.922L66.375,148.786L66.331,148.722L66.285,148.658L66.239,148.593L66.193,148.53L66.147,148.469L66.1,148.408L66.052,148.347L66.005,148.287L65.958,148.229L65.909,148.172L65.861,148.115L65.812,148.06L65.783,148.027L65.792,148.217L65.807,148.444L65.838,148.892L65.851,149.109L65.858,149.22L65.862,149.323L65.879,149.716L65.897,150.107L65.915,150.502L65.931,150.902L65.939,151.105L65.946,151.309L65.951,151.514L65.956,151.72L65.96,151.927L65.962,152.135L65.962,152.346L65.961,152.556L65.957,152.851L65.95,153.145L65.942,153.437L65.933,153.73L65.923,154.02L65.913,154.31L65.889,154.884L65.864,155.455L65.839,156.021L65.818,156.584L65.808,156.862L65.8,157.142L65.795,157.36L65.79,157.577L65.781,158.018L65.777,158.458L65.775,158.898L65.774,159.341L65.776,159.785L65.779,160.229L65.784,160.674L65.789,161.121L65.795,161.568L65.808,162.467L65.821,163.368L65.827,163.82L65.831,164.271L65.828,164.386L65.816,164.501L65.795,164.615L65.767,164.727L65.73,164.837L65.685,164.943L65.631,165.047L65.571,165.144L65.503,165.239L65.428,165.327L65.348,165.41L65.26,165.486L65.168,165.556L65.07,165.618L64.969,165.673L64.863,165.721L64.754,165.76L64.643,165.791L64.53,165.813L64.415,165.828L64.299,165.833L64.184,165.83L64.069,165.818L63.955,165.798L63.842,165.769L63.733,165.731L63.627,165.686L63.524,165.634L63.425,165.573L63.331,165.506L63.243,165.431L63.16,165.35L63.084,165.263L63.014,165.17L62.952,165.072L62.897,164.971L62.85,164.865L62.81,164.757L62.779,164.644L62.756,164.532L62.742,164.417L62.737,164.301L62.732,163.854L62.727,163.408L62.714,162.512L62.701,161.613L62.695,161.161L62.685,160.255L62.682,159.801L62.68,159.345L62.681,158.889L62.683,158.431L62.689,157.973L62.696,157.516L62.701,157.285L62.708,157.055L62.716,156.764L62.726,156.472L62.749,155.895L62.773,155.322L62.797,154.753L62.821,154.187L62.832,153.908L62.841,153.628L62.85,153.35L62.857,153.072L62.862,152.796L62.867,152.522L62.868,152.337L62.868,152.154L62.866,151.968L62.862,151.782L62.858,151.594L62.853,151.405L62.846,151.215L62.839,151.024L62.823,150.637L62.806,150.247L62.787,149.851L62.771,149.456L62.767,149.371L62.763,149.289L62.751,149.095L62.72,148.65L62.705,148.403L62.69,148.145L62.684,148.009L62.679,147.872L62.674,147.732L62.672,147.591L62.671,147.447L62.672,147.302L62.676,147.155L62.682,147.005L62.69,146.855L62.701,146.704L62.716,146.55L62.736,146.401L62.748,146.318L62.759,146.24L62.774,146.16L62.789,146.081L62.805,146.001L62.823,145.921L62.842,145.841L62.864,145.759L62.886,145.678L62.911,145.596L62.938,145.513L62.968,145.431L62.999,145.348L63.033,145.264L63.071,145.18L63.125,145.067L63.162,145L63.21,144.921L63.261,144.847L63.275,144.828L63.332,144.755L63.393,144.685L63.408,144.669L63.474,144.603L63.543,144.542L63.559,144.527L63.629,144.471L63.703,144.421L63.721,144.408L63.793,144.364L63.866,144.323L63.886,144.312L63.957,144.278L64.028,144.248L64.051,144.239L64.117,144.214L64.185,144.194L64.269,144.169L64.413,144.14L64.545,144.123L64.668,144.116L64.781,144.115L64.885,144.12L64.983,144.128L65.075,144.142L65.161,144.155L65.242,144.172L65.319,144.191L65.394,144.21L65.463,144.23L65.532,144.252L65.606,144.277L65.725,144.321L65.846,144.37L65.963,144.421L66.075,144.473L66.183,144.526L66.29,144.581L66.392,144.636L66.491,144.69L66.586,144.744L66.677,144.799L66.767,144.852L66.851,144.904L66.934,144.957L67.078,145.052L67.21,145.143L67.321,145.224L67.39,145.278L67.454,145.331L67.554,145.423L67.64,145.503L67.724,145.584L67.807,145.666L67.887,145.748L67.967,145.831L68.044,145.915L68.12,145.999L68.194,146.084L68.268,146.17L68.339,146.254L68.41,146.34L68.479,146.426L68.547,146.514L68.613,146.601L68.678,146.687L68.742,146.774L68.805,146.862L68.867,146.95L68.929,147.039L69.045,147.212L69.159,147.387L69.27,147.562L69.378,147.736L69.482,147.91L69.584,148.083L69.684,148.255L69.781,148.427L69.968,148.762L70.151,149.092L70.331,149.415L70.42,149.572L70.507,149.727L70.594,149.879L70.683,150.029L70.771,150.175L70.859,150.318L70.948,150.458L71.05,150.614L71.092,150.682L71.157,150.787L71.329,151.07L71.384,150.949L71.466,150.765L71.546,150.579L71.626,150.392L71.706,150.203L71.784,150.014L71.861,149.824L71.938,149.631L72.09,149.247L72.24,148.855L72.39,148.462L72.539,148.067L72.839,147.267L72.989,146.864L73.143,146.458L73.298,146.053L73.458,145.646L73.539,145.44L73.705,145.032L73.785,144.838L73.793,144.818L73.804,144.791L73.843,144.683L73.961,144.36L74.033,144.16L74.115,143.941L74.203,143.713L74.251,143.592L74.3,143.472L74.35,143.351L74.402,143.229L74.457,143.107L74.513,142.985L74.571,142.863L74.631,142.742L74.695,142.62L74.763,142.498L74.833,142.383L74.876,142.315L74.918,142.253L74.961,142.189L75.01,142.124L75.061,142.058L75.117,141.99L75.181,141.919L75.251,141.848L75.331,141.772L75.423,141.695L75.532,141.616L75.659,141.536L75.741,141.494L75.811,141.461L75.882,141.431L75.903,141.422L76.002,141.388L76.103,141.36L76.205,141.339L76.21,141.338L76.318,141.323L76.427,141.317L76.536,141.317Z" style="fill:white;"/>
                <path d="M83.345,141.546L83.462,141.561L83.578,141.585L83.691,141.618L83.803,141.66L83.911,141.709L84.014,141.767L84.113,141.832L84.206,141.906L84.294,141.985L84.375,142.072L84.449,142.165L84.516,142.262L84.575,142.364L84.627,142.472L84.67,142.582L84.704,142.695L84.73,142.811L84.746,142.928L84.754,143.047L84.752,143.165L84.725,143.697L84.699,144.227L84.676,144.76L84.653,145.294L84.632,145.83L84.612,146.367L84.595,146.906L84.579,147.446L84.565,147.986L84.554,148.528L84.545,149.069L84.537,149.612L84.533,150.155L84.53,150.698L84.53,151.241L84.533,151.783L84.538,152.326L84.547,152.867L84.559,153.409L84.573,153.95L84.581,154.219L84.591,154.487L84.601,154.757L84.611,155.025L84.623,155.294L84.649,155.83L84.663,156.098L84.678,156.364L84.694,156.63L84.711,156.897L84.73,157.162L84.748,157.428L84.767,157.692L84.788,157.956L84.81,158.219L84.833,158.482L84.855,158.745L84.88,159.007L84.906,159.268L84.96,159.788L84.988,160.047L85.02,160.316L85.027,160.387L85.034,160.468L85.039,160.547L85.043,160.63L85.047,160.782L85.05,160.939L85.05,161.101L85.048,161.267L85.042,161.604L85.035,161.958L85.027,162.32L85.024,162.5L85.023,162.68L85.023,162.859L85.025,163.036L85.028,163.207L85.034,163.375L85.041,163.54L85.046,163.614L85.052,163.688L85.057,163.763L85.065,163.833L85.071,163.901L85.079,163.967L85.087,164.028L85.096,164.086L85.106,164.141L85.114,164.191L85.124,164.237L85.132,164.277L85.15,164.284L85.193,164.299L85.233,164.31L85.277,164.321L85.325,164.332L85.374,164.342L85.428,164.351L85.483,164.358L85.543,164.365L85.604,164.371L85.668,164.376L85.734,164.38L85.802,164.382L85.941,164.384L86.013,164.383L86.086,164.381L86.161,164.378L86.234,164.374L86.31,164.37L86.382,164.364L86.537,164.351L86.692,164.336L87.066,164.296L87.449,164.256L87.833,164.215L88.218,164.176L88.604,164.134L88.988,164.09L89.178,164.065L89.368,164.042L89.559,164.019L89.748,163.993L89.936,163.967L90.124,163.94L90.31,163.911L90.494,163.882L90.677,163.852L90.858,163.82L91.039,163.788L91.217,163.753L91.394,163.717L91.567,163.68L91.739,163.642L91.91,163.601L92.077,163.559L92.242,163.516L92.404,163.471L92.575,163.421L92.689,163.392L92.806,163.372L92.924,163.361L93.043,163.359L93.161,163.365L93.279,163.381L93.395,163.407L93.508,163.44L93.619,163.483L93.726,163.534L93.829,163.593L93.927,163.66L94.019,163.734L94.106,163.814L94.187,163.901L94.26,163.994L94.326,164.093L94.384,164.196L94.435,164.304L94.477,164.414L94.51,164.528L94.535,164.644L94.55,164.761L94.556,164.879L94.554,164.998L94.543,165.115L94.522,165.232L94.492,165.348L94.454,165.459L94.407,165.569L94.352,165.673L94.29,165.774L94.22,165.87L94.143,165.959L94.058,166.043L93.969,166.12L93.872,166.189L93.772,166.252L93.667,166.306L93.557,166.352L93.444,166.39L93.253,166.446L93.05,166.503L92.846,166.557L92.641,166.607L92.436,166.656L92.23,166.702L92.023,166.746L91.817,166.788L91.61,166.828L91.403,166.865L91.197,166.902L90.99,166.936L90.783,166.969L90.577,167.001L90.371,167.03L90.166,167.059L89.961,167.086L89.755,167.112L89.552,167.138L89.348,167.162L88.946,167.208L88.549,167.251L88.155,167.293L87.769,167.333L87.39,167.373L87.011,167.412L86.824,167.432L86.626,167.449L86.516,167.456L86.409,167.463L86.298,167.47L86.186,167.474L86.071,167.476L85.955,167.477L85.836,167.477L85.716,167.475L85.593,167.471L85.47,167.464L85.344,167.454L85.216,167.442L85.087,167.428L84.956,167.408L84.824,167.387L84.691,167.361L84.555,167.331L84.419,167.295L84.281,167.256L84.15,167.213L84.074,167.186L84.004,167.159L83.936,167.132L83.866,167.102L83.726,167.038L83.656,167.004L83.586,166.968L83.518,166.929L83.448,166.89L83.379,166.848L83.312,166.804L83.244,166.757L83.176,166.709L83.109,166.659L83.04,166.603L82.977,166.551L82.914,166.494L82.855,166.436L82.8,166.377L82.747,166.316L82.698,166.257L82.652,166.196L82.602,166.129L82.529,166.018L82.46,165.899L82.398,165.782L82.344,165.667L82.296,165.552L82.253,165.438L82.215,165.327L82.181,165.217L82.151,165.106L82.123,164.998L82.1,164.89L82.077,164.781L82.039,164.567L82.023,164.46L82.009,164.352L81.996,164.246L81.985,164.14L81.975,164.032L81.966,163.926L81.959,163.82L81.952,163.71L81.941,163.502L81.935,163.29L81.931,163.081L81.929,162.873L81.929,162.668L81.931,162.466L81.933,162.268L81.94,161.892L81.949,161.54L81.955,161.224L81.956,161.087L81.956,160.961L81.955,160.853L81.951,160.759L81.95,160.728L81.948,160.699L81.944,160.654L81.914,160.393L81.883,160.121L81.827,159.575L81.8,159.301L81.774,159.027L81.751,158.753L81.727,158.478L81.704,158.203L81.683,157.927L81.661,157.651L81.642,157.375L81.624,157.099L81.607,156.822L81.589,156.544L81.574,156.267L81.559,155.989L81.545,155.711L81.532,155.434L81.521,155.155L81.509,154.876L81.499,154.598L81.489,154.318L81.481,154.039L81.466,153.483L81.454,152.924L81.445,152.365L81.439,151.808L81.436,151.249L81.436,150.691L81.439,150.134L81.443,149.578L81.451,149.022L81.461,148.468L81.472,147.915L81.486,147.361L81.502,146.811L81.521,146.261L81.54,145.714L81.561,145.167L81.585,144.623L81.608,144.082L81.635,143.543L81.662,143.009L81.673,142.891L81.692,142.774L81.72,142.659L81.758,142.546L81.803,142.436L81.858,142.331L81.919,142.23L81.989,142.133L82.065,142.043L82.148,141.959L82.238,141.881L82.333,141.811L82.433,141.748L82.538,141.692L82.647,141.644L82.759,141.606L82.873,141.576L82.99,141.556L83.108,141.542L83.227,141.54L83.345,141.546Z" style="fill:white;"/>
                <path d="M126.746,35.808C126.746,25.765 122.394,17.612 112.352,17.612L66.663,17.612C56.62,17.612 52.381,25.765 52.381,35.808L52.381,55.017C52.381,65.059 56.62,73.212 66.663,73.212L81.988,73.212L92.83,89.244C92.83,89.244 95.589,93.356 98.345,92.93C101.529,92.436 101.026,87.045 101.026,87.045L101.722,73.212L112.352,73.212C122.394,73.212 126.746,65.059 126.746,55.017L126.746,35.808Z" style="fill:rgb(100,204,197);"/>
                <path d="M80.009,36.089L80.093,36.097L80.175,36.108L80.258,36.124L80.339,36.145L80.42,36.169L80.498,36.199L80.575,36.232L80.649,36.268L80.722,36.31L80.793,36.355L80.861,36.405L80.926,36.457L80.989,36.513L81.048,36.572L81.104,36.635L81.155,36.7L81.205,36.769L81.25,36.839L81.291,36.912L81.327,36.987L81.36,37.064L81.389,37.143L81.413,37.224L81.434,37.305L81.45,37.387L81.461,37.471L81.467,37.553L81.469,37.637L81.467,37.721L81.459,37.805L81.448,37.888L81.432,37.97L81.412,38.051L81.387,38.131L81.358,38.21L81.325,38.287L81.287,38.361L81.246,38.434L81.2,38.505L81.152,38.573L81.099,38.639L81.043,38.701L80.983,38.76L80.921,38.816L80.856,38.867L80.65,39.023L80.44,39.18L80.228,39.334L80.016,39.488L79.804,39.639L79.591,39.789L79.163,40.083L78.95,40.228L78.522,40.514L78.306,40.656L77.879,40.934L77.451,41.21L77.024,41.483L76.599,41.754L76.176,42.022L75.754,42.291L75.336,42.559L74.921,42.828L74.716,42.962L74.51,43.097L74.307,43.232L74.096,43.374L74.015,43.427L73.927,43.482L73.838,43.536L73.749,43.589L73.661,43.64L73.568,43.69L73.394,43.783L73.216,43.877L73.039,43.967L72.689,44.145L72.519,44.232L72.354,44.317L72.194,44.404L72.121,44.444L72.049,44.485L72.047,44.486L72.069,44.498L72.12,44.523L72.168,44.547L72.278,44.6L72.39,44.649L72.506,44.7L72.609,44.743L72.714,44.786L72.822,44.829L72.93,44.871L73.04,44.912L73.149,44.952L73.379,45.035L73.612,45.117L73.851,45.199L74.336,45.366L74.522,45.43L74.706,45.491L74.89,45.55L75.262,45.664L75.64,45.776L75.83,45.83L76.021,45.884L76.213,45.937L76.605,46.044L77.401,46.256L77.556,46.298L77.714,46.342L78.022,46.431L78.328,46.521L78.629,46.611L78.928,46.704L79.222,46.795L79.806,46.974L80.091,47.061L80.377,47.146L80.66,47.227L80.798,47.267L81.076,47.343L81.352,47.413L81.489,47.447L81.626,47.479L81.762,47.51L81.898,47.54L82.042,47.57L82.123,47.59L82.203,47.613L82.282,47.641L82.359,47.673L82.435,47.71L82.508,47.75L82.58,47.795L82.648,47.842L82.714,47.895L82.776,47.95L82.836,48.008L82.894,48.07L82.946,48.134L82.997,48.202L83.042,48.272L83.085,48.345L83.122,48.419L83.157,48.496L83.186,48.574L83.211,48.654L83.233,48.735L83.249,48.816L83.262,48.9L83.27,48.983L83.273,49.067L83.272,49.151L83.265,49.234L83.255,49.317L83.24,49.4L83.221,49.481L83.197,49.562L83.17,49.641L83.137,49.718L83.101,49.794L83.06,49.867L83.016,49.938L82.967,50.007L82.916,50.073L82.86,50.136L82.802,50.196L82.74,50.252L82.675,50.306L82.607,50.355L82.538,50.401L82.466,50.443L82.391,50.481L82.315,50.515L82.236,50.545L82.156,50.571L82.075,50.591L81.993,50.608L81.91,50.621L81.827,50.628L81.743,50.631L81.659,50.63L81.575,50.624L81.493,50.614L81.41,50.599L81.253,50.567L81.088,50.53L80.925,50.494L80.763,50.455L80.602,50.415L80.443,50.374L80.284,50.333L80.126,50.29L79.812,50.204L79.506,50.116L79.201,50.024L78.899,49.933L78.308,49.75L78.016,49.66L77.728,49.572L77.442,49.485L77.16,49.402L76.876,49.32L76.739,49.283L76.598,49.244L75.8,49.031L75.396,48.921L75.19,48.865L74.986,48.807L74.781,48.749L74.576,48.689L74.37,48.627L74.162,48.564L73.954,48.498L73.746,48.432L73.536,48.363L73.332,48.293L72.843,48.125L72.595,48.038L72.342,47.951L72.088,47.858L71.957,47.81L71.826,47.761L71.695,47.71L71.563,47.657L71.429,47.603L71.294,47.547L71.137,47.479L70.977,47.407L70.819,47.332L70.734,47.29L70.652,47.248L70.571,47.205L70.488,47.161L70.405,47.115L70.323,47.067L70.239,47.018L70.156,46.968L70.073,46.915L69.991,46.861L69.915,46.809L69.84,46.758L69.769,46.705L69.697,46.652L69.628,46.597L69.559,46.542L69.491,46.485L69.426,46.427L69.361,46.367L69.298,46.307L69.235,46.244L69.175,46.18L69.116,46.114L69.058,46.045L69.003,45.974L68.948,45.901L68.895,45.826L68.844,45.747L68.796,45.666L68.75,45.584L68.707,45.498L68.666,45.409L68.628,45.319L68.594,45.224L68.564,45.128L68.537,45.031L68.515,44.931L68.498,44.83L68.483,44.727L68.475,44.625L68.472,44.522L68.473,44.42L68.478,44.318L68.488,44.218L68.502,44.12L68.52,44.023L68.543,43.93L68.568,43.837L68.596,43.749L68.628,43.662L68.663,43.579L68.698,43.498L68.737,43.422L68.777,43.348L68.819,43.276L68.861,43.207L68.905,43.142L68.95,43.079L68.995,43.018L69.041,42.959L69.088,42.902L69.14,42.842L69.23,42.746L69.326,42.649L69.423,42.559L69.521,42.473L69.62,42.392L69.719,42.316L69.818,42.242L69.917,42.172L70.017,42.104L70.115,42.038L70.215,41.976L70.315,41.915L70.414,41.856L70.513,41.799L70.612,41.743L70.713,41.687L70.904,41.584L71.095,41.484L71.282,41.389L71.633,41.21L71.795,41.127L71.946,41.049L72.086,40.974L72.145,40.941L72.203,40.909L72.254,40.878L72.302,40.85L72.341,40.825L72.385,40.796L72.59,40.658L72.804,40.517L73.019,40.375L73.234,40.235L73.661,39.957L74.088,39.685L74.515,39.413L74.938,39.143L75.36,38.875L75.779,38.606L76.196,38.339L76.61,38.069L76.814,37.934L77.017,37.798L77.22,37.663L77.622,37.389L77.82,37.251L78.017,37.113L78.213,36.973L78.408,36.832L78.602,36.691L78.794,36.548L78.988,36.4L79.057,36.352L79.127,36.307L79.2,36.265L79.275,36.228L79.353,36.195L79.431,36.167L79.511,36.143L79.593,36.122L79.675,36.107L79.758,36.096L79.841,36.089L79.925,36.087L80.009,36.089Z" style="fill:white;"/>
                <path d="M97.933,32.322L98.053,32.34L98.171,32.368L98.288,32.404L98.4,32.449L98.509,32.503L98.613,32.565L98.712,32.636L98.805,32.713L98.892,32.798L98.972,32.891L99.045,32.987L99.109,33.091L99.165,33.198L99.212,33.309L99.251,33.425L99.281,33.543L99.302,33.663L99.313,33.784L99.314,33.905L99.305,34.026L99.288,34.146L99.26,34.265L99.224,34.381L99.178,34.494L98.966,34.966L98.75,35.442L98.531,35.915L98.31,36.388L97.862,37.326L97.635,37.793L97.408,38.258L97.178,38.723L96.948,39.185L96.716,39.647L96.482,40.108L96.25,40.568L96.015,41.028L95.545,41.942L95.074,42.854L94.604,43.765L94.134,44.674L93.668,45.583L93.436,46.036L93.205,46.491L92.975,46.945L92.746,47.399L92.52,47.855L92.294,48.309L92.07,48.766L91.85,49.221L91.704,49.526L91.561,49.83L91.42,50.138L91.282,50.447L91.144,50.758L91.008,51.071L90.874,51.385L90.739,51.701L90.606,52.018L90.473,52.337L90.207,52.978L89.94,53.624L89.67,54.272L89.533,54.599L89.395,54.924L89.254,55.251L89.113,55.579L88.969,55.905L88.822,56.233L88.672,56.56L88.519,56.887L88.364,57.212L88.283,57.378L88.203,57.541L88.122,57.705L88.04,57.867L87.957,58.03L87.872,58.193L87.786,58.355L87.7,58.518L87.612,58.68L87.523,58.842L87.433,59.004L87.341,59.165L87.249,59.327L87.157,59.482L87.092,59.586L87.019,59.683L86.939,59.774L86.85,59.857L86.757,59.935L86.657,60.005L86.553,60.066L86.443,60.119L86.33,60.163L86.214,60.198L86.095,60.225L85.975,60.241L85.853,60.248L85.732,60.247L85.611,60.234L85.491,60.213L85.374,60.183L85.259,60.143L85.148,60.095L85.041,60.037L84.938,59.973L84.841,59.898L84.751,59.818L84.666,59.731L84.589,59.637L84.52,59.538L84.458,59.432L84.405,59.324L84.361,59.209L84.326,59.094L84.299,58.976L84.283,58.855L84.275,58.734L84.277,58.612L84.289,58.491L84.311,58.372L84.34,58.254L84.38,58.14L84.429,58.028L84.487,57.92L84.573,57.774L84.654,57.631L84.736,57.487L84.816,57.344L84.896,57.2L84.974,57.054L85.052,56.907L85.129,56.761L85.206,56.614L85.281,56.466L85.356,56.317L85.504,56.019L85.576,55.871L85.721,55.566L85.863,55.262L86.003,54.955L86.142,54.647L86.279,54.336L86.414,54.025L86.549,53.711L86.683,53.395L86.816,53.079L87.082,52.439L87.348,51.796L87.616,51.149L87.752,50.823L87.889,50.497L88.028,50.17L88.168,49.844L88.31,49.516L88.455,49.188L88.603,48.859L88.753,48.532L88.906,48.203L89.062,47.876L89.29,47.408L89.519,46.942L89.749,46.478L89.98,46.015L90.212,45.553L90.445,45.091L90.679,44.631L90.915,44.172L91.384,43.257L91.855,42.345L92.325,41.435L92.795,40.526L93.261,39.617L93.493,39.163L93.723,38.71L93.953,38.256L94.18,37.802L94.407,37.347L94.631,36.893L94.855,36.437L95.075,35.981L95.295,35.525L95.511,35.068L95.726,34.611L95.938,34.152L96.148,33.692L96.356,33.227L96.41,33.119L96.472,33.014L96.543,32.915L96.62,32.822L96.705,32.735L96.796,32.655L96.894,32.583L96.997,32.519L97.105,32.462L97.216,32.415L97.331,32.376L97.45,32.346L97.57,32.326L97.69,32.315L97.812,32.314L97.933,32.322Z" style="fill:white;"/>
                <path d="M103.198,37.406L103.293,37.413L103.387,37.428L103.48,37.447L103.573,37.472L103.663,37.503L103.751,37.538L103.836,37.58L103.919,37.627L103.999,37.679L104.077,37.735L104.149,37.796L104.218,37.862L104.283,37.932L104.373,38.035L104.457,38.128L104.544,38.222L104.632,38.315L104.722,38.409L104.814,38.501L104.907,38.593L105.001,38.684L105.098,38.776L105.197,38.867L105.297,38.958L105.398,39.049L105.501,39.139L105.605,39.229L105.71,39.318L105.818,39.409L105.926,39.498L106.036,39.586L106.148,39.675L106.259,39.763L106.374,39.851L106.487,39.939L106.603,40.027L106.718,40.113L106.956,40.289L107.196,40.464L107.439,40.637L107.685,40.81L107.935,40.984L108.185,41.157L108.693,41.506L109.204,41.855L109.461,42.031L109.719,42.208L109.976,42.388L110.232,42.568L110.488,42.75L110.743,42.934L110.995,43.121L111.122,43.216L111.248,43.31L111.372,43.407L111.497,43.504L111.621,43.601L111.712,43.674L111.714,43.675L111.742,43.692L111.783,43.716L111.831,43.744L111.96,43.814L112.461,44.088L112.649,44.194L112.75,44.252L112.848,44.311L112.948,44.371L113.049,44.434L113.15,44.499L113.251,44.568L113.353,44.64L113.457,44.716L113.561,44.797L113.66,44.882L113.719,44.936L113.772,44.988L113.828,45.043L113.884,45.103L113.942,45.169L114,45.241L114.058,45.32L114.117,45.409L114.176,45.508L114.234,45.618L114.288,45.745L114.33,45.867L114.358,45.964L114.377,46.044L114.393,46.124L114.406,46.204L114.418,46.285L114.425,46.365L114.431,46.444L114.433,46.523L114.433,46.601L114.431,46.679L114.425,46.755L114.418,46.83L114.409,46.904L114.385,47.048L114.368,47.128L114.335,47.253L114.294,47.383L114.248,47.507L114.199,47.626L114.145,47.74L114.089,47.849L114.03,47.953L113.969,48.053L113.905,48.148L113.84,48.241L113.774,48.33L113.707,48.416L113.638,48.498L113.568,48.579L113.497,48.658L113.426,48.734L113.353,48.808L113.28,48.88L113.207,48.951L113.133,49.018L113.059,49.086L112.984,49.152L112.909,49.215L112.834,49.279L112.758,49.34L112.682,49.399L112.606,49.458L112.528,49.517L112.38,49.626L112.23,49.733L112.084,49.834L111.938,49.931L111.795,50.023L111.658,50.11L111.524,50.193L111.396,50.27L111.274,50.342L111.157,50.41L110.956,50.524L110.789,50.616L110.621,50.707L110.454,50.798L110.285,50.886L110.115,50.973L109.947,51.059L109.777,51.143L109.607,51.226L109.438,51.308L109.267,51.389L109.097,51.467L108.926,51.545L108.756,51.622L108.585,51.698L108.415,51.773L108.244,51.847L108.072,51.921L107.732,52.064L107.391,52.205L107.05,52.344L106.71,52.479L106.371,52.613L106.032,52.746L105.36,53.006L104.691,53.267L104.36,53.396L104.03,53.526L103.703,53.656L103.377,53.788L103.055,53.922L102.733,54.057L102.415,54.195L102.101,54.333L101.944,54.403L101.788,54.475L101.633,54.547L101.48,54.619L101.326,54.693L101.174,54.768L101.022,54.843L100.872,54.919L100.721,54.995L100.572,55.074L100.424,55.152L100.271,55.235L100.186,55.278L100.098,55.315L100.009,55.348L99.917,55.374L99.824,55.394L99.729,55.41L99.635,55.419L99.54,55.423L99.444,55.42L99.35,55.412L99.255,55.398L99.162,55.377L99.071,55.351L98.981,55.321L98.892,55.284L98.806,55.242L98.724,55.195L98.644,55.142L98.568,55.085L98.496,55.023L98.427,54.957L98.363,54.888L98.303,54.813L98.247,54.736L98.196,54.656L98.151,54.572L98.11,54.485L98.076,54.396L98.047,54.305L98.023,54.213L98.005,54.12L97.993,54.025L97.987,53.931L97.985,53.835L97.991,53.74L98.003,53.644L98.02,53.551L98.043,53.459L98.071,53.368L98.105,53.279L98.145,53.192L98.19,53.108L98.239,53.027L98.294,52.949L98.353,52.874L98.418,52.803L98.485,52.737L98.557,52.674L98.633,52.617L98.712,52.564L98.795,52.516L98.958,52.427L99.128,52.336L99.297,52.248L99.468,52.161L99.638,52.075L99.809,51.99L99.98,51.906L100.151,51.825L100.323,51.744L100.494,51.664L100.665,51.586L100.836,51.509L101.007,51.433L101.18,51.357L101.522,51.21L101.864,51.066L102.206,50.924L102.548,50.786L102.888,50.65L103.229,50.516L103.567,50.383L104.241,50.122L104.909,49.863L105.24,49.734L105.569,49.604L105.896,49.473L106.219,49.342L106.541,49.209L106.861,49.073L107.018,49.007L107.176,48.938L107.333,48.869L107.49,48.799L107.644,48.729L107.799,48.659L107.953,48.587L108.106,48.515L108.258,48.442L108.409,48.368L108.56,48.293L108.709,48.217L108.857,48.141L109.005,48.063L109.151,47.985L109.299,47.906L109.443,47.825L109.618,47.726L109.71,47.671L109.81,47.613L109.913,47.551L110.02,47.485L110.128,47.417L110.238,47.346L110.348,47.272L110.458,47.197L110.565,47.12L110.674,47.04L110.722,47.003L110.773,46.964L110.871,46.886L110.917,46.847L110.962,46.809L110.972,46.8L110.958,46.792L110.796,46.704L110.473,46.528L110.318,46.442L110.238,46.397L110.159,46.351L110.08,46.303L109.997,46.25L109.906,46.187L109.825,46.126L109.698,46.025L109.59,45.94L109.481,45.856L109.371,45.771L109.259,45.687L109.148,45.603L108.918,45.433L108.683,45.263L108.445,45.093L108.202,44.923L107.957,44.752L107.708,44.58L107.456,44.408L106.946,44.059L106.43,43.706L106.17,43.525L105.909,43.344L105.648,43.16L105.388,42.975L105.127,42.785L104.869,42.595L104.739,42.497L104.609,42.398L104.481,42.3L104.353,42.2L104.225,42.1L104.098,41.998L103.971,41.894L103.844,41.791L103.72,41.686L103.594,41.581L103.471,41.474L103.347,41.366L103.225,41.256L103.103,41.146L102.983,41.034L102.863,40.921L102.744,40.807L102.627,40.69L102.511,40.572L102.395,40.454L102.281,40.333L102.169,40.211L102.058,40.088L101.955,39.97L101.895,39.896L101.838,39.819L101.788,39.739L101.742,39.655L101.701,39.569L101.666,39.48L101.636,39.391L101.612,39.298L101.593,39.205L101.58,39.11L101.573,39.016L101.572,38.92L101.578,38.824L101.588,38.73L101.605,38.636L101.627,38.544L101.655,38.453L101.688,38.363L101.727,38.276L101.771,38.191L101.82,38.11L101.874,38.031L101.933,37.957L101.997,37.886L102.064,37.819L102.136,37.756L102.211,37.698L102.291,37.644L102.373,37.596L102.458,37.552L102.544,37.515L102.635,37.481L102.726,37.455L102.818,37.433L102.913,37.418L103.007,37.408L103.102,37.404L103.198,37.406Z" style="fill:white;"/>
                <path d="M213.644,55.147C213.644,45.104 217.995,36.951 228.037,36.951L273.726,36.951C283.769,36.951 288.008,45.104 288.008,55.147L288.008,74.356C288.008,84.399 283.769,92.552 273.726,92.552L258.401,92.552L247.56,108.582C247.56,108.582 244.799,112.695 242.044,112.269C238.86,111.775 239.363,106.384 239.363,106.384L238.667,92.552L228.037,92.552C217.995,92.552 213.644,84.399 213.644,74.356L213.644,55.147Z" style="fill:rgb(100,204,197);"/>
                <path d="M236.96,52.219L237.057,52.222L237.152,52.227L237.249,52.235L237.347,52.247L237.444,52.26L237.544,52.277L237.642,52.295L237.74,52.318L237.838,52.344L237.937,52.372L238.034,52.404L238.132,52.438L238.23,52.476L238.324,52.517L238.42,52.561L238.515,52.609L238.608,52.66L238.7,52.713L238.791,52.77L238.88,52.83L238.967,52.893L239.053,52.959L239.137,53.028L239.219,53.099L239.299,53.173L239.376,53.249L239.451,53.328L239.525,53.409L239.597,53.492L239.665,53.578L239.733,53.665L239.798,53.754L239.859,53.847L239.92,53.939L239.994,54.06L240.065,54.182L240.133,54.304L240.197,54.428L240.259,54.551L240.315,54.676L240.37,54.802L240.423,54.927L240.471,55.053L240.518,55.18L240.562,55.307L240.602,55.434L240.639,55.561L240.674,55.688L240.707,55.816L240.737,55.943L240.765,56.07L240.79,56.197L240.814,56.324L240.854,56.578L240.871,56.705L240.886,56.83L240.898,56.955L240.91,57.081L240.919,57.206L240.928,57.33L240.933,57.455L240.939,57.58L240.941,57.703L240.943,57.948L240.942,58.071L240.94,58.192L240.937,58.313L240.932,58.434L240.927,58.553L240.92,58.674L240.911,58.792L240.903,58.911L240.895,59.028L240.884,59.147L240.861,59.376L240.835,59.606L240.807,59.833L240.776,60.055L240.745,60.275L240.712,60.493L240.678,60.705L240.643,60.914L240.607,61.12L240.539,61.514L240.516,61.627L240.481,61.739L240.441,61.847L240.393,61.951L240.336,62.052L240.272,62.149L240.201,62.24L240.124,62.326L240.04,62.407L239.951,62.48L239.856,62.546L239.757,62.605L239.653,62.657L239.546,62.701L239.437,62.737L239.324,62.765L239.21,62.783L239.095,62.793L238.979,62.795L238.863,62.788L238.749,62.772L238.635,62.748L238.524,62.715L238.416,62.674L238.312,62.626L238.211,62.57L238.114,62.506L238.022,62.435L237.937,62.357L237.856,62.273L237.783,62.184L237.717,62.09L237.657,61.99L237.605,61.887L237.562,61.779L237.526,61.67L237.498,61.557L237.48,61.443L237.47,61.328L237.469,61.212L237.475,61.097L237.491,60.982L237.559,60.595L237.592,60.401L237.654,60.013L237.685,59.82L237.712,59.626L237.738,59.434L237.762,59.242L237.783,59.051L237.803,58.858L237.812,58.766L237.818,58.672L237.825,58.579L237.831,58.487L237.837,58.394L237.845,58.21L237.849,58.03L237.85,57.941L237.848,57.764L237.846,57.677L237.842,57.591L237.838,57.506L237.833,57.421L237.826,57.337L237.818,57.254L237.802,57.092L237.791,57.013L237.779,56.934L237.766,56.857L237.752,56.78L237.737,56.705L237.72,56.63L237.702,56.557L237.685,56.485L237.665,56.414L237.645,56.344L237.622,56.276L237.6,56.208L237.575,56.143L237.55,56.077L237.523,56.013L237.495,55.949L237.466,55.887L237.437,55.826L237.405,55.766L237.372,55.705L237.338,55.647L237.303,55.589L237.285,55.561L237.267,55.536L237.25,55.512L237.233,55.49L237.218,55.471L237.203,55.454L237.176,55.425L237.151,55.402L237.131,55.384L237.121,55.376L237.111,55.37L237.096,55.359L237.08,55.351L237.073,55.346L237.057,55.34L237.041,55.333L237.032,55.331L237.022,55.328L237.013,55.326L237.002,55.324L236.978,55.318L236.964,55.317L236.948,55.315L236.933,55.314L236.897,55.312L236.856,55.312L236.833,55.313L236.81,55.315L236.76,55.319L236.731,55.323L236.703,55.327L236.674,55.332L236.644,55.338L236.611,55.344L236.579,55.351L236.545,55.36L236.509,55.37L236.474,55.38L236.438,55.391L236.399,55.402L236.36,55.415L236.322,55.429L236.282,55.444L236.241,55.459L236.199,55.475L236.157,55.493L236.116,55.511L236.073,55.53L236.033,55.548L235.94,55.592L235.851,55.638L235.759,55.687L235.667,55.739L235.574,55.793L235.48,55.85L235.387,55.909L235.293,55.972L235.199,56.036L235.105,56.101L235.013,56.169L234.92,56.239L234.829,56.31L234.739,56.382L234.65,56.455L234.564,56.528L234.478,56.602L234.394,56.678L234.312,56.753L234.232,56.827L234.155,56.901L234.08,56.974L234.008,57.047L233.939,57.119L233.873,57.19L233.811,57.259L233.751,57.325L233.695,57.39L233.644,57.451L233.597,57.51L233.553,57.565L233.514,57.617L233.48,57.663L233.448,57.709L233.396,57.789L233.34,57.874L233.285,57.959L233.231,58.045L233.178,58.132L233.126,58.219L233.022,58.395L232.974,58.484L232.924,58.574L232.876,58.664L232.827,58.755L232.78,58.847L232.735,58.938L232.689,59.03L232.644,59.122L232.601,59.216L232.557,59.309L232.515,59.404L232.473,59.498L232.391,59.69L232.353,59.787L232.314,59.883L232.275,59.981L232.238,60.079L232.202,60.177L232.165,60.275L232.131,60.375L232.097,60.474L232.063,60.574L232.03,60.675L231.998,60.776L231.967,60.877L231.905,61.081L231.877,61.183L231.849,61.287L231.82,61.39L231.793,61.493L231.741,61.701L231.717,61.805L231.691,61.911L231.668,62.016L231.646,62.122L231.624,62.227L231.603,62.334L231.582,62.44L231.562,62.544L231.524,62.763L231.488,62.977L231.456,63.194L231.427,63.412L231.399,63.63L231.376,63.85L231.355,64.069L231.335,64.29L231.319,64.512L231.305,64.733L231.294,64.955L231.285,65.178L231.28,65.4L231.277,65.623L231.276,65.846L231.278,66.069L231.281,66.293L231.289,66.516L231.298,66.739L231.31,66.962L231.322,67.184L231.338,67.407L231.357,67.629L231.378,67.851L231.4,68.071L231.427,68.291L231.453,68.511L231.483,68.73L231.515,68.947L231.549,69.165L231.585,69.381L231.623,69.596L231.663,69.81L231.705,70.023L231.749,70.234L231.795,70.445L231.843,70.653L231.893,70.861L231.944,71.067L231.963,71.137L231.981,71.205L232.001,71.274L232.022,71.342L232.042,71.41L232.063,71.475L232.085,71.541L232.106,71.606L232.129,71.67L232.152,71.733L232.2,71.855L232.225,71.917L232.249,71.976L232.275,72.035L232.301,72.093L232.326,72.15L232.354,72.206L232.38,72.262L232.408,72.315L232.437,72.369L232.464,72.422L232.493,72.473L232.522,72.525L232.58,72.623L232.61,72.672L232.641,72.719L232.671,72.767L232.701,72.812L232.732,72.857L232.764,72.901L232.796,72.944L232.827,72.986L232.859,73.028L232.892,73.067L232.924,73.107L232.957,73.146L232.99,73.184L233.022,73.221L233.056,73.256L233.09,73.292L233.124,73.326L233.157,73.36L233.225,73.424L233.259,73.455L233.294,73.485L233.328,73.514L233.363,73.542L233.397,73.57L233.432,73.597L233.468,73.623L233.502,73.648L233.537,73.672L233.573,73.696L233.608,73.72L233.643,73.741L233.68,73.763L233.785,73.823L233.822,73.841L233.858,73.858L233.895,73.875L233.931,73.892L233.967,73.908L234.004,73.923L234.04,73.936L234.078,73.951L234.114,73.963L234.152,73.975L234.189,73.987L234.228,73.998L234.266,74.007L234.304,74.017L234.342,74.026L234.381,74.034L234.421,74.042L234.459,74.048L234.499,74.055L234.619,74.07L234.661,74.073L234.702,74.075L234.786,74.079L234.829,74.08L234.872,74.08L234.916,74.079L234.96,74.076L235.004,74.074L235.049,74.071L235.094,74.066L235.141,74.061L235.187,74.056L235.233,74.049L235.281,74.042L235.328,74.033L235.378,74.023L235.426,74.014L235.526,73.99L235.576,73.976L235.628,73.962L235.68,73.947L235.732,73.931L235.785,73.914L235.839,73.896L235.893,73.876L235.947,73.855L236.002,73.833L236.058,73.811L236.114,73.786L236.171,73.762L236.229,73.735L236.287,73.706L236.345,73.679L236.402,73.648L236.463,73.616L236.523,73.584L236.583,73.55L236.644,73.514L236.706,73.478L236.767,73.44L236.829,73.4L236.9,73.355L236.999,73.295L237.102,73.244L237.209,73.2L237.319,73.164L237.432,73.137L237.546,73.118L237.662,73.107L237.776,73.106L237.893,73.113L238.007,73.129L238.12,73.152L238.231,73.184L238.34,73.226L238.445,73.274L238.546,73.33L238.643,73.394L238.734,73.465L238.82,73.542L238.899,73.626L238.974,73.715L239.04,73.81L239.1,73.91L239.15,74.013L239.194,74.12L239.23,74.23L239.258,74.343L239.276,74.456L239.287,74.571L239.288,74.687L239.282,74.803L239.266,74.917L239.242,75.03L239.21,75.142L239.169,75.25L239.121,75.354L239.064,75.455L239,75.552L238.93,75.643L238.853,75.729L238.769,75.81L238.679,75.883L238.585,75.95L238.498,76.006L238.403,76.066L238.309,76.124L238.214,76.181L238.118,76.236L237.928,76.342L237.833,76.393L237.737,76.442L237.641,76.489L237.545,76.536L237.448,76.58L237.352,76.622L237.255,76.664L237.158,76.704L237.062,76.742L236.965,76.778L236.867,76.813L236.771,76.847L236.672,76.879L236.574,76.909L236.477,76.938L236.379,76.965L236.281,76.991L236.184,77.015L236.086,77.036L235.988,77.058L235.891,77.076L235.792,77.093L235.694,77.109L235.597,77.123L235.498,77.135L235.4,77.145L235.303,77.154L235.206,77.162L235.108,77.167L235.011,77.171L234.914,77.173L234.815,77.173L234.719,77.172L234.622,77.169L234.527,77.165L234.43,77.159L234.335,77.151L234.239,77.141L234.145,77.129L234.05,77.117L233.955,77.101L233.862,77.085L233.769,77.067L233.675,77.048L233.582,77.026L233.491,77.004L233.398,76.979L233.309,76.953L233.219,76.925L233.128,76.895L233.039,76.865L232.951,76.833L232.862,76.799L232.775,76.763L232.689,76.726L232.604,76.688L232.519,76.648L232.436,76.606L232.352,76.564L232.269,76.52L232.187,76.474L232.106,76.428L232.025,76.379L231.946,76.33L231.868,76.279L231.791,76.227L231.714,76.173L231.638,76.119L231.563,76.062L231.488,76.006L231.416,75.948L231.344,75.889L231.272,75.828L231.202,75.766L231.132,75.703L231.064,75.64L230.995,75.574L230.929,75.507L230.863,75.44L230.799,75.372L230.734,75.303L230.671,75.232L230.609,75.161L230.549,75.089L230.488,75.016L230.43,74.942L230.37,74.867L230.314,74.79L230.258,74.714L230.201,74.637L230.147,74.558L230.093,74.478L230.04,74.398L229.989,74.317L229.939,74.234L229.889,74.151L229.84,74.068L229.792,73.984L229.745,73.898L229.699,73.812L229.653,73.725L229.565,73.549L229.523,73.459L229.481,73.369L229.442,73.279L229.402,73.188L229.363,73.095L229.326,73.003L229.289,72.91L229.254,72.815L229.219,72.719L229.186,72.623L229.152,72.528L229.12,72.43L229.089,72.332L229.059,72.235L229.029,72.136L229.001,72.036L228.974,71.935L228.947,71.835L228.888,71.599L228.831,71.36L228.776,71.122L228.724,70.881L228.673,70.638L228.624,70.395L228.578,70.151L228.535,69.905L228.494,69.658L228.456,69.409L228.419,69.16L228.385,68.911L228.354,68.66L228.325,68.407L228.299,68.155L228.275,67.901L228.254,67.647L228.235,67.392L228.22,67.136L228.207,66.88L228.196,66.623L228.189,66.367L228.184,66.11L228.182,65.852L228.183,65.594L228.187,65.336L228.193,65.078L228.203,64.82L228.216,64.561L228.231,64.303L228.251,64.045L228.273,63.786L228.298,63.528L228.327,63.272L228.358,63.014L228.394,62.757L228.431,62.5L228.473,62.245L228.519,61.991L228.542,61.861L228.566,61.734L228.592,61.606L228.619,61.48L228.646,61.353L228.675,61.226L228.704,61.1L228.734,60.974L228.766,60.848L228.797,60.721L228.83,60.597L228.863,60.471L228.898,60.346L228.934,60.221L228.971,60.096L229.008,59.973L229.046,59.848L229.085,59.724L229.167,59.478L229.21,59.354L229.253,59.232L229.297,59.111L229.342,58.988L229.389,58.867L229.436,58.747L229.484,58.625L229.533,58.505L229.584,58.386L229.636,58.265L229.688,58.146L229.741,58.028L229.796,57.91L229.852,57.791L229.907,57.674L229.965,57.557L230.024,57.44L230.083,57.324L230.145,57.209L230.207,57.094L230.27,56.979L230.334,56.866L230.399,56.753L230.465,56.64L230.532,56.527L230.602,56.415L230.671,56.305L230.742,56.194L230.814,56.083L230.89,55.97L230.955,55.876L231.025,55.778L231.099,55.681L231.175,55.582L231.255,55.485L231.337,55.386L231.423,55.287L231.512,55.187L231.603,55.087L231.697,54.986L231.794,54.886L231.895,54.785L231.997,54.684L232.104,54.581L232.212,54.48L232.322,54.379L232.437,54.277L232.553,54.178L232.671,54.078L232.792,53.977L232.915,53.879L233.041,53.781L233.169,53.684L233.3,53.59L233.432,53.495L233.567,53.403L233.704,53.312L233.844,53.225L233.985,53.138L234.128,53.054L234.274,52.972L234.423,52.893L234.573,52.816L234.723,52.746L234.803,52.708L234.882,52.673L234.96,52.64L235.039,52.608L235.119,52.576L235.199,52.545L235.28,52.516L235.361,52.486L235.444,52.459L235.528,52.433L235.612,52.408L235.695,52.384L235.867,52.34L235.955,52.321L236.042,52.303L236.131,52.287L236.219,52.271L236.31,52.258L236.4,52.246L236.492,52.236L236.584,52.228L236.678,52.223L236.772,52.219L236.865,52.218L236.96,52.219Z" style="fill:white;"/>
                <path d="M250.626,54.284L250.742,54.287L250.857,54.292L250.974,54.3L251.09,54.309L251.206,54.323L251.322,54.336L251.438,54.352L251.554,54.372L251.67,54.393L251.786,54.417L251.901,54.443L252.017,54.471L252.132,54.502L252.246,54.535L252.345,54.566L252.449,54.603L252.55,54.647L252.647,54.699L252.741,54.757L252.831,54.822L252.915,54.893L252.994,54.969L253.068,55.052L253.137,55.139L253.197,55.23L253.252,55.327L253.3,55.427L253.34,55.529L253.373,55.634L253.397,55.743L253.416,55.851L253.426,55.961L253.427,56.072L253.421,56.182L253.407,56.292L253.386,56.4L253.355,56.507L253.319,56.611L253.275,56.712L253.224,56.809L253.165,56.903L253.101,56.993L253.03,57.077L252.953,57.157L252.871,57.231L252.783,57.298L252.691,57.36L252.595,57.413L252.496,57.462L252.393,57.501L252.288,57.535L252.181,57.559L252.07,57.578L251.961,57.587L251.851,57.588L251.74,57.583L251.63,57.569L251.522,57.548L251.416,57.518L251.349,57.497L251.297,57.481L251.244,57.467L251.19,57.454L251.137,57.442L251.082,57.431L250.972,57.411L250.915,57.404L250.857,57.396L250.801,57.391L250.742,57.385L250.684,57.382L250.625,57.379L250.504,57.377L250.443,57.377L250.382,57.379L250.319,57.381L250.257,57.385L250.193,57.39L250.132,57.395L250.068,57.403L250.004,57.41L249.939,57.42L249.875,57.431L249.81,57.441L249.745,57.454L249.679,57.467L249.612,57.482L249.547,57.498L249.481,57.515L249.415,57.533L249.349,57.552L249.281,57.571L249.216,57.593L249.149,57.615L249.083,57.638L249.017,57.663L248.95,57.687L248.884,57.714L248.817,57.741L248.687,57.799L248.621,57.829L248.556,57.86L248.49,57.893L248.426,57.926L248.361,57.96L248.297,57.995L248.233,58.031L248.17,58.068L248.106,58.105L247.982,58.183L247.921,58.224L247.86,58.264L247.799,58.306L247.74,58.348L247.622,58.436L247.564,58.48L247.507,58.526L247.451,58.573L247.396,58.619L247.341,58.666L247.285,58.714L247.181,58.812L247.077,58.912L247.027,58.962L246.979,59.014L246.931,59.067L246.884,59.118L246.838,59.171L246.793,59.225L246.748,59.277L246.704,59.331L246.662,59.386L246.582,59.496L246.543,59.55L246.505,59.605L246.468,59.661L246.433,59.717L246.398,59.772L246.365,59.829L246.333,59.885L246.302,59.941L246.272,59.998L246.242,60.054L246.216,60.111L246.189,60.168L246.164,60.225L246.141,60.282L246.117,60.339L246.096,60.394L246.075,60.453L246.057,60.509L246.038,60.565L246.022,60.622L246.006,60.678L245.991,60.735L245.979,60.792L245.967,60.848L245.956,60.904L245.946,60.961L245.938,61.017L245.93,61.074L245.925,61.129L245.919,61.185L245.916,61.241L245.914,61.298L245.913,61.354L245.913,61.41L245.914,61.467L245.916,61.523L245.92,61.58L245.925,61.637L245.931,61.693L245.939,61.749L245.947,61.808L245.958,61.865L245.97,61.922L245.982,61.98L245.996,62.038L246.013,62.095L246.029,62.152L246.047,62.208L246.067,62.264L246.089,62.321L246.112,62.379L246.166,62.497L246.195,62.557L246.227,62.619L246.26,62.681L246.295,62.743L246.332,62.807L246.37,62.87L246.411,62.934L246.453,62.999L246.497,63.064L246.542,63.13L246.588,63.195L246.637,63.262L246.687,63.329L246.737,63.395L246.789,63.463L246.843,63.531L246.896,63.596L247.01,63.734L247.126,63.87L247.244,64.008L247.363,64.143L247.443,64.234L247.525,64.324L247.608,64.413L247.692,64.502L247.778,64.591L247.866,64.68L247.955,64.769L248.043,64.857L248.229,65.039L248.417,65.221L248.608,65.402L248.804,65.587L249.001,65.773L249.22,65.979L249.455,66.205L249.703,66.445L249.965,66.705L250.101,66.839L250.235,66.978L250.374,67.12L250.514,67.266L250.653,67.414L250.794,67.566L250.937,67.721L251.078,67.878L251.219,68.038L251.359,68.202L251.499,68.367L251.639,68.536L251.775,68.706L251.912,68.881L252.045,69.057L252.174,69.232L252.24,69.326L252.305,69.416L252.367,69.507L252.431,69.6L252.492,69.692L252.552,69.784L252.612,69.879L252.671,69.974L252.73,70.068L252.786,70.164L252.842,70.261L252.896,70.358L252.949,70.455L253.002,70.555L253.053,70.654L253.104,70.754L253.15,70.855L253.197,70.957L253.243,71.06L253.287,71.163L253.329,71.268L253.368,71.373L253.407,71.48L253.443,71.588L253.48,71.697L253.512,71.806L253.541,71.917L253.57,72.029L253.597,72.142L253.619,72.255L253.64,72.371L253.657,72.487L253.672,72.605L253.684,72.725L253.691,72.844L253.697,72.965L253.698,73.088L253.695,73.21L253.689,73.335L253.679,73.459L253.664,73.584L253.645,73.71L253.621,73.835L253.592,73.961L253.559,74.087L253.522,74.211L253.479,74.336L253.431,74.458L253.378,74.581L253.32,74.702L253.259,74.82L253.191,74.937L253.12,75.051L253.044,75.163L252.965,75.273L252.881,75.379L252.792,75.483L252.7,75.584L252.605,75.684L252.505,75.778L252.402,75.871L252.297,75.959L252.188,76.046L252.076,76.129L251.961,76.21L251.843,76.288L251.723,76.363L251.599,76.435L251.473,76.505L251.342,76.573L251.21,76.638L251.076,76.701L250.939,76.761L250.798,76.819L250.653,76.875L250.507,76.929L250.343,76.984L250.179,77.037L250.014,77.086L249.849,77.132L249.684,77.173L249.517,77.212L249.352,77.247L249.187,77.28L249.022,77.309L248.856,77.334L248.69,77.357L248.526,77.377L248.362,77.395L248.199,77.41L248.034,77.422L247.883,77.43L247.773,77.434L247.663,77.427L247.553,77.414L247.444,77.393L247.338,77.365L247.234,77.328L247.132,77.284L247.034,77.234L246.939,77.177L246.851,77.112L246.765,77.041L246.685,76.965L246.611,76.883L246.543,76.796L246.48,76.705L246.426,76.609L246.378,76.51L246.337,76.408L246.304,76.302L246.278,76.195L246.26,76.086L246.249,75.976L246.247,75.865L246.252,75.755L246.265,75.646L246.286,75.538L246.315,75.431L246.351,75.327L246.395,75.225L246.445,75.127L246.504,75.032L246.568,74.942L246.638,74.857L246.714,74.778L246.796,74.704L246.883,74.635L246.976,74.574L247.07,74.519L247.17,74.471L247.272,74.43L247.378,74.396L247.485,74.371L247.594,74.352L247.703,74.342L247.831,74.334L247.947,74.326L248.063,74.316L248.176,74.303L248.29,74.29L248.403,74.274L248.515,74.257L248.625,74.237L248.734,74.216L248.844,74.192L248.951,74.167L249.058,74.141L249.162,74.112L249.266,74.08L249.369,74.048L249.471,74.013L249.56,73.979L249.646,73.946L249.728,73.913L249.805,73.88L249.878,73.845L249.945,73.812L250.009,73.779L250.068,73.747L250.123,73.714L250.174,73.683L250.221,73.652L250.264,73.622L250.303,73.593L250.338,73.565L250.369,73.538L250.397,73.512L250.424,73.487L250.467,73.442L250.484,73.421L250.5,73.401L250.513,73.383L250.524,73.365L250.535,73.349L250.545,73.333L250.553,73.317L250.561,73.302L250.566,73.288L250.572,73.272L250.577,73.256L250.583,73.24L250.587,73.224L250.59,73.207L250.595,73.188L250.598,73.168L250.6,73.147L250.603,73.124L250.604,73.1L250.604,73.045L250.603,73.015L250.6,72.981L250.597,72.948L250.593,72.912L250.586,72.874L250.579,72.834L250.571,72.792L250.562,72.749L250.55,72.703L250.536,72.657L250.522,72.607L250.507,72.557L250.469,72.453L250.448,72.398L250.426,72.342L250.401,72.285L250.376,72.227L250.349,72.168L250.319,72.107L250.289,72.047L250.258,71.984L250.224,71.921L250.189,71.858L250.153,71.792L250.115,71.727L250.077,71.661L250.036,71.596L249.994,71.528L249.951,71.46L249.907,71.393L249.862,71.324L249.814,71.256L249.768,71.186L249.719,71.118L249.671,71.051L249.566,70.908L249.46,70.768L249.351,70.629L249.237,70.489L249.123,70.35L249.006,70.21L248.887,70.071L248.765,69.934L248.644,69.798L248.52,69.663L248.397,69.53L248.272,69.398L248.148,69.269L248.024,69.142L247.901,69.017L247.78,68.895L247.658,68.774L247.541,68.658L247.307,68.433L247.086,68.22L246.876,68.022L246.681,67.837L246.48,67.648L246.278,67.456L246.072,67.259L245.87,67.059L245.765,66.955L245.661,66.851L245.558,66.745L245.455,66.639L245.353,66.53L245.147,66.308L245.048,66.196L244.911,66.041L244.773,65.882L244.635,65.718L244.497,65.549L244.425,65.46L244.354,65.371L244.284,65.281L244.214,65.188L244.145,65.095L244.074,64.999L244.006,64.902L243.938,64.803L243.87,64.703L243.804,64.6L243.738,64.496L243.674,64.389L243.609,64.281L243.548,64.17L243.488,64.057L243.429,63.942L243.372,63.825L243.316,63.705L243.264,63.584L243.213,63.461L243.164,63.335L243.118,63.206L243.076,63.075L243.037,62.944L243.002,62.817L242.971,62.693L242.943,62.568L242.917,62.442L242.896,62.318L242.877,62.192L242.859,62.066L242.846,61.942L242.835,61.817L242.826,61.692L242.82,61.568L242.818,61.444L242.818,61.321L242.82,61.198L242.826,61.076L242.834,60.953L242.845,60.833L242.857,60.711L242.872,60.591L242.891,60.472L242.911,60.354L242.934,60.236L242.958,60.119L242.985,60.002L243.014,59.888L243.046,59.772L243.08,59.659L243.115,59.546L243.153,59.434L243.192,59.324L243.234,59.214L243.278,59.104L243.323,58.997L243.371,58.891L243.42,58.784L243.471,58.68L243.523,58.576L243.578,58.473L243.634,58.372L243.69,58.27L243.75,58.172L243.812,58.073L243.873,57.975L243.937,57.88L244.001,57.784L244.068,57.689L244.137,57.597L244.205,57.505L244.276,57.414L244.349,57.324L244.422,57.236L244.495,57.149L244.57,57.062L244.648,56.977L244.726,56.893L244.805,56.81L244.967,56.648L245.049,56.569L245.133,56.491L245.218,56.413L245.304,56.338L245.39,56.263L245.478,56.188L245.565,56.117L245.654,56.046L245.746,55.976L245.838,55.907L245.929,55.839L246.022,55.773L246.117,55.708L246.211,55.645L246.307,55.582L246.402,55.521L246.5,55.461L246.598,55.402L246.697,55.345L246.796,55.289L246.897,55.235L246.998,55.181L247.099,55.129L247.201,55.079L247.304,55.029L247.407,54.981L247.511,54.935L247.616,54.89L247.722,54.847L247.828,54.804L247.935,54.764L248.041,54.725L248.149,54.686L248.258,54.65L248.366,54.616L248.475,54.583L248.585,54.551L248.695,54.522L248.806,54.493L248.916,54.468L249.028,54.443L249.14,54.419L249.253,54.398L249.365,54.378L249.479,54.36L249.592,54.344L249.706,54.33L249.82,54.317L249.935,54.307L250.049,54.298L250.164,54.291L250.278,54.286L250.395,54.284L250.51,54.283L250.626,54.284Z" style="fill:white;"/>
                <path d="M262.537,55.696L262.647,55.699L262.756,55.703L262.865,55.709L262.976,55.718L263.085,55.728L263.194,55.74L263.304,55.753L263.413,55.769L263.523,55.787L263.633,55.806L263.741,55.828L263.851,55.851L263.959,55.876L264.067,55.903L264.176,55.933L264.285,55.964L264.393,55.997L264.5,56.032L264.605,56.069L264.714,56.109L264.818,56.15L264.924,56.194L265.029,56.239L265.134,56.288L265.237,56.337L265.341,56.389L265.442,56.443L265.545,56.499L265.632,56.551L265.724,56.607L265.812,56.672L265.893,56.741L265.971,56.816L266.043,56.896L266.109,56.982L266.169,57.072L266.223,57.165L266.271,57.263L266.31,57.363L266.343,57.466L266.369,57.57L266.387,57.677L266.399,57.784L266.402,57.893L266.397,58L266.386,58.107L266.368,58.214L266.341,58.319L266.308,58.421L266.267,58.521L266.22,58.618L266.165,58.711L266.105,58.8L266.038,58.885L265.965,58.966L265.888,59.041L265.804,59.11L265.717,59.173L265.625,59.23L265.53,59.281L265.431,59.324L265.329,59.361L265.226,59.39L265.119,59.413L265.013,59.427L264.904,59.434L264.797,59.434L264.689,59.427L264.582,59.411L264.477,59.388L264.373,59.358L264.272,59.321L264.173,59.276L264.078,59.226L264.018,59.19L263.969,59.163L263.92,59.138L263.87,59.112L263.819,59.088L263.77,59.064L263.718,59.043L263.666,59.021L263.614,59.001L263.562,58.982L263.508,58.964L263.454,58.945L263.4,58.929L263.345,58.913L263.29,58.898L263.235,58.884L263.178,58.871L263.122,58.859L263.065,58.848L263.009,58.838L262.95,58.828L262.893,58.821L262.834,58.813L262.716,58.801L262.657,58.797L262.598,58.794L262.539,58.79L262.419,58.788L262.358,58.788L262.298,58.789L262.238,58.793L262.117,58.799L262.057,58.805L261.996,58.811L261.937,58.817L261.875,58.825L261.814,58.835L261.755,58.844L261.694,58.855L261.635,58.866L261.575,58.879L261.517,58.892L261.456,58.907L261.398,58.922L261.338,58.938L261.281,58.954L261.222,58.972L261.108,59.01L261.051,59.03L260.995,59.052L260.939,59.073L260.884,59.096L260.828,59.12L260.773,59.143L260.669,59.193L260.616,59.22L260.564,59.247L260.462,59.303L260.413,59.332L260.364,59.362L260.316,59.393L260.269,59.423L260.222,59.455L260.177,59.487L260.133,59.52L260.088,59.554L260.044,59.587L260.002,59.621L259.962,59.656L259.92,59.691L259.881,59.726L259.842,59.763L259.805,59.799L259.769,59.836L259.732,59.873L259.698,59.911L259.664,59.95L259.631,59.987L259.6,60.027L259.569,60.066L259.539,60.105L259.51,60.145L259.482,60.185L259.456,60.225L259.43,60.266L259.405,60.307L259.381,60.349L259.359,60.389L259.336,60.431L259.316,60.474L259.295,60.516L259.276,60.559L259.259,60.602L259.242,60.646L259.226,60.689L259.211,60.734L259.196,60.778L259.183,60.823L259.17,60.87L259.159,60.915L259.148,60.962L259.14,61.009L259.131,61.057L259.125,61.105L259.118,61.154L259.113,61.204L259.109,61.254L259.105,61.306L259.105,61.518L259.109,61.573L259.114,61.63L259.118,61.687L259.127,61.746L259.135,61.805L259.146,61.865L259.157,61.928L259.17,61.99L259.185,62.053L259.2,62.12L259.209,62.151L259.22,62.184L259.229,62.216L259.239,62.248L259.25,62.281L259.263,62.313L259.275,62.346L259.288,62.379L259.301,62.411L259.314,62.444L259.329,62.478L259.342,62.506L259.377,62.578L259.413,62.644L259.45,62.713L259.489,62.781L259.532,62.851L259.578,62.919L259.625,62.989L259.676,63.06L259.728,63.131L259.782,63.203L259.838,63.275L259.898,63.347L259.959,63.419L260.022,63.492L260.087,63.565L260.153,63.638L260.222,63.712L260.294,63.785L260.364,63.859L260.439,63.934L260.513,64.009L260.588,64.081L260.745,64.233L260.9,64.383L260.963,64.439L261.023,64.497L261.088,64.552L261.153,64.609L261.22,64.667L261.288,64.724L261.358,64.782L261.427,64.838L261.577,64.957L261.73,65.076L261.889,65.196L262.051,65.316L262.219,65.438L262.389,65.563L262.74,65.818L262.919,65.948L263.101,66.081L263.284,66.216L263.47,66.356L263.654,66.498L263.838,66.643L263.933,66.719L264.024,66.795L264.117,66.872L264.21,66.95L264.302,67.03L264.395,67.11L264.485,67.193L264.577,67.276L264.667,67.362L264.758,67.448L264.847,67.536L264.935,67.626L265.022,67.717L265.109,67.81L265.195,67.905L265.281,68.003L265.365,68.102L265.448,68.203L265.53,68.306L265.609,68.411L265.688,68.518L265.766,68.628L265.84,68.74L265.913,68.854L265.985,68.97L266.054,69.089L266.121,69.209L266.186,69.332L266.293,69.552L266.342,69.663L266.39,69.773L266.435,69.885L266.478,69.996L266.518,70.108L266.555,70.219L266.59,70.332L266.622,70.445L266.653,70.558L266.682,70.67L266.706,70.783L266.73,70.896L266.75,71.009L266.769,71.122L266.783,71.235L266.798,71.348L266.809,71.459L266.817,71.572L266.823,71.684L266.828,71.795L266.829,71.907L266.828,72.018L266.824,72.128L266.82,72.239L266.813,72.349L266.802,72.457L266.79,72.566L266.776,72.674L266.76,72.782L266.742,72.888L266.722,72.995L266.699,73.1L266.674,73.205L266.648,73.308L266.619,73.411L266.589,73.514L266.557,73.615L266.487,73.815L266.448,73.914L266.408,74.012L266.368,74.108L266.325,74.205L266.279,74.3L266.233,74.393L266.187,74.487L266.137,74.578L266.085,74.669L266.032,74.758L265.979,74.848L265.923,74.935L265.866,75.021L265.807,75.107L265.747,75.192L265.686,75.275L265.623,75.357L265.559,75.438L265.494,75.518L265.428,75.597L265.359,75.675L265.29,75.751L265.221,75.826L265.075,75.974L265.002,76.045L264.927,76.115L264.851,76.184L264.773,76.253L264.695,76.319L264.616,76.385L264.536,76.449L264.454,76.513L264.372,76.574L264.289,76.634L264.204,76.694L264.119,76.752L263.945,76.864L263.857,76.918L263.768,76.971L263.679,77.022L263.588,77.071L263.496,77.12L263.403,77.167L263.311,77.212L263.216,77.257L263.121,77.3L263.025,77.341L262.929,77.381L262.832,77.419L262.734,77.456L262.636,77.492L262.536,77.526L262.436,77.558L262.336,77.589L262.233,77.618L262.133,77.646L262.028,77.672L261.927,77.697L261.719,77.741L261.614,77.76L261.509,77.777L261.297,77.809L261.189,77.82L261.082,77.831L260.975,77.841L260.867,77.847L260.759,77.852L260.65,77.856L260.54,77.858L260.431,77.858L260.321,77.856L260.212,77.851L260.103,77.845L259.991,77.837L259.881,77.828L259.771,77.815L259.66,77.801L259.549,77.786L259.439,77.768L259.328,77.747L259.216,77.725L259.105,77.701L259.009,77.677L258.903,77.649L258.803,77.613L258.703,77.57L258.608,77.52L258.515,77.465L258.428,77.402L258.344,77.333L258.265,77.259L258.191,77.18L258.125,77.095L258.064,77.007L258.009,76.913L257.959,76.817L257.918,76.718L257.884,76.615L257.857,76.511L257.837,76.404L257.825,76.297L257.819,76.189L257.821,76.082L257.832,75.974L257.85,75.867L257.875,75.762L257.907,75.66L257.946,75.559L257.993,75.461L258.045,75.368L258.105,75.277L258.17,75.191L258.243,75.11L258.319,75.035L258.4,74.964L258.487,74.899L258.579,74.841L258.674,74.789L258.772,74.745L258.872,74.707L258.976,74.676L259.082,74.652L259.189,74.636L259.295,74.627L259.403,74.626L259.512,74.633L259.618,74.646L259.725,74.668L259.794,74.684L259.85,74.696L259.907,74.708L259.963,74.718L260.019,74.727L260.074,74.735L260.13,74.742L260.187,74.749L260.242,74.753L260.354,74.761L260.409,74.763L260.466,74.764L260.522,74.764L260.577,74.763L260.633,74.761L260.689,74.758L260.743,74.755L260.855,74.745L260.91,74.738L260.965,74.73L261.019,74.722L261.074,74.713L261.13,74.703L261.185,74.692L261.238,74.68L261.293,74.667L261.346,74.653L261.4,74.639L261.506,74.607L261.56,74.59L261.611,74.571L261.664,74.553L261.716,74.534L261.768,74.514L261.819,74.492L261.871,74.469L261.92,74.447L261.971,74.423L262.022,74.398L262.069,74.374L262.118,74.348L262.216,74.294L262.263,74.267L262.309,74.237L262.356,74.208L262.401,74.178L262.491,74.116L262.536,74.084L262.579,74.052L262.622,74.018L262.663,73.985L262.705,73.951L262.746,73.915L262.786,73.88L262.826,73.844L262.864,73.808L262.903,73.771L262.939,73.733L262.977,73.696L263.012,73.657L263.047,73.619L263.081,73.58L263.115,73.54L263.147,73.5L263.18,73.46L263.209,73.42L263.269,73.338L263.298,73.296L263.352,73.212L263.377,73.17L263.402,73.127L263.427,73.086L263.449,73.043L263.472,73L263.493,72.955L263.514,72.913L263.532,72.869L263.552,72.825L263.569,72.781L263.586,72.736L263.603,72.692L263.617,72.648L263.632,72.603L263.645,72.559L263.669,72.469L263.689,72.379L263.698,72.333L263.706,72.288L263.712,72.242L263.719,72.197L263.723,72.151L263.728,72.105L263.73,72.059L263.732,72.011L263.734,71.965L263.734,71.918L263.732,71.823L263.73,71.776L263.726,71.727L263.721,71.679L263.715,71.631L263.709,71.581L263.691,71.483L263.681,71.432L263.67,71.382L263.644,71.28L263.612,71.176L263.594,71.123L263.574,71.069L263.554,71.016L263.532,70.962L263.509,70.907L263.484,70.852L263.459,70.796L263.431,70.742L263.398,70.679L263.365,70.62L263.33,70.56L263.293,70.5L263.256,70.441L263.215,70.38L263.174,70.321L263.13,70.262L263.085,70.202L263.037,70.143L262.988,70.083L262.938,70.024L262.886,69.964L262.831,69.904L262.719,69.784L262.659,69.724L262.598,69.664L262.536,69.604L262.472,69.543L262.405,69.483L262.339,69.423L262.271,69.363L262.129,69.243L262.057,69.183L261.982,69.122L261.909,69.062L261.752,68.939L261.594,68.817L261.432,68.695L261.265,68.571L261.095,68.447L260.923,68.322L260.571,68.067L260.394,67.937L260.213,67.805L260.032,67.671L259.851,67.534L259.669,67.394L259.491,67.252L259.398,67.177L259.308,67.103L259.22,67.027L259.129,66.95L259.04,66.873L258.952,66.793L258.863,66.714L258.777,66.633L258.603,66.466L258.427,66.296L258.334,66.207L258.245,66.117L258.153,66.024L258.064,65.931L257.971,65.834L257.881,65.736L257.789,65.636L257.698,65.534L257.607,65.43L257.518,65.324L257.428,65.214L257.34,65.102L257.252,64.988L257.165,64.87L257.081,64.751L256.999,64.628L256.917,64.503L256.838,64.374L256.76,64.242L256.686,64.106L256.614,63.969L256.548,63.831L256.512,63.755L256.48,63.682L256.446,63.609L256.417,63.534L256.388,63.458L256.358,63.382L256.331,63.305L256.305,63.227L256.278,63.149L256.254,63.069L256.23,62.989L256.209,62.906L256.177,62.782L256.147,62.655L256.122,62.529L256.099,62.404L256.077,62.278L256.058,62.152L256.044,62.028L256.031,61.903L256.022,61.778L256.015,61.654L256.012,61.53L256.009,61.408L256.012,61.285L256.015,61.164L256.022,61.042L256.031,60.922L256.045,60.802L256.06,60.684L256.077,60.565L256.097,60.448L256.12,60.331L256.146,60.216L256.174,60.102L256.203,59.99L256.236,59.877L256.272,59.766L256.308,59.657L256.349,59.548L256.39,59.441L256.435,59.335L256.48,59.231L256.528,59.128L256.579,59.026L256.631,58.926L256.687,58.826L256.743,58.729L256.802,58.633L256.862,58.538L256.924,58.446L256.986,58.354L257.053,58.264L257.118,58.176L257.187,58.089L257.258,58.003L257.328,57.919L257.401,57.838L257.476,57.757L257.552,57.678L257.629,57.601L257.707,57.524L257.786,57.45L257.868,57.377L257.949,57.305L258.032,57.235L258.116,57.167L258.202,57.101L258.288,57.035L258.375,56.972L258.463,56.91L258.553,56.85L258.644,56.79L258.734,56.732L258.825,56.676L258.92,56.622L259.013,56.569L259.107,56.518L259.202,56.468L259.299,56.419L259.396,56.372L259.493,56.327L259.591,56.283L259.689,56.241L259.789,56.201L259.89,56.162L259.989,56.124L260.092,56.088L260.191,56.053L260.295,56.02L260.397,55.989L260.502,55.959L260.605,55.931L260.709,55.904L260.814,55.878L260.92,55.854L261.026,55.833L261.131,55.812L261.238,55.793L261.346,55.776L261.452,55.76L261.56,55.746L261.668,55.734L261.775,55.724L261.884,55.714L261.992,55.707L262.101,55.701L262.209,55.698L262.318,55.694L262.427,55.694L262.537,55.696Z" style="fill:white;"/>
                <path d="M177.236,197.041C177.236,197.041 164.892,200.843 163.206,217.13C158.297,264.553 160.08,287.1 154.755,296.512C153.636,298.493 102.911,291.264 102.375,292.669C100.87,296.609 91.033,312.881 92.873,313.41C98.65,315.069 166.295,333.701 180.745,320.029C194.052,307.444 192.213,282.344 189.195,269.154C185.359,252.388 196.45,198.044 177.236,197.041Z" style="fill:rgb(23,107,135);"/>
                <path d="M271.783,322.644C258.915,279.903 220.831,187.127 220.831,187.127L200.047,184.368C197.434,182.356 171.28,202.852 171.28,202.852C171.28,202.852 169.065,215.293 166.95,227.686C165.015,239.026 153.985,250.799 155.024,256.832C157.436,270.818 174.653,274.189 174.653,274.189C177.704,298.812 180.073,313.532 183.393,326.144" style="fill:rgb(27,127,161);fill-rule:nonzero;"/>
                <path d="M218.438,187.337C218.438,187.337 212.03,201.536 215.193,222.197C216.541,230.994 226.878,266.7 229.318,275.297C234.61,293.908 225.868,294.284 207.383,294.402C204.77,294.42 185.624,292.425 185.238,294.047C184.159,298.598 180.278,320.097 187.388,321.671C196.074,323.594 241.382,329.179 254.486,312.272C266.554,296.708 261.855,269.114 257.31,254.863C251.529,236.748 238.026,186.115 218.438,187.337Z" style="fill:rgb(23,107,135);"/>
                <path d="M185.595,293.296C188.224,293.263 190.763,299.574 191.266,307.395C191.77,315.218 190.047,321.586 187.418,321.619C184.789,321.654 182.251,315.341 181.747,307.519C181.244,299.698 182.967,293.329 185.595,293.296Z" style="fill:rgb(23,107,135);"/>
                <path d="M190.401,305.295C190.401,305.295 179.938,302.84 171.612,297.895C169.057,296.378 169.429,299.463 169.668,299.806C170.914,301.6 176.493,305.496 175.968,305.742C174.866,306.257 162.484,302.98 158.346,301.333C157.928,301.168 153.507,299.218 153.236,299.861C152.598,301.358 154.829,302.62 155.873,303.191C159.415,305.125 171.081,309.284 170.468,309.154C169.364,308.917 159.821,307.307 156.209,306.53C155.974,306.48 150.869,305.378 150.692,306.035C150.335,307.372 154.122,308.68 155.02,308.926C158.553,309.9 168.115,312.675 169.324,313.04C169.827,313.19 165.612,312.964 164.439,312.886C160.809,312.642 157.201,311.807 153.57,311.683C152.859,311.659 150.442,311.363 150.247,312.54C150.12,313.309 151.899,314.016 152.389,314.194C155.442,315.305 177.3,318.527 183.665,317.45C186.115,317.036 190.064,318.355 190.064,318.355C190.064,318.355 194.824,309.186 190.401,305.295Z" style="fill:rgb(248,186,187);"/>
                <path d="M161.819,94.829C161.819,94.829 146.016,91.829 138.489,101.686C130.962,111.542 132.676,124.829 121.105,129.542C109.533,134.257 105.626,156.733 116.794,163.495C127.962,170.257 114.433,182.686 114.433,182.686C114.433,182.686 104.34,192.543 116.794,204.972C116.794,204.972 125.873,210.637 138.489,214.232C138.489,214.232 129.418,205.387 132.119,194.251C132.119,194.251 133.09,212.779 150.24,214.232C167.391,215.686 178.584,203.686 178.584,203.686L228.709,191.482C228.709,191.482 257.894,183.88 257.93,163.643C257.963,143.405 238.307,145.829 234.563,131.257C230.819,116.686 229.897,102.364 213.644,97.739C197.391,93.115 177.676,75.972 161.819,94.829Z" style="fill:rgb(4,54,74);fill-rule:nonzero;"/>
                <path d="M199.848,185.312L198.407,146.634C194.522,138.371 171.78,137.932 164.182,141.987C157.147,145.741 153.515,154.656 155.618,163.002L174.404,211.092C177.139,220.855 189.124,218.166 193.689,211.977C205.44,196.051 200.48,186.339 199.848,185.312Z" style="fill:rgb(247,167,168);fill-rule:nonzero;"/>
                <path d="M144.858,165.748L141.323,150.261C141.323,150.261 134.46,147.087 132.439,154.553C130.42,162.022 138.347,167.954 144.858,165.748Z" style="fill:rgb(248,186,187);fill-rule:nonzero;"/>
                <path d="M136.67,145.932C140.877,175.394 144.339,194.86 165.481,194.236C186.624,193.61 213.534,169.293 213.231,143.666C212.933,118.041 195.551,97.772 174.409,98.4C153.267,99.025 136.371,120.306 136.67,145.932Z" style="fill:rgb(248,186,187);fill-rule:nonzero;"/>
                <path d="M184.039,261.026C184.039,261.026 199.829,274.092 220.467,267.71C220.467,267.71 198.974,285.794 184.039,261.026Z" style="fill:rgb(23,107,135);"/>
                <path d="M191.594,158.62C193.689,162.899 191.187,168.426 186.004,170.964C180.821,173.501 174.921,172.089 172.826,167.81C170.73,163.53 173.233,158.003 178.416,155.466C183.599,152.928 189.499,154.34 191.594,158.62Z" style="fill:rgb(247,167,168);"/>
                <clipPath id="_clip2">
                    <path d="M136.67,145.932C140.877,175.394 144.339,194.86 165.481,194.236C186.624,193.61 213.534,169.293 213.231,143.666C212.933,118.041 195.551,97.772 174.409,98.4C153.267,99.025 136.371,120.306 136.67,145.932Z"/>
                </clipPath>
                <g clip-path="url(#_clip2)">
                    <path d="M150.908,171.075C148.525,175.201 142.542,176.208 137.544,173.322C132.547,170.436 130.427,164.753 132.81,160.626C135.192,156.499 141.175,155.493 146.172,158.378C151.17,161.264 153.29,166.948 150.908,171.075Z" style="fill:rgb(247,167,168);"/>
                </g>
                <path d="M142.002,121.568C142.002,121.568 146.944,112.737 155.024,121.568C163.105,130.4 159.349,144.492 178.584,146.874C197.819,149.257 185.768,167.625 199.161,166.877L200.616,198.321C200.616,198.321 235.78,149.133 217.533,120.542C199.287,91.953 154.757,83.166 142.002,121.568Z" style="fill:rgb(4,54,74);fill-rule:nonzero;"/>
                <path d="M193.928,167.948L200.477,152.108C200.477,152.108 209.367,148.733 210.794,156.293C212.213,163.855 201.622,170.058 193.928,167.948Z" style="fill:rgb(248,186,187);fill-rule:nonzero;"/>
                <rect x="89.154" y="313.439" width="98.716" height="9.648" style="fill:rgb(42,165,150);"/>
                <path d="M135.48,321.185L124.013,214.232L6.377,222.428L24.638,321.187L135.48,321.185Z" style="fill:rgb(42,165,150);"/>
                <path d="M128.052,322.815L117.141,214.331L0,222.729L17.713,322.898L128.052,322.815Z" style="fill:rgb(100,204,197);"/>
                <path d="M60.948,257.563C66.645,255.102 73.309,259.042 75.833,266.362C78.356,273.684 75.784,281.612 70.087,284.074C64.39,286.535 57.727,282.596 55.203,275.275C52.679,267.954 55.252,260.024 60.948,257.563Z" style="fill:rgb(42,165,150);"/>
                <path d="M307.125,210.69C307.125,210.69 283.002,199.076 298.55,184.637C314.096,170.198 282.905,159.963 291.813,145.196C300.72,130.43 311.095,137.209 312.776,127.493C314.458,117.775 302.023,110.342 310.049,96.163C318.073,81.984 327.42,75.838 339.017,77.645C350.611,79.453 335.502,108.149 347.396,113.867C359.289,119.583 357.669,137.932 339.498,153.884C321.327,169.837 350.462,180.006 333.364,191.01C316.267,202.015 307.125,210.69 307.125,210.69Z" style="fill:rgb(100,204,197);"/>
                <path d="M284.562,241.066C284.562,241.066 301.456,225.221 288.14,218.698C274.824,212.175 297.198,195.338 288.85,186.644C280.502,177.949 273.434,186.126 271.09,179.196C268.747,172.266 271.481,162.357 266.201,152.238C259.308,139.029 246.867,139.204 239.422,148.638C233.374,156.303 251.822,171.007 243.491,178.812C235.161,186.617 238.414,200.154 253.874,207.073C269.335,213.992 248.504,230.184 262.608,233.637C276.712,237.089 284.562,241.066 284.562,241.066Z" style="fill:rgb(100,204,197);"/>
                <path d="M331.262,97.777L331.566,97.88L331.844,98.045L332.08,98.264L332.268,98.527L332.394,98.823L332.457,99.139L332.453,99.461L332.382,99.775L332.194,100.33L332.01,100.885L331.824,101.439L331.642,101.996L331.462,102.551L331.282,103.108L331.105,103.666L330.929,104.225L330.754,104.783L330.58,105.343L330.408,105.904L330.238,106.465L330.069,107.026L329.901,107.588L329.736,108.151L329.571,108.715L329.408,109.279L329.246,109.845L329.086,110.411L328.926,110.977L328.769,111.543L328.611,112.11L328.457,112.679L328.302,113.247L328.149,113.816L327.998,114.386L327.847,114.955L327.697,115.527L327.549,116.097L327.402,116.668L327.257,117.241L327.111,117.814L326.968,118.387L326.824,118.96L326.683,119.534L326.542,120.108L326.402,120.684L326.264,121.259L326.126,121.835L325.99,122.411L325.854,122.988L325.719,123.565L325.585,124.142L325.451,124.72L325.319,125.298L325.188,125.875L325.058,126.455L324.928,127.034L324.799,127.614L324.671,128.193L324.416,129.354L324.165,130.516L323.915,131.678L323.669,132.843L323.427,134.007L323.185,135.173L322.945,136.338L322.708,137.506L322.473,138.674L322.238,139.843L322.006,141.012L321.775,142.181L321.547,143.351L321.317,144.52L321.09,145.69L320.638,148.032L320.187,150.373L319.736,152.712L319.286,155.051L318.835,157.389L318.608,158.557L318.381,159.724L318.151,160.89L317.923,162.055L317.691,163.22L317.459,164.384L317.226,165.546L316.989,166.708L316.752,167.868L316.512,169.027L316.271,170.186L316.026,171.341L315.78,172.496L315.531,173.648L314.84,176.83L314.144,180.011L313.446,183.192L312.745,186.373L312.044,189.554L311.342,192.735L309.933,199.098L308.522,205.461L307.817,208.643L307.114,211.825L306.411,215.009L305.71,218.19L305.011,221.374L304.314,224.557L303.619,227.741L302.928,230.926L302.582,232.518L302.238,234.11L301.896,235.702L301.553,237.294L301.213,238.887L300.872,240.479L300.533,242.072L300.196,243.665L299.859,245.257L299.523,246.851L299.189,248.443L298.856,250.037L298.525,251.63L298.195,253.224L297.867,254.817L297.539,256.411L297.214,258.005L296.89,259.6L296.567,261.192L296.246,262.787L295.927,264.382L295.61,265.976L295.294,267.57L294.98,269.164L294.669,270.76L294.358,272.355L294.051,273.949L293.745,275.546L293.651,275.854L293.496,276.137L293.285,276.381L293.028,276.575L292.736,276.712L292.423,276.785L292.101,276.792L291.783,276.73L291.486,276.606L291.223,276.422L291.002,276.186L290.835,275.91L290.73,275.606L290.689,275.286L290.717,274.965L291.022,273.367L291.332,271.769L291.643,270.17L291.955,268.571L292.269,266.974L292.586,265.375L292.903,263.777L293.223,262.18L293.545,260.583L293.867,258.986L294.193,257.389L294.519,255.792L294.846,254.195L295.176,252.6L295.507,251.004L295.839,249.407L296.172,247.811L296.506,246.217L296.842,244.621L297.18,243.026L297.518,241.432L297.856,239.836L298.197,238.242L298.539,236.647L298.881,235.054L299.224,233.46L299.569,231.866L299.914,230.271L300.605,227.085L301.302,223.898L301.999,220.713L302.699,217.529L303.401,214.345L304.104,211.16L304.808,207.977L305.512,204.795L306.923,198.431L308.331,192.069L309.034,188.89L309.735,185.709L310.435,182.53L311.132,179.352L311.827,176.173L312.518,172.996L312.766,171.85L313.011,170.701L313.254,169.552L313.493,168.399L313.731,167.247L313.968,166.092L314.202,164.936L314.436,163.778L314.668,162.618L314.897,161.457L315.126,160.295L315.355,159.131L315.582,157.967L315.808,156.802L316.259,154.468L316.709,152.13L317.159,149.79L317.61,147.447L318.064,145.104L318.291,143.931L318.521,142.758L318.75,141.585L318.982,140.413L319.215,139.239L319.449,138.067L319.686,136.894L319.924,135.722L320.165,134.55L320.407,133.379L320.652,132.207L320.899,131.037L321.15,129.867L321.403,128.698L321.659,127.53L321.788,126.946L321.918,126.362L322.049,125.778L322.181,125.196L322.314,124.612L322.446,124.03L322.581,123.447L322.715,122.864L322.852,122.283L322.989,121.701L323.127,121.12L323.266,120.54L323.406,119.958L323.547,119.378L323.689,118.798L323.832,118.219L323.977,117.639L324.122,117.06L324.268,116.482L324.415,115.904L324.564,115.326L324.714,114.749L324.865,114.172L325.018,113.595L325.17,113.019L325.325,112.443L325.481,111.868L325.639,111.294L325.798,110.719L325.958,110.145L326.119,109.572L326.281,108.999L326.445,108.426L326.611,107.855L326.777,107.283L326.946,106.713L327.116,106.143L327.286,105.573L327.46,105.003L327.634,104.435L327.809,103.868L327.986,103.301L328.165,102.733L328.346,102.167L328.527,101.602L328.711,101.037L328.897,100.473L329.084,99.91L329.273,99.347L329.462,98.787L329.597,98.494L329.79,98.236L330.031,98.023L330.314,97.865L330.62,97.769L330.941,97.739L331.262,97.777Z" style="fill:rgb(61,49,132);"/>
                <path d="M254.048,156.648L254.313,156.698L254.564,156.794L254.794,156.932L254.997,157.107L255.167,157.315L255.298,157.551L255.466,157.926L255.635,158.303L255.97,159.059L256.302,159.817L256.631,160.578L256.959,161.341L257.285,162.106L257.608,162.873L257.93,163.643L258.249,164.414L258.565,165.187L258.881,165.963L259.194,166.74L259.506,167.519L259.815,168.299L260.122,169.081L260.428,169.865L260.733,170.65L261.036,171.436L261.338,172.225L261.638,173.015L261.937,173.805L262.232,174.597L262.528,175.389L262.823,176.183L263.116,176.977L263.408,177.772L263.698,178.569L263.988,179.367L264.277,180.165L264.564,180.964L264.852,181.763L265.138,182.561L265.423,183.362L265.707,184.163L266.273,185.765L266.837,187.367L267.399,188.971L267.96,190.572L268.52,192.174L269.636,195.373L270.193,196.969L270.752,198.561L271.311,200.151L271.871,201.736L272.151,202.527L272.433,203.317L272.715,204.105L272.997,204.893L273.28,205.679L273.564,206.464L273.848,207.245L274.133,208.027L274.925,210.192L275.719,212.357L276.514,214.523L277.31,216.689L278.904,221.021L280.5,225.352L282.098,229.687L283.694,234.021L285.29,238.358L286.884,242.698L287.679,244.869L288.473,247.041L289.266,249.213L290.057,251.386L290.847,253.56L291.635,255.734L292.421,257.91L293.205,260.087L293.987,262.265L294.768,264.442L295.545,266.623L296.319,268.804L297.092,270.986L297.477,272.077L297.861,273.17L298.245,274.262L298.628,275.354L299.01,276.447L299.391,277.54L299.457,277.801L299.476,278.068L299.449,278.336L299.376,278.595L299.259,278.836L299.103,279.055L298.909,279.242L298.688,279.393L298.442,279.503L298.182,279.569L297.913,279.589L297.647,279.562L297.388,279.489L297.146,279.372L296.928,279.215L296.74,279.022L296.589,278.8L296.479,278.555L296.099,277.463L295.717,276.372L295.335,275.282L294.952,274.192L294.568,273.102L294.185,272.013L293.414,269.834L292.641,267.656L291.864,265.48L291.086,263.305L290.305,261.13L289.521,258.957L288.735,256.783L287.948,254.611L287.159,252.439L286.369,250.269L285.576,248.099L284.783,245.93L283.988,243.76L283.192,241.592L282.397,239.423L280.801,235.088L279.204,230.753L277.607,226.419L276.011,222.087L274.416,217.754L273.619,215.587L272.824,213.42L272.029,211.253L271.236,209.086L270.95,208.3L270.664,207.514L270.38,206.726L270.095,205.936L269.812,205.144L269.528,204.352L269.247,203.56L268.965,202.766L268.403,201.177L267.842,199.583L267.283,197.987L266.725,196.39L265.607,193.19L265.05,191.59L264.489,189.989L263.929,188.389L263.366,186.791L262.801,185.193L262.518,184.395L262.233,183.599L261.949,182.802L261.663,182.007L261.377,181.211L261.09,180.418L260.802,179.625L260.513,178.833L260.222,178.042L259.931,177.252L259.639,176.464L259.345,175.677L259.049,174.891L258.754,174.106L258.457,173.323L258.157,172.542L257.857,171.762L257.556,170.983L257.252,170.207L256.948,169.433L256.64,168.659L256.333,167.889L256.023,167.12L255.711,166.352L255.397,165.588L255.082,164.825L254.765,164.065L254.445,163.308L254.124,162.552L253.801,161.799L253.476,161.049L253.147,160.302L252.817,159.556L252.651,159.185L252.484,158.813L252.397,158.559L252.354,158.293L252.357,158.025L252.408,157.761L252.504,157.51L252.642,157.279L252.817,157.076L253.025,156.906L253.26,156.775L253.514,156.686L253.779,156.644L254.048,156.648Z" style="fill:rgb(61,49,132);"/>
                <path d="M315.807,263.202L254.869,263.202L254.869,296.909C254.869,307.615 268.767,322.475 268.767,322.475L300.826,323.147C300.826,323.147 315.807,308.071 315.807,296.909L315.807,263.202Z" style="fill:rgb(136,179,206);"/>
            </g>
        </g>
    </g>
</svg>
