<svg xmlns="http://www.w3.org/2000/svg" version="1.1" xmlns:xlink="http://www.w3.org/1999/xlink" width="512" height="512" x="0" y="0" viewBox="0 0 1707 1707" style="enable-background:new 0 0 512 512" xml:space="preserve" fill-rule="evenodd"><g><path d="M991 1706H715c-31 0-56-25-56-56v-250c-19-7-37-14-55-23l-176 177c-11 11-25 16-40 16s-29-5-40-16l-195-195c-11-11-17-25-17-40s6-30 17-40l176-177c-8-17-16-36-22-54H57c-31 0-56-25-56-57V715c0-31 25-56 56-56h250c6-19 14-37 22-55L153 428c-11-11-17-25-17-40s6-29 17-40l195-195c11-11 25-17 40-17s29 6 40 17l176 176c18-8 36-16 55-22V57c0-31 25-56 56-56h276c32 0 57 25 57 56v250c18 6 36 14 54 22l177-176c10-11 25-17 40-17s29 6 40 17l195 195c11 11 16 25 16 40s-5 29-16 40l-177 176c9 18 16 36 23 55h250c31 0 56 25 56 56v276c0 32-25 57-56 57h-250c-7 18-14 36-23 54l177 177c11 10 16 25 16 40s-5 29-16 40l-195 195c-11 11-25 16-40 16s-30-5-40-16l-177-177c-17 9-36 16-54 23v250c0 31-25 56-57 56zm-138-427c-234 0-425-191-425-426 0-234 191-425 425-425 235 0 426 191 426 425 0 235-191 426-426 426z" fill="#ffffff" opacity="1" data-original="#000000"></path><path d="m697 795 141-223c3-4 8-7 14-7s11 3 14 7l144 223c-7 2-13 5-19 9l-36 28-21-22c-19-20-51-21-71-2l-10 9-9-8c-9-10-22-15-36-15-13 0-26 6-35 16l-21 22-36-28c-6-4-13-7-19-9z" fill="#ffffff" opacity="1" data-original="#000000"></path><path d="M1021 1343c-7 0-13-4-15-10H701c-3 6-9 10-16 10-9 0-16-7-16-16v-185h249c9 0 17-7 17-16s-8-17-17-17H669v-109h184c10 0 17-7 17-16 0-10-7-17-17-17H669V844c0-6 3-12 9-15s12-2 17 2l61 45 41-43c3-4 7-6 12-6 4 0 9 2 12 5l31 32 34-32c7-6 17-6 24 1l41 43 60-45c5-4 12-5 18-2 5 3 9 9 9 15v483c0 9-8 16-17 16z" fill="#ffffff" opacity="1" data-original="#000000"></path></g></svg>