<svg xmlns="http://www.w3.org/2000/svg" version="1.1" xmlns:xlink="http://www.w3.org/1999/xlink" width="512" height="512" x="0" y="0" viewBox="0 0 612 612" style="enable-background:new 0 0 512 512" xml:space="preserve"><g><path d="M600.195 3.203c-27.612-27.612-229.2 129.21-343.928 243.94-27.811 27.809-47.495 50.998-61.13 70.498 18.725 5.797 36.292 16.375 51.568 31.655 6.546 6.546 12.677 13.948 18.225 21.996 8.543 12.401 14.531 25.428 18.065 38.877 20.061-13.681 44.126-33.916 73.261-63.042C470.985 232.402 627.807 30.815 600.195 3.203zM93.801 364.184c-105.658 61.408-10.941 144.218-85.2 218.472 53.607 53.611 138.564 26.071 185.785-21.154 43.828-43.819 79.004-106.442 38.846-164.758-34.029-49.408-87.813-62.558-139.431-32.56z" fill="#ffffff" opacity="1" data-original="#000000"></path></g></svg>