<svg xmlns="http://www.w3.org/2000/svg" version="1.1" xmlns:xlink="http://www.w3.org/1999/xlink" width="512" height="512" x="0" y="0" viewBox="0 0 110 110" style="enable-background:new 0 0 512 512" xml:space="preserve" class=""><g><path fill="#6542a6" d="M41.71 84.53h26.57v11.58H41.71z" opacity="1" data-original="#aab2bd"></path><rect width="95.57" height="77.53" x="7.21" y="7" fill="#9577cc" rx="10.02" opacity="1" data-original="#ccd1d9" class=""></rect><path fill="#6542a6" d="M102.79 17v57.51a10 10 0 0 1-10 10h-4.7a10 10 0 0 0 10-10V17a10 10 0 0 0-10-10h4.68a10 10 0 0 1 10.02 10z" opacity="1" data-original="#aab2bd"></path><path fill="#9577cc" d="M74.86 103v-2.35a4.54 4.54 0 0 0-4.54-4.54H39.68a4.54 4.54 0 0 0-4.54 4.54V103z" opacity="1" data-original="#ccd1d9" class=""></path><rect width="76.84" height="50.06" x="16.58" y="16.17" fill="#c3aaff" rx="3.15" opacity="1" data-original="#66d4f1" class=""></rect><path fill="#5382ca" d="M67.21 40.29 66.08 39a.94.94 0 0 0-1.42 0l-1.09 1.3a1 1 0 0 1-1.06.27l-2-.78a1 1 0 0 1-.6-.93l.1-1.69a.94.94 0 0 0-1-1l-1.69.14a.93.93 0 0 1-.94-.56l-.84-2a.92.92 0 0 1 .24-1.07L57 31.66a.94.94 0 0 0 0-1.42l-1.29-1.09a.94.94 0 0 1-.27-1.07l.78-2a.93.93 0 0 1 .93-.59l1.69.09a.94.94 0 0 0 1-1l-.15-1.69a1 1 0 0 1 .57-.94l1.94-.84a1 1 0 0 1 1.08.23l1.12 1.26a1 1 0 0 0 1.43 0l1.08-1.29A.94.94 0 0 1 68 21l2 .78a1 1 0 0 1 .59.93l-.09 1.69a.94.94 0 0 0 1 1l1.68-.15a1 1 0 0 1 1 .57l.82 1.97a1 1 0 0 1-.24 1.08L73.45 30a1 1 0 0 0 0 1.43l1.3 1.08a1 1 0 0 1 .25 1.06l-.78 2a.92.92 0 0 1-.92.59L71.64 36a.94.94 0 0 0-1 1l.15 1.68a1 1 0 0 1-.57.95l-1.94.84a1 1 0 0 1-1.07-.18z" opacity="1" data-original="#f76c82" class=""></path><path fill="#c3aaff" d="M66.77 34.35a3.83 3.83 0 1 1 2-5 3.84 3.84 0 0 1-2 5z" opacity="1" data-original="#66d4f1" class=""></path><path fill="#ac8be9" d="M93.42 19.32v43.76a3.15 3.15 0 0 1-3.15 3.15H19.73a3.15 3.15 0 0 1-3.15-3.15v-1.8h38.27a33.62 33.62 0 0 0 33.62-33.62V16.17h1.8a3.15 3.15 0 0 1 3.15 3.15z" opacity="1" data-original="#4fc0e8" class=""></path><path fill="#f4f6f8" d="M56.9 76.14a3.29 3.29 0 1 1-3.29-3.29 3.29 3.29 0 0 1 3.29 3.29z" opacity="1" data-original="#f4f6f8"></path><path fill="#e4e8eb" d="M56.9 76.13a3.29 3.29 0 0 1-6.39 1.09 3.28 3.28 0 0 0 4.38-3.1A3 3 0 0 0 54.7 73a3.27 3.27 0 0 1 2.2 3.13z" opacity="1" data-original="#e4e8eb"></path><g fill="#fff"><path d="M68 54.94a1 1 0 0 1-.71-.29l-3.38-3.39a1 1 0 0 1 1.41-1.41l3.38 3.38a1 1 0 0 1-.7 1.71zM71.58 49.4h-4.79a1 1 0 0 1 0-2h4.79a1 1 0 0 1 0 2zM62.48 58.5a1 1 0 0 1-1-1v-4.79a1 1 0 0 1 2 0v4.79a1 1 0 0 1-1 1zM45.9 32.82a1 1 0 0 1-.71-.29l-3.38-3.39a1 1 0 0 1 1.41-1.41l3.39 3.38a1 1 0 0 1 0 1.42 1 1 0 0 1-.71.29zM43.74 35H39a1 1 0 0 1 0-2h4.78a1 1 0 0 1 0 2zM48.05 30.67a1 1 0 0 1-1-1v-4.79a1 1 0 1 1 2 0v4.79a1 1 0 0 1-1 1z" fill="#ffffff" opacity="1" data-original="#ffffff" class=""></path></g><path fill="#bb4cc0" d="m58.94 52.42-2 .68a1.2 1.2 0 0 0-.7 1.67l1 1.93a1.19 1.19 0 0 1-.23 1.38L55 60a1.22 1.22 0 0 1-1.39.22l-1.92-1a1.19 1.19 0 0 0-1.67.69l-.68 2a1.2 1.2 0 0 1-1.14.82h-2.7a1.19 1.19 0 0 1-1.09-.73l-.68-2a1.2 1.2 0 0 0-1.68-.69l-1.92 1a1.2 1.2 0 0 1-1.38-.31l-1.91-1.91a1.2 1.2 0 0 1-.22-1.38l1-1.93a1.19 1.19 0 0 0-.69-1.67l-2-.68a1.2 1.2 0 0 1-.93-1.15v-2.69a1.2 1.2 0 0 1 .82-1.14l2-.68a1.2 1.2 0 0 0 .69-1.67l-1-1.92a1.22 1.22 0 0 1 .22-1.39l1.91-1.9a1.19 1.19 0 0 1 1.38-.23l1.92 1a1.2 1.2 0 0 0 1.68-.69l.68-2a1.19 1.19 0 0 1 1.13-.82h2.7a1.2 1.2 0 0 1 1.14.82l.68 2a1.19 1.19 0 0 0 1.67.69l1.92-1a1.2 1.2 0 0 1 1.39.23l1.9 1.9a1.2 1.2 0 0 1 .23 1.39l-1 1.92a1.19 1.19 0 0 0 .69 1.67l2 .68a1.2 1.2 0 0 1 .82 1.14v2.69a1.2 1.2 0 0 1-.63 1.14z" opacity="1" data-original="#fbd277" class=""></path><path fill="#c3aaff" d="M52.1 49.94a5.21 5.21 0 1 1-5.2-5.21 5.2 5.2 0 0 1 5.2 5.21z" opacity="1" data-original="#66d4f1" class=""></path></g></svg>