<?xml version="1.0" encoding="UTF-8" standalone="no"?>
<!DOCTYPE svg PUBLIC "-//W3C//DTD SVG 1.1//EN" "http://www.w3.org/Graphics/SVG/1.1/DTD/svg11.dtd">
<svg width="100%" height="100%" viewBox="0 0 29167 17005" version="1.1" xmlns="http://www.w3.org/2000/svg" xmlns:xlink="http://www.w3.org/1999/xlink" xml:space="preserve" xmlns:serif="http://www.serif.com/" style="fill-rule:evenodd;clip-rule:evenodd;stroke-linejoin:round;stroke-miterlimit:2;">
    <g transform="matrix(4.16667,0,0,4.16667,0,0)">
        <rect x="0" y="0" width="7000" height="4081" style="fill:rgb(39,48,108);"/>
        <path d="M0,4081L1626.23,4081C1780.62,3905.17 1907.04,3698.03 1907.04,3349.36C1907.04,3133.25 1846.36,2931.31 1741.11,2759.65C1700.9,2719.38 1667.07,2672.75 1641.27,2621.38C1465.07,2270.63 1718.42,1846.32 2119.81,1846.32C2435.99,1846.32 2654.89,2164.73 3195.02,2164.73C4280.25,2164.73 5162.54,857.389 4291.03,3.148L1742.06,3.148L1059.22,0L17.862,0L0,1913.97L0,4081Z" style="fill:url(#_Linear1);"/>
        <path d="M478.588,3740.17C478.588,3045.53 1125.41,3075.07 1125.41,2380.45C1125.41,2212.83 1078.35,2056.2 996.711,1923.06C965.524,1891.83 939.286,1855.66 919.273,1815.83C782.611,1543.77 979.112,1214.68 1290.43,1214.68C1535.67,1214.68 1705.45,1461.64 2124.38,1461.64C2888.17,1461.64 3421.22,716.25 3193.72,0L0,0L0,4081L547.344,4081C503.069,3976.23 478.588,3861.06 478.588,3740.17Z" style="fill:url(#_Linear2);"/>
        <path d="M2886.82,0L0,0L0,2917.19C217.121,2659.85 510.882,2488.33 510.882,1987.91C510.882,1796.39 457.104,1617.42 363.825,1465.29C328.19,1429.61 298.209,1388.28 275.343,1342.76C119.188,1031.91 343.716,655.877 699.439,655.877C979.65,655.877 1173.65,938.057 1652.33,938.057C2259.23,938.057 2738.51,526.135 2886.82,0Z" style="fill:url(#_Linear3);"/>
        <path d="M2792.61,0L0,0L0,2636.66C169.269,2454.95 317.299,2249.46 317.299,1878.25C317.299,1669.08 258.569,1473.63 156.697,1307.49C117.781,1268.52 85.037,1223.39 60.065,1173.67C-110.472,834.188 134.736,423.523 523.224,423.523C829.243,423.523 1041.11,731.693 1563.88,731.693C2108.85,731.693 2559.54,427.533 2792.61,0Z" style="fill:url(#_Linear4);"/>
    </g>
    <defs>
        <linearGradient id="_Linear1" x1="0" y1="0" x2="1" y2="0" gradientUnits="userSpaceOnUse" gradientTransform="matrix(2307.39,2993.82,-2993.82,2307.39,1664.86,851.466)"><stop offset="0" style="stop-color:rgb(34,61,124);stop-opacity:1"/><stop offset="0.2" style="stop-color:rgb(45,52,138);stop-opacity:1"/><stop offset="0.4" style="stop-color:rgb(85,47,146);stop-opacity:1"/><stop offset="1" style="stop-color:rgb(184,63,151);stop-opacity:1"/></linearGradient>
        <linearGradient id="_Linear2" x1="0" y1="0" x2="1" y2="0" gradientUnits="userSpaceOnUse" gradientTransform="matrix(1925.04,1925.04,-1925.04,1925.04,354.67,684.559)"><stop offset="0" style="stop-color:rgb(34,61,124);stop-opacity:1"/><stop offset="0.2" style="stop-color:rgb(45,52,138);stop-opacity:1"/><stop offset="0.4" style="stop-color:rgb(85,47,146);stop-opacity:1"/><stop offset="1" style="stop-color:rgb(184,63,151);stop-opacity:1"/></linearGradient>
        <linearGradient id="_Linear3" x1="0" y1="0" x2="1" y2="0" gradientUnits="userSpaceOnUse" gradientTransform="matrix(2502.39,2762.86,-2762.86,2502.39,-588.582,-784.901)"><stop offset="0" style="stop-color:rgb(34,61,124);stop-opacity:1"/><stop offset="0.2" style="stop-color:rgb(45,52,138);stop-opacity:1"/><stop offset="0.4" style="stop-color:rgb(85,47,146);stop-opacity:1"/><stop offset="1" style="stop-color:rgb(184,63,151);stop-opacity:1"/></linearGradient>
        <linearGradient id="_Linear4" x1="0" y1="0" x2="1" y2="0" gradientUnits="userSpaceOnUse" gradientTransform="matrix(4127.81,4920.41,-4920.41,4127.81,-2232.35,-2941.23)"><stop offset="0" style="stop-color:rgb(34,61,124);stop-opacity:1"/><stop offset="0.2" style="stop-color:rgb(45,52,138);stop-opacity:1"/><stop offset="0.4" style="stop-color:rgb(85,47,146);stop-opacity:1"/><stop offset="1" style="stop-color:rgb(184,63,151);stop-opacity:1"/></linearGradient>
    </defs>
</svg>
