<?xml version="1.0" encoding="UTF-8" standalone="no"?>
<!DOCTYPE svg PUBLIC "-//W3C//DTD SVG 1.1//EN" "http://www.w3.org/Graphics/SVG/1.1/DTD/svg11.dtd">
<svg width="100%" height="100%" viewBox="0 0 1738 1630" version="1.1" xmlns="http://www.w3.org/2000/svg" xmlns:xlink="http://www.w3.org/1999/xlink" xml:space="preserve" xmlns:serif="http://www.serif.com/" style="fill-rule:evenodd;clip-rule:evenodd;stroke-linejoin:round;stroke-miterlimit:2;">
    <g transform="matrix(4.16667,0,0,4.16667,0,0)">
        <path d="M60.943,361.092C142.199,400.969 273.943,400.97 355.198,361.093C436.455,321.215 436.455,256.563 355.198,216.685C273.942,176.808 142.198,176.808 60.942,216.684C-20.314,256.561 -20.314,321.215 60.943,361.092Z" style="fill:rgb(218,255,251);fill-rule:nonzero;"/>
        <path d="M371.829,333.576C358.938,339.72 338.039,339.72 325.149,333.576C312.257,327.433 312.257,317.471 325.149,311.327C338.039,305.184 358.938,305.184 371.829,311.327C384.72,317.471 384.72,327.433 371.829,333.576Z" style="fill:rgb(230,230,230);fill-rule:nonzero;"/>
        <path d="M206.847,181.811L169.345,203.463C167.953,204.266 166.603,206.2 166.329,207.783L157.009,261.592C156.735,263.175 157.641,265.11 159.032,265.913L183.214,279.874C184.605,280.677 186.861,280.677 188.252,279.874L239.935,250.035C241.325,249.232 242.453,247.359 242.453,245.852C242.454,244.345 241.326,242.472 239.935,241.669L221.339,230.932C219.947,230.129 218.688,228.182 218.526,226.584L214.388,185.979C214.225,184.381 213.034,182.474 211.73,181.721C210.424,180.967 208.238,181.008 206.847,181.811Z" style="fill:rgb(38,50,56);fill-rule:nonzero;"/>
        <path d="M185.732,270.413L185.733,280.477C186.645,280.477 187.556,280.276 188.252,279.874L239.935,250.035C241.326,249.232 242.453,247.359 242.453,245.852C242.453,244.97 242.061,243.968 241.462,243.123L233,243.123L185.732,270.413Z" style="fill:rgb(69,91,101);fill-rule:nonzero;"/>
        <path d="M211.573,184.54L174.071,206.192C172.68,206.995 171.33,208.929 171.056,210.512L162.595,259.359C162.321,260.943 163.227,262.877 164.618,263.68L183.214,274.416C184.605,275.219 186.861,275.219 188.252,274.416L239.935,244.578C241.326,243.774 241.326,242.472 239.935,241.669L221.339,230.932C219.947,230.129 218.688,228.182 218.526,226.584L214.388,185.979C214.225,184.381 212.965,183.737 211.573,184.54Z" style="fill:rgb(38,50,56);fill-rule:nonzero;"/>
        <path d="M239.935,241.669L221.339,230.932C220.654,230.536 220.001,229.862 219.494,229.089L162.952,261.734C163.316,262.548 163.9,263.265 164.618,263.68L183.214,274.416C184.605,275.219 186.861,275.219 188.252,274.416L239.935,244.578C241.326,243.774 241.326,242.472 239.935,241.669Z" style="fill:rgb(55,71,79);fill-rule:nonzero;"/>
        <path d="M87.672,288.831L85.271,287.445C83.323,286.32 81.744,283.585 81.744,281.336L81.743,120.284C81.743,118.034 83.324,115.303 85.275,114.183L282.031,1.222C283.982,0.102 287.142,0.106 289.09,1.231L290.921,2.288C292.869,3.412 294.448,6.147 294.448,8.397L294.448,169.447C294.448,171.697 292.869,174.432 290.921,175.557L94.726,288.831C92.778,289.956 89.619,289.956 87.672,288.831Z" style="fill:rgb(69,91,101);fill-rule:nonzero;"/>
        <path d="M95.924,124.398L82.778,116.809C82.139,117.913 81.743,119.158 81.743,120.284L81.744,281.336C81.744,283.585 83.323,286.32 85.271,287.445L87.672,288.831C89.619,289.956 92.778,289.956 94.726,288.831L95.924,288.139L95.924,124.398Z" style="fill:rgb(38,50,56);fill-rule:nonzero;"/>
        <path d="M91.198,286.795L91.198,125.743C91.198,123.494 92.778,120.759 94.726,119.634L290.921,6.36C292.869,5.236 294.448,6.147 294.448,8.397L294.448,169.447C294.448,171.697 292.869,174.432 290.921,175.557L94.726,288.831C92.778,289.956 91.198,289.044 91.198,286.795Z" style="fill:rgb(55,71,79);fill-rule:nonzero;"/>
        <path d="M183.326,226.765L201.921,216.029C203.313,215.226 204.441,215.796 204.441,217.303C204.441,218.811 203.313,220.684 201.921,221.487L183.326,232.223C181.935,233.026 180.807,232.455 180.807,230.948C180.807,229.441 181.935,227.568 183.326,226.765Z" style="fill:rgb(224,225,224);fill-rule:nonzero;"/>
        <path d="M100.236,124.559L285.011,17.578C286.123,16.934 287.026,17.454 287.026,18.739L287.026,159.104C287.026,160.389 286.123,161.952 285.01,162.595L100.238,269.273C99.124,269.916 98.222,269.395 98.222,268.109L98.222,128.052C98.222,126.767 99.123,125.203 100.236,124.559Z" style="fill:white;fill-rule:nonzero;"/>
        <path d="M113.559,128.065L307.471,16.099C310.548,14.322 313.067,15.776 313.067,19.329L313.067,145.844C313.067,147.494 311.897,149.519 310.468,150.344L112.556,264.618C111.128,265.443 109.959,264.768 109.959,263.118L109.959,134.3C109.959,132.014 111.578,129.208 113.559,128.065Z" style="fill:rgb(224,225,224);fill-rule:nonzero;"/>
        <path d="M313.066,22.248L313.066,19.329C313.066,15.776 310.548,14.322 307.471,16.099L113.559,128.065C111.578,129.208 109.958,132.014 109.958,134.3L109.958,139.524L313.066,22.248Z" style="fill:rgb(4,54,74);fill-rule:nonzero;"/>
        <path d="M289.603,28.902C288.538,29.516 287.676,31.01 287.676,32.239C287.676,33.468 288.538,33.966 289.603,33.351C290.667,32.736 291.529,31.243 291.529,30.014C291.529,28.785 290.667,28.287 289.603,28.902Z" style="fill:white;fill-rule:nonzero;"/>
        <path d="M297.249,24.486C296.185,25.101 295.322,26.595 295.322,27.824C295.322,29.053 296.185,29.551 297.249,28.937C298.314,28.322 299.176,26.828 299.176,25.599C299.176,24.37 298.314,23.872 297.249,24.486Z" style="fill:white;fill-rule:nonzero;"/>
        <path d="M304.896,20.072C303.832,20.687 302.969,22.181 302.969,23.41C302.969,24.638 303.832,25.136 304.896,24.522C305.96,23.907 306.823,22.413 306.823,21.185C306.823,19.956 305.96,19.458 304.896,20.072Z" style="fill:white;fill-rule:nonzero;"/>
        <path d="M300.82,44.477C300.661,43.947 300.161,43.777 299.57,44.117L176.251,115.327C175.891,115.537 175.561,115.887 175.331,116.297L171.271,113.947C171.501,113.537 171.831,113.187 172.191,112.977L295.511,41.777C296.231,41.357 297.391,41.357 298.111,41.777L299.57,42.617C300.181,42.967 300.691,43.747 300.82,44.477Z" style="fill:rgb(235,235,236);fill-rule:nonzero;"/>
        <path d="M300.871,44.867L300.871,98.157C300.871,98.987 300.291,99.997 299.57,100.407L176.251,171.607L176.071,171.697L175.831,171.767L175.791,171.777C175.301,171.847 174.951,171.497 174.951,170.857L174.951,117.577C174.951,117.157 175.101,116.697 175.331,116.297C175.561,115.887 175.891,115.537 176.251,115.327L299.57,44.117C300.161,43.777 300.661,43.947 300.82,44.477L300.841,44.577C300.861,44.677 300.871,44.767 300.871,44.867Z" style="fill:rgb(251,253,253);fill-rule:nonzero;"/>
        <path d="M175.791,171.777C175.411,171.897 174.971,171.937 174.561,171.887C174.231,171.857 173.911,171.757 173.651,171.607L172.191,170.767C171.471,170.347 170.891,169.337 170.891,168.517L170.891,115.227C170.891,114.817 171.031,114.357 171.271,113.947L175.331,116.297C175.101,116.697 174.951,117.157 174.951,117.577L174.951,170.857C174.951,171.497 175.301,171.847 175.791,171.777Z" style="fill:rgb(224,225,224);fill-rule:nonzero;"/>
        <path d="M289.606,86.669C289.231,86.886 288.89,86.938 288.669,86.811C288.45,86.684 288.324,86.363 288.324,85.929C288.324,84.814 289.14,83.402 290.106,82.844C290.346,82.705 290.573,82.634 290.763,82.634C290.869,82.634 290.964,82.656 291.043,82.702C291.262,82.828 291.388,83.15 291.388,83.584C291.388,84.698 290.571,86.111 289.606,86.669ZM276.251,87.498C275.873,87.715 275.534,87.766 275.315,87.64C275.096,87.514 274.97,87.192 274.97,86.758C274.97,85.643 275.785,84.231 276.751,83.673C276.991,83.534 277.218,83.463 277.407,83.463C277.514,83.463 277.609,83.485 277.688,83.531C277.906,83.657 278.032,83.979 278.032,84.413C278.032,85.528 277.217,86.941 276.251,87.498ZM262.032,75.494C261.657,75.712 261.316,75.762 261.096,75.636C260.877,75.51 260.752,75.189 260.752,74.755C260.752,73.639 261.568,72.227 262.533,71.67C262.775,71.53 263.001,71.459 263.19,71.459C263.296,71.459 263.391,71.482 263.47,71.527C263.689,71.653 263.815,71.975 263.815,72.409C263.815,73.524 262.999,74.937 262.032,75.494ZM251.46,104.192C251.085,104.409 250.743,104.46 250.524,104.334C250.305,104.207 250.179,103.886 250.179,103.452C250.179,102.337 250.994,100.924 251.96,100.367C252.2,100.228 252.427,100.157 252.616,100.157C252.723,100.157 252.818,100.18 252.897,100.225L252.992,100.31L252.992,100.311C253.15,100.468 253.241,100.744 253.241,101.107C253.241,102.222 252.426,103.634 251.46,104.192ZM237.827,97.923C237.452,98.141 237.111,98.192 236.891,98.066L236.806,97.99L236.794,97.98C236.638,97.822 236.546,97.546 236.546,97.184C236.546,96.069 237.362,94.656 238.327,94.099C238.568,93.96 238.794,93.889 238.984,93.889C239.09,93.889 239.185,93.911 239.264,93.957C239.483,94.083 239.609,94.404 239.609,94.839C239.609,95.954 238.793,97.366 237.827,97.923ZM227.506,125.021C227.132,125.239 226.79,125.29 226.57,125.163C226.351,125.037 226.225,124.716 226.225,124.281C226.225,123.167 227.04,121.754 228.006,121.196C228.247,121.057 228.474,120.986 228.663,120.986C228.77,120.986 228.864,121.008 228.943,121.054C229.162,121.181 229.288,121.502 229.288,121.936C229.288,123.05 228.472,124.464 227.506,125.021ZM211.263,134.402C210.888,134.62 210.546,134.67 210.325,134.544C210.107,134.418 209.981,134.096 209.981,133.662C209.981,132.548 210.797,131.135 211.763,130.577C212.003,130.438 212.23,130.367 212.419,130.367C212.526,130.367 212.62,130.389 212.698,130.435C212.918,130.562 213.044,130.883 213.044,131.317C213.044,132.431 212.229,133.844 211.263,134.402ZM199.072,132.056C198.697,132.273 198.357,132.326 198.136,132.199C197.917,132.072 197.791,131.751 197.791,131.317C197.791,130.202 198.607,128.789 199.572,128.232C199.813,128.092 200.039,128.022 200.229,128.022C200.335,128.022 200.43,128.044 200.509,128.09C200.728,128.216 200.854,128.537 200.854,128.971C200.854,130.087 200.038,131.499 199.072,132.056ZM186.886,153.164C186.511,153.381 186.169,153.432 185.949,153.306C185.731,153.179 185.605,152.858 185.605,152.424C185.605,151.309 186.42,149.896 187.386,149.339C187.627,149.2 187.854,149.129 188.042,149.129C188.149,149.129 188.243,149.151 188.322,149.196C188.541,149.323 188.667,149.645 188.667,150.079C188.667,151.194 187.852,152.606 186.886,153.164ZM297.036,73.413C296.79,73.289 296.489,73.386 296.364,73.633L291.995,82.263C291.87,82.093 291.726,81.942 291.543,81.836C290.999,81.521 290.312,81.57 289.606,81.978C288.49,82.622 287.588,84.022 287.373,85.349L278.99,83.981C278.901,83.384 278.629,82.92 278.188,82.665C277.642,82.35 276.956,82.401 276.251,82.807C275.772,83.084 275.331,83.501 274.968,83.991L264.337,74.298C264.633,73.683 264.815,73.025 264.815,72.409C264.815,71.596 264.515,70.976 263.97,70.661C263.424,70.346 262.737,70.397 262.032,70.803C260.754,71.542 259.752,73.277 259.752,74.755C259.752,75.556 260.045,76.168 260.577,76.487L253.033,99.219C252.56,99.091 252.017,99.18 251.46,99.501C250.73,99.923 250.098,100.672 249.683,101.51L240.598,94.97L240.609,94.839C240.609,94.026 240.309,93.405 239.764,93.09C239.218,92.777 238.531,92.826 237.827,93.233C236.548,93.971 235.546,95.706 235.546,97.184C235.546,97.698 235.679,98.124 235.905,98.456L228.549,119.99C228.216,120.011 227.863,120.124 227.506,120.33C226.313,121.019 225.371,122.574 225.249,123.979L213.915,130.525C213.781,130.105 213.546,129.769 213.198,129.569C212.653,129.254 211.966,129.304 211.263,129.711C210.299,130.267 209.493,131.389 209.154,132.54L201.802,129.563C201.835,129.363 201.854,129.165 201.854,128.971C201.854,128.159 201.554,127.538 201.009,127.223C200.464,126.909 199.778,126.959 199.072,127.365C197.793,128.104 196.791,129.84 196.791,131.317C196.791,131.64 196.851,131.922 196.943,132.177L188.549,148.224C188.054,148.056 187.48,148.13 186.886,148.473C185.693,149.161 184.752,150.716 184.629,152.121L178.761,155.508C178.522,155.646 178.44,155.952 178.578,156.191C178.67,156.351 178.839,156.441 179.011,156.441L179.261,156.374L184.733,153.216C184.867,153.635 185.102,153.971 185.449,154.172C185.686,154.308 185.948,154.376 186.228,154.376C186.593,154.376 186.987,154.26 187.386,154.03C188.665,153.291 189.667,151.556 189.667,150.079C189.667,149.592 189.548,149.186 189.345,148.862L197.616,133.049L197.636,133.065C197.872,133.201 198.135,133.269 198.414,133.269C198.779,133.269 199.173,133.153 199.572,132.923C200.413,132.437 201.128,131.52 201.523,130.529L208.989,133.552L208.981,133.662C208.981,134.475 209.28,135.095 209.825,135.41C210.062,135.547 210.324,135.614 210.605,135.614C210.97,135.614 211.364,135.498 211.763,135.268C212.956,134.579 213.897,133.024 214.02,131.62L225.354,125.073C225.488,125.493 225.722,125.829 226.07,126.029C226.306,126.166 226.569,126.234 226.849,126.234C227.214,126.234 227.608,126.117 228.006,125.887C229.285,125.148 230.288,123.413 230.288,121.936C230.288,121.166 230.011,120.577 229.518,120.249L236.75,99.079C236.884,99.116 237.024,99.136 237.169,99.136C237.534,99.136 237.928,99.02 238.327,98.79C239.263,98.25 240.045,97.176 240.401,96.06L249.318,102.479C249.233,102.807 249.179,103.135 249.179,103.452C249.179,104.264 249.479,104.885 250.024,105.2C250.26,105.336 250.523,105.404 250.802,105.404C251.167,105.404 251.561,105.288 251.96,105.058C253.239,104.32 254.241,102.584 254.241,101.107C254.241,100.592 254.109,100.168 253.882,99.836L261.568,76.677C261.877,76.644 262.201,76.551 262.533,76.36C263.013,76.084 263.453,75.667 263.817,75.176L274.446,84.87C274.151,85.485 273.97,86.142 273.97,86.758C273.97,87.571 274.27,88.192 274.815,88.506C275.051,88.643 275.314,88.71 275.593,88.71C275.958,88.71 276.352,88.594 276.751,88.364C277.865,87.72 278.769,86.32 278.983,84.993L287.366,86.361C287.456,86.958 287.727,87.422 288.169,87.677C288.405,87.813 288.668,87.881 288.948,87.881C289.314,87.881 289.707,87.765 290.106,87.535C291.344,86.82 292.316,85.172 292.376,83.727L297.257,74.086C297.382,73.839 297.283,73.538 297.036,73.413Z" style="fill:rgb(88,194,177);fill-rule:nonzero;"/>
        <path d="M227.711,152.357C227.551,151.827 227.041,151.657 226.461,151.997L176.251,180.987C175.871,181.207 175.531,181.587 175.301,182.017L171.251,179.647C171.491,179.227 171.821,178.857 172.191,178.647L222.391,149.657C223.111,149.237 224.28,149.237 224.99,149.657L226.461,150.497C227.061,150.847 227.571,151.627 227.711,152.357Z" style="fill:rgb(235,235,236);fill-rule:nonzero;"/>
        <path d="M227.761,152.747L227.751,191.967C227.751,192.797 227.171,193.797 226.461,194.217L179.011,221.607L176.251,223.207L176.051,223.307L176.021,223.317C175.401,223.537 174.951,223.187 174.951,222.457L174.951,183.237C174.951,182.847 175.081,182.407 175.301,182.017C175.531,181.587 175.871,181.207 176.251,180.987L226.461,151.997C227.041,151.657 227.551,151.827 227.711,152.357L227.731,152.457C227.751,152.557 227.761,152.647 227.761,152.747Z" style="fill:rgb(251,253,253);fill-rule:nonzero;"/>
        <path d="M176.021,223.317L175.861,223.377L175.641,223.437C175.531,223.467 175.421,223.487 175.301,223.497C175.191,223.507 175.071,223.517 174.961,223.517C174.721,223.517 174.491,223.487 174.261,223.437C174.041,223.387 173.831,223.307 173.651,223.207L172.191,222.357C171.471,221.947 170.891,220.937 170.891,220.107L170.891,180.897C170.891,180.487 171.031,180.047 171.251,179.647L175.301,182.017C175.081,182.407 174.951,182.847 174.951,183.237L174.951,222.457C174.951,223.187 175.401,223.537 176.021,223.317Z" style="fill:rgb(224,225,224);fill-rule:nonzero;"/>
        <path d="M179.012,215.917L179.011,189.774C179.011,189.222 179.399,188.55 179.877,188.274L182.208,186.929C182.687,186.653 183.074,186.877 183.074,187.429L183.074,213.571C183.074,214.124 182.687,214.796 182.208,215.071L179.879,216.417C179.4,216.693 179.012,216.469 179.012,215.917Z" style="fill:rgb(100,204,197);fill-rule:nonzero;"/>
        <path d="M187.137,211.224L187.136,180.392C187.136,179.84 187.524,179.169 188.002,178.893L190.333,177.547C190.811,177.271 191.199,177.495 191.199,178.047L191.199,208.879C191.199,209.431 190.811,210.103 190.333,210.379L188.003,211.724C187.525,212.001 187.137,211.777 187.137,211.224Z" style="fill:rgb(100,204,197);fill-rule:nonzero;"/>
        <path d="M195.261,206.535L195.26,191.738C195.26,191.186 195.648,190.514 196.126,190.238L198.457,188.893C198.936,188.616 199.323,188.841 199.323,189.393L199.323,204.19C199.323,204.742 198.936,205.414 198.457,205.69L196.127,207.035C195.649,207.311 195.261,207.088 195.261,206.535Z" style="fill:rgb(100,204,197);fill-rule:nonzero;"/>
        <path d="M203.385,201.855L203.384,182.663C203.384,182.11 203.772,181.439 204.25,181.163L206.581,179.817C207.06,179.541 207.447,179.765 207.447,180.318L207.447,199.509C207.447,200.062 207.06,200.734 206.581,201.009L204.251,202.355C203.773,202.631 203.385,202.407 203.385,201.855Z" style="fill:rgb(100,204,197);fill-rule:nonzero;"/>
        <path d="M211.51,197.162L211.509,190.633C211.509,190.08 211.897,189.408 212.375,189.133L214.705,187.787C215.184,187.511 215.571,187.735 215.571,188.287L215.571,194.817C215.571,195.369 215.184,196.041 214.706,196.317L212.376,197.662C211.898,197.939 211.51,197.715 211.51,197.162Z" style="fill:rgb(100,204,197);fill-rule:nonzero;"/>
        <path d="M219.634,192.473L219.633,171.019C219.633,170.466 220.021,169.795 220.499,169.519L222.83,168.174C223.309,167.897 223.696,168.121 223.696,168.674L223.696,190.128C223.696,190.68 223.309,191.352 222.83,191.628L220.5,192.973C220.022,193.249 219.634,193.025 219.634,192.473Z" style="fill:rgb(100,204,197);fill-rule:nonzero;"/>
        <path d="M300.823,110.138C300.663,109.608 300.154,109.438 299.573,109.778L237.178,145.808C236.798,146.029 236.457,146.408 236.228,146.839L232.178,144.468C232.417,144.049 232.747,143.678 233.117,143.468L295.503,107.438C296.224,107.018 297.394,107.018 298.104,107.438L299.573,108.278C300.174,108.628 300.684,109.408 300.823,110.138Z" style="fill:rgb(235,235,236);fill-rule:nonzero;"/>
        <path d="M300.873,110.528L300.863,149.748C300.863,150.578 300.283,151.578 299.573,151.998L239.938,186.428L237.178,188.029L236.978,188.129L236.947,188.138C236.327,188.359 235.878,188.008 235.878,187.279L235.878,148.058C235.878,147.669 236.008,147.228 236.228,146.839C236.457,146.408 236.798,146.029 237.178,145.808L299.573,109.778C300.154,109.438 300.663,109.608 300.823,110.138L300.844,110.238C300.863,110.338 300.873,110.428 300.873,110.528Z" style="fill:rgb(251,253,253);fill-rule:nonzero;"/>
        <path d="M236.947,188.138L236.787,188.198L236.568,188.258C236.457,188.288 236.348,188.308 236.228,188.319C236.117,188.328 235.997,188.339 235.888,188.339C235.648,188.339 235.417,188.308 235.188,188.258C234.968,188.209 234.758,188.129 234.577,188.029L233.117,187.178C232.398,186.768 231.818,185.758 231.818,184.928L231.818,145.718C231.818,145.308 231.957,144.868 232.178,144.468L236.228,146.839C236.008,147.228 235.878,147.669 235.878,148.058L235.878,187.279C235.878,188.008 236.327,188.359 236.947,188.138Z" style="fill:rgb(224,225,224);fill-rule:nonzero;"/>
        <path d="M258.971,142.437L255.74,154.487C255.521,155.287 254.891,156.507 254.361,157.147L243.931,169.677C242.601,168.767 241.74,167.357 241.411,165.577C240.681,161.547 242.74,156.037 246.771,151.187C247.461,150.367 248.161,149.597 248.881,148.867C251.961,145.787 255.401,143.597 258.971,142.437Z" style="fill:rgb(23,107,135);fill-rule:nonzero;"/>
        <path d="M267.661,157.597C263.03,165.387 254.231,171.267 247.631,170.857C246.611,170.797 245.791,170.617 245.011,170.277L255.291,157.927C255.731,157.397 256.691,156.967 257.411,156.967L257.521,156.967L267.661,157.597Z" style="fill:rgb(23,107,135);fill-rule:nonzero;"/>
        <path d="M266.771,142.237L257.191,153.747L260.331,142.037C262.931,141.397 265.011,141.447 266.771,142.237Z" style="fill:rgb(23,107,135);fill-rule:nonzero;"/>
        <path d="M268.311,156.417L257.601,155.757C257.371,155.737 257.26,155.677 257.251,155.677C257.251,155.657 257.271,155.587 257.341,155.477L257.431,155.357L267.861,142.827C271.301,145.167 271.481,150.407 268.311,156.417Z" style="fill:rgb(23,107,135);fill-rule:nonzero;"/>
        <path d="M274.714,134.032C274.714,134.753 275.296,135.002 276.013,134.587L295.511,123.329C296.229,122.915 296.811,121.994 296.811,121.274C296.811,120.552 296.23,120.304 295.512,120.718L276.013,131.977C275.296,132.391 274.714,133.311 274.714,134.032Z" style="fill:rgb(100,204,197);fill-rule:nonzero;"/>
        <path d="M274.714,141.874C274.714,142.595 275.296,142.843 276.013,142.429L295.511,131.171C296.229,130.757 296.811,129.837 296.811,129.115C296.811,128.395 296.23,128.146 295.512,128.56L276.013,139.819C275.296,140.234 274.714,141.154 274.714,141.874Z" style="fill:rgb(224,225,224);fill-rule:nonzero;"/>
        <path d="M274.714,146.711C274.714,147.432 275.296,147.681 276.013,147.266L295.511,136.008C296.229,135.594 296.811,134.674 296.811,133.953C296.811,133.232 296.23,132.983 295.512,133.398L276.013,144.656C275.296,145.07 274.714,145.99 274.714,146.711Z" style="fill:rgb(224,225,224);fill-rule:nonzero;"/>
        <path d="M274.714,151.549C274.714,152.269 275.296,152.518 276.013,152.103L295.511,140.845C296.229,140.431 296.811,139.511 296.811,138.79C296.811,138.069 296.23,137.82 295.512,138.235L276.013,149.493C275.296,149.907 274.714,150.828 274.714,151.549Z" style="fill:rgb(224,225,224);fill-rule:nonzero;"/>
        <path d="M274.714,156.385C274.714,157.106 275.296,157.355 276.013,156.941L295.511,145.682C296.229,145.268 296.811,144.348 296.811,143.627C296.811,142.906 296.23,142.657 295.512,143.071L276.013,154.33C275.296,154.745 274.714,155.665 274.714,156.385Z" style="fill:rgb(224,225,224);fill-rule:nonzero;"/>
        <path d="M158.651,147.673C158.491,147.133 157.991,146.963 157.401,147.312L123.441,166.912C123.081,167.122 122.761,167.483 122.521,167.883L118.461,165.543C118.701,165.133 119.021,164.782 119.381,164.572L153.341,144.963C154.061,144.552 155.221,144.552 155.941,144.963L157.401,145.812C158.011,146.162 158.521,146.943 158.651,147.673Z" style="fill:rgb(235,235,236);fill-rule:nonzero;"/>
        <path d="M158.701,148.062L158.701,159.133C158.701,159.963 158.121,160.963 157.401,161.382L123.441,180.983L123.201,181.102L123.141,181.122C122.561,181.293 122.141,180.943 122.141,180.233L122.141,169.162C122.141,168.742 122.281,168.293 122.521,167.882C122.761,167.483 123.081,167.122 123.441,166.912L157.401,147.312C157.991,146.963 158.491,147.133 158.651,147.672L158.671,147.772C158.691,147.872 158.701,147.972 158.701,148.062Z" style="fill:rgb(251,253,253);fill-rule:nonzero;"/>
        <path d="M123.141,181.122C122.991,181.182 122.821,181.222 122.651,181.252C122.151,181.342 121.591,181.302 121.131,181.122C121.031,181.082 120.931,181.032 120.841,180.983L119.381,180.142C118.661,179.733 118.081,178.722 118.081,177.892L118.081,166.822C118.081,166.403 118.231,165.952 118.461,165.543L122.521,167.882C122.281,168.293 122.141,168.742 122.141,169.162L122.141,180.233C122.141,180.943 122.561,181.293 123.141,181.122Z" style="fill:rgb(224,225,224);fill-rule:nonzero;"/>
        <path d="M158.651,168.78C158.491,168.239 157.991,168.07 157.401,168.419L123.441,188.019C123.081,188.229 122.761,188.59 122.521,188.989L118.461,186.65C118.701,186.239 119.021,185.889 119.381,185.679L153.341,166.069C154.061,165.659 155.221,165.659 155.941,166.069L157.401,166.919C158.011,167.269 158.521,168.05 158.651,168.78Z" style="fill:rgb(235,235,236);fill-rule:nonzero;"/>
        <path d="M158.701,169.169L158.701,180.239C158.701,181.07 158.121,182.069 157.401,182.489L123.441,202.09L123.201,202.21L123.141,202.229C122.561,202.4 122.141,202.049 122.141,201.339L122.141,190.269C122.141,189.849 122.281,189.4 122.521,188.989C122.761,188.59 123.081,188.229 123.441,188.019L157.401,168.419C157.991,168.07 158.491,168.239 158.651,168.78L158.671,168.88C158.691,168.979 158.701,169.079 158.701,169.169Z" style="fill:rgb(251,253,253);fill-rule:nonzero;"/>
        <path d="M123.141,202.229C122.991,202.289 122.821,202.329 122.651,202.36C122.151,202.449 121.591,202.409 121.131,202.229C121.031,202.189 120.931,202.139 120.841,202.09L119.381,201.249C118.661,200.839 118.081,199.829 118.081,198.999L118.081,187.929C118.081,187.509 118.231,187.059 118.461,186.65L122.521,188.989C122.281,189.4 122.141,189.849 122.141,190.269L122.141,201.339C122.141,202.049 122.561,202.4 123.141,202.229Z" style="fill:rgb(224,225,224);fill-rule:nonzero;"/>
        <path d="M158.651,189.886C158.491,189.346 157.991,189.176 157.401,189.527L123.441,209.127C123.081,209.336 122.761,209.696 122.521,210.096L118.461,207.757C118.701,207.346 119.021,206.996 119.381,206.786L153.341,187.176C154.061,186.766 155.221,186.766 155.941,187.176L157.401,188.027C158.011,188.377 158.521,189.156 158.651,189.886Z" style="fill:rgb(235,235,236);fill-rule:nonzero;"/>
        <path d="M158.701,190.277L158.701,201.346C158.701,202.176 158.121,203.176 157.401,203.596L123.441,223.196L123.201,223.317L123.141,223.336C122.561,223.507 122.141,223.156 122.141,222.447L122.141,211.377C122.141,210.956 122.281,210.507 122.521,210.096C122.761,209.696 123.081,209.336 123.441,209.127L157.401,189.527C157.991,189.176 158.491,189.346 158.651,189.886L158.671,189.986C158.691,190.086 158.701,190.186 158.701,190.277Z" style="fill:rgb(251,253,253);fill-rule:nonzero;"/>
        <path d="M123.141,223.336C122.991,223.396 122.821,223.436 122.651,223.466C122.151,223.556 121.591,223.516 121.131,223.336C121.031,223.297 120.931,223.246 120.841,223.196L119.381,222.356C118.661,221.947 118.081,220.936 118.081,220.106L118.081,209.036C118.081,208.616 118.231,208.166 118.461,207.757L122.521,210.096C122.281,210.507 122.141,210.956 122.141,211.377L122.141,222.447C122.141,223.156 122.561,223.507 123.141,223.336Z" style="fill:rgb(224,225,224);fill-rule:nonzero;"/>
        <path d="M158.651,210.993C158.491,210.453 157.991,210.283 157.401,210.634L123.441,230.234C123.081,230.443 122.761,230.803 122.521,231.203L118.461,228.863C118.701,228.453 119.021,228.103 119.381,227.893L153.341,208.283C154.061,207.873 155.221,207.873 155.941,208.283L157.401,209.133C158.011,209.484 158.521,210.263 158.651,210.993Z" style="fill:rgb(235,235,236);fill-rule:nonzero;"/>
        <path d="M158.701,211.383L158.701,222.453C158.701,223.283 158.121,224.283 157.401,224.703L123.441,244.303L123.201,244.423L123.141,244.444C122.561,244.613 122.141,244.263 122.141,243.553L122.141,232.484C122.141,232.063 122.281,231.613 122.521,231.203C122.761,230.803 123.081,230.443 123.441,230.234L157.401,210.634C157.991,210.283 158.491,210.453 158.651,210.993L158.671,211.093C158.691,211.193 158.701,211.294 158.701,211.383Z" style="fill:rgb(251,253,253);fill-rule:nonzero;"/>
        <path d="M123.141,244.444C122.991,244.503 122.821,244.544 122.651,244.573C122.151,244.663 121.591,244.623 121.131,244.444C121.031,244.403 120.931,244.353 120.841,244.303L119.381,243.464C118.661,243.053 118.081,242.044 118.081,241.214L118.081,230.143C118.081,229.723 118.231,229.273 118.461,228.863L122.521,231.203C122.281,231.613 122.141,232.063 122.141,232.484L122.141,243.553C122.141,244.263 122.561,244.613 123.141,244.444Z" style="fill:rgb(224,225,224);fill-rule:nonzero;"/>
        <path d="M162.221,130.145L162.352,130.183L158.701,128.089L158.701,126.957C158.701,126.867 158.691,126.767 158.671,126.667L158.651,126.567C158.521,125.837 158.011,125.057 157.401,124.707L155.941,123.857C155.221,123.447 154.061,123.447 153.341,123.857L119.381,143.467C119.021,143.677 118.701,144.027 118.461,144.437C118.231,144.847 118.081,145.297 118.081,145.717L118.081,156.787C118.081,157.617 118.661,158.627 119.381,159.037L120.841,159.877C120.931,159.927 121.031,159.977 121.131,160.017C121.591,160.197 122.151,160.237 122.651,160.147C122.821,160.117 122.991,160.077 123.141,160.017L123.201,159.997L123.441,159.877L157.401,140.277C158.121,139.857 158.701,138.857 158.701,138.027L158.701,134.834L162.406,130.557C162.546,130.396 162.432,130.148 162.221,130.145Z" style="fill:rgb(100,204,197);fill-rule:nonzero;"/>
        <path d="M122.123,160.193L122.126,160.193L122.123,160.193ZM122.118,160.193C121.804,160.193 121.488,160.144 121.205,160.044C121.488,160.144 121.804,160.193 122.118,160.193ZM122.632,160.15C122.638,160.149 122.645,160.148 122.651,160.147C122.821,160.117 122.991,160.077 123.141,160.017C122.991,160.077 122.821,160.117 122.651,160.147C122.645,160.148 122.638,160.149 122.632,160.15ZM121.191,160.039C121.19,160.039 121.189,160.039 121.188,160.038C121.189,160.039 121.19,160.039 121.191,160.039Z" style="fill:rgb(201,201,201);fill-rule:nonzero;"/>
        <path d="M122.126,160.193L122.118,160.193C121.804,160.193 121.488,160.144 121.205,160.044C121.2,160.043 121.196,160.041 121.191,160.039C121.19,160.039 121.189,160.039 121.188,160.038C121.169,160.031 121.15,160.024 121.131,160.017C121.031,159.977 120.931,159.927 120.841,159.877L119.381,159.037C118.661,158.627 118.081,157.617 118.081,156.787L118.081,145.717C118.081,145.297 118.231,144.847 118.461,144.437L122.521,146.777C122.281,147.187 122.141,147.637 122.141,148.057L122.141,159.127C122.141,159.718 122.432,160.059 122.864,160.059C122.951,160.059 123.044,160.045 123.141,160.017C122.991,160.077 122.821,160.117 122.651,160.147C122.645,160.148 122.638,160.149 122.632,160.15C122.468,160.179 122.297,160.193 122.126,160.193Z" style="fill:rgb(100,204,197);fill-rule:nonzero;"/>
        <path d="M122.521,146.777L118.461,144.437C118.701,144.027 119.021,143.677 119.381,143.467L153.341,123.857C153.701,123.652 154.171,123.549 154.641,123.549C155.111,123.549 155.581,123.652 155.941,123.857L157.401,124.707C158.011,125.057 158.521,125.837 158.651,126.567C158.548,126.219 158.303,126.024 157.983,126.024C157.808,126.024 157.61,126.083 157.401,126.207L123.441,145.807C123.081,146.017 122.761,146.377 122.521,146.777Z" style="fill:rgb(142,210,203);fill-rule:nonzero;"/>
        <path d="M162.352,130.183L162.35,130.182L162.218,130.144L158.701,130.144L158.701,128.089L162.352,130.183Z" style="fill:rgb(142,210,203);fill-rule:nonzero;"/>
        <path d="M52.751,308.86L59.763,304.853C59.763,304.853 63.127,286.317 60.612,270.382C57.075,247.98 41.822,240.253 36.282,242.48C30.742,244.706 29.44,251.343 39.445,264.287C45.347,271.924 52.94,288.069 52.751,308.86Z" style="fill:rgb(88,194,177);fill-rule:nonzero;"/>
        <path d="M52.751,308.86C52.753,308.596 52.754,308.332 52.754,308.07C52.748,287.66 45.273,271.828 39.445,264.287C34.139,257.423 32.013,252.333 32.013,248.733C32.012,245.544 33.679,243.526 36.282,242.48C36.886,242.237 37.605,242.112 38.413,242.112C45.009,242.112 57.461,250.424 60.612,270.382C61.297,274.724 61.546,279.258 61.545,283.559C61.544,295.041 59.763,304.853 59.763,304.853L52.751,308.86Z" style="fill:rgb(100,204,197);fill-rule:nonzero;"/>
        <path d="M55.293,299.963L55.223,299.958C54.95,299.92 54.759,299.668 54.797,299.394C57.695,278.421 49.26,255.442 39.784,246.181C39.587,245.989 39.583,245.672 39.776,245.474C39.969,245.279 40.286,245.273 40.483,245.466C50.133,254.896 58.728,278.249 55.787,299.531C55.753,299.781 55.538,299.963 55.293,299.963Z" style="fill:white;fill-rule:nonzero;"/>
        <path d="M33.293,320.101C32.185,320.737 29.901,319.346 29.026,318.758C27.529,317.754 26.315,316.331 25.51,314.721C24.572,312.848 24.335,310.841 24.629,308.77C24.781,307.695 25.082,306.648 25.382,305.605C25.676,304.581 25.97,303.557 26.264,302.532C26.555,301.522 26.848,300.477 26.715,299.434C26.446,297.333 24.581,295.861 22.886,294.591C21.011,293.188 19.058,291.335 19.069,288.805C19.077,286.853 20.088,285.041 21.298,283.509C22.507,281.977 23.943,280.624 25.035,279.007C25.822,277.843 26.436,276.476 26.308,275.077C26.229,274.208 25.868,273.389 25.452,272.621C24.559,270.974 23.381,269.466 22.765,267.696C22.149,265.927 22.237,263.727 23.617,262.461C24.751,261.422 26.435,261.276 27.97,261.378C29.389,261.471 30.776,262.112 32.018,262.802C36.033,265.035 38.325,269.791 42.587,271.509C44.23,272.173 46.031,272.318 47.744,272.77C49.457,273.223 51.204,274.098 51.998,275.683C53.562,278.807 50.659,282.657 51.759,285.974C52.732,288.909 55.584,290.032 57.185,292.677C57.885,293.834 58.047,295.171 57.934,296.519C57.743,298.8 57.409,300.474 56.314,303.011C55.409,305.108 52.751,308.86 52.751,308.86C52.684,308.926 33.463,320.003 33.293,320.101Z" style="fill:rgb(100,204,197);fill-rule:nonzero;"/>
        <path d="M44.677,314.035L44.664,314.035C44.381,314.023 44.167,313.79 44.177,313.514C45.004,293.663 35.65,271.747 28.848,265.38C28.647,265.191 28.636,264.875 28.825,264.673C29.014,264.471 29.33,264.462 29.532,264.649C36.47,271.144 46.014,293.424 45.177,313.555C45.166,313.825 44.944,314.035 44.677,314.035Z" style="fill:white;fill-rule:nonzero;"/>
        <path d="M41.703,290.582L41.555,290.559C35.177,288.588 27.228,288.24 27.149,288.237C26.873,288.225 26.659,287.992 26.67,287.716C26.681,287.441 26.89,287.223 27.19,287.237C27.271,287.241 35.346,287.593 41.85,289.604C42.114,289.685 42.262,289.966 42.18,290.229C42.114,290.444 41.917,290.582 41.703,290.582Z" style="fill:white;fill-rule:nonzero;"/>
        <path d="M116.674,268.734C116.674,267.741 116.018,266.749 114.707,265.992C112.084,264.477 107.831,264.477 105.209,265.992C103.897,266.749 103.241,267.741 103.241,268.734L100.579,338.603L100.587,338.603C100.492,340.057 101.396,341.529 103.319,342.639C106.986,344.756 112.93,344.756 116.596,342.639C118.519,341.529 119.423,340.057 119.329,338.603L119.346,338.603L116.674,268.734Z" style="fill:rgb(100,204,197);fill-rule:nonzero;"/>
        <path d="M116.674,268.734C116.674,268.191 116.478,267.648 116.086,267.144C116.478,267.649 116.674,268.192 116.674,268.735" style="fill:rgb(47,60,67);fill-rule:nonzero;"/>
        <path d="M109.958,272.611C109.297,272.611 108.636,272.555 107.999,272.444L107.999,272.439C107.094,272.279 106.236,272.009 105.489,271.628C105.393,271.579 105.3,271.529 105.209,271.476C102.586,269.961 102.586,267.506 105.209,265.992C105.427,265.866 105.656,265.751 105.895,265.646L105.895,268.734L105.897,268.734C105.897,269.334 106.293,269.934 107.086,270.392C107.879,270.85 108.918,271.078 109.958,271.078C110.997,271.078 112.036,270.85 112.829,270.392C113.622,269.934 114.019,269.334 114.019,268.734L114.019,265.645C114.258,265.75 114.488,265.866 114.707,265.992C115.301,266.335 115.761,266.726 116.086,267.144C116.478,267.648 116.674,268.191 116.674,268.734C116.674,269.727 116.018,270.719 114.707,271.476C113.395,272.233 111.677,272.611 109.958,272.611Z" style="fill:rgb(34,186,161);fill-rule:nonzero;"/>
        <path d="M112.829,246.45C111.243,245.534 108.672,245.534 107.086,246.45C106.293,246.908 105.897,247.508 105.897,248.108L105.895,248.108L105.895,268.734L105.897,268.734C105.897,269.334 106.293,269.934 107.086,270.392C108.672,271.307 111.243,271.307 112.829,270.392C113.622,269.934 114.019,269.334 114.019,268.734L114.019,248.108C114.019,247.508 113.622,246.908 112.829,246.45Z" style="fill:rgb(38,50,56);fill-rule:nonzero;"/>
        <path d="M132.035,180.353C132.946,183.453 133.125,186.653 133.125,188.754C133.125,208.173 118.915,232.783 102.095,242.493C99.365,244.064 96.705,245.174 94.225,245.763C93.325,242.663 93.135,239.464 93.135,237.353C93.135,217.933 107.345,193.323 124.165,183.613C126.895,182.044 129.554,180.944 132.035,180.353ZM155.165,195.923C155.155,195.513 155.135,195.113 155.105,194.713C155.085,194.314 155.055,193.924 155.015,193.533C154.995,193.274 154.966,193.013 154.935,192.754C154.865,192.073 154.765,191.404 154.655,190.763C154.605,190.473 154.555,190.173 154.495,189.883C154.445,189.603 154.385,189.334 154.325,189.064C154.155,188.323 153.975,187.603 153.765,186.913C153.656,186.584 153.555,186.254 153.446,185.933L153.395,185.783C153.275,185.463 153.165,185.154 153.045,184.853C152.905,184.504 152.765,184.153 152.605,183.823C152.495,183.573 152.385,183.334 152.255,183.093C152.185,182.913 152.095,182.743 151.995,182.573C151.895,182.363 151.785,182.154 151.665,181.953L151.585,181.814C151.486,181.633 151.375,181.453 151.265,181.274C151.195,181.153 151.115,181.044 151.045,180.933C150.515,180.103 149.946,179.343 149.325,178.643C149.216,178.524 149.105,178.404 149.005,178.283C148.915,178.183 148.825,178.093 148.736,178.004C148.625,177.883 148.505,177.774 148.385,177.653C148.045,177.314 147.705,177.004 147.345,176.723C147.176,176.573 146.995,176.433 146.815,176.303C146.635,176.163 146.455,176.033 146.265,175.904C145.975,175.693 145.675,175.493 145.375,175.323L145.135,175.174L145.085,175.133L145.075,175.133L130.906,166.953L130.884,166.953L130.804,166.903C128.205,165.424 125.205,164.653 121.905,164.653C117.265,164.653 112.025,166.173 106.475,169.373C87.415,180.383 71.955,207.154 71.955,229.174C71.955,240.154 75.795,247.873 82.005,251.493L82.065,251.524L82.065,251.533L96.245,259.703L96.255,259.714L96.315,259.754L96.315,259.744L96.485,259.835C96.755,259.994 97.025,260.133 97.305,260.263C97.645,260.434 97.995,260.585 98.345,260.723C98.655,260.853 98.975,260.973 99.295,261.073C99.465,261.133 99.635,261.184 99.805,261.223C99.985,261.294 100.165,261.344 100.355,261.383C100.545,261.444 100.725,261.484 100.915,261.525C101.055,261.564 101.185,261.594 101.325,261.613C101.565,261.663 101.825,261.714 102.075,261.744L102.245,261.775C102.545,261.823 102.845,261.863 103.145,261.893C108.285,262.434 114.265,260.984 120.665,257.294C139.736,246.283 155.196,219.504 155.196,197.493C155.196,196.964 155.185,196.444 155.165,195.923Z" style="fill:rgb(100,204,197);fill-rule:nonzero;"/>
        <path d="M95.765,259.431L91.48,256.958L95.68,259.378C95.709,259.396 95.737,259.414 95.765,259.431Z" style="fill:rgb(49,64,72);fill-rule:nonzero;"/>
        <path d="M82.065,251.524L82.06,251.521L82.065,251.524Z" style="fill:rgb(33,45,50);fill-rule:nonzero;"/>
        <path d="M72.953,238.159C72.3,235.473 71.953,232.472 71.953,229.178C71.953,226.297 72.218,223.336 72.721,220.339C72.219,223.334 71.955,226.295 71.955,229.174C71.955,232.47 72.301,235.473 72.953,238.159Z" style="fill:rgb(220,220,220);fill-rule:nonzero;"/>
        <path d="M95.68,259.378L91.48,256.958L82.065,251.524L82.06,251.521L82.003,251.488C77.659,248.949 74.475,244.409 72.953,238.159C72.301,235.473 71.955,232.47 71.955,229.174C71.955,226.295 72.219,223.334 72.721,220.339C73.933,213.121 76.526,205.7 80.123,198.718L94.3,206.894C93.934,207.605 93.578,208.321 93.233,209.04C88.776,218.318 86.131,228.242 86.131,237.355C86.131,248.044 89.751,255.639 95.68,259.378Z" style="fill:rgb(100,204,197);fill-rule:nonzero;"/>
        <path d="M105.265,262.003C104.544,262.003 103.837,261.966 103.145,261.893C102.845,261.863 102.545,261.823 102.245,261.775L102.075,261.744C101.825,261.714 101.565,261.663 101.325,261.613C101.185,261.594 101.055,261.564 100.915,261.525C100.725,261.484 100.545,261.444 100.355,261.383C100.165,261.344 99.985,261.294 99.805,261.223C99.635,261.184 99.465,261.133 99.295,261.073C98.975,260.973 98.655,260.853 98.345,260.723C97.995,260.585 97.645,260.434 97.305,260.263C97.025,260.133 96.755,259.994 96.485,259.835C90.095,256.294 86.135,248.504 86.135,237.353C86.135,228.244 88.78,218.323 93.233,209.04C93.578,208.32 93.935,207.606 94.302,206.895L94.3,206.894C100.635,194.601 110.096,183.656 120.665,177.553C126.2,174.357 131.434,172.841 136.074,172.841C139.548,172.841 142.69,173.692 145.375,175.323C145.675,175.493 145.975,175.693 146.265,175.904C146.455,176.033 146.635,176.163 146.815,176.303C146.995,176.433 147.176,176.573 147.345,176.723C147.705,177.004 148.045,177.314 148.385,177.653C148.505,177.774 148.625,177.883 148.736,178.004C148.825,178.093 148.915,178.183 149.005,178.283C149.105,178.404 149.216,178.524 149.325,178.643C149.946,179.343 150.515,180.103 151.045,180.933C151.115,181.044 151.195,181.153 151.265,181.274C151.375,181.453 151.486,181.633 151.585,181.814L151.665,181.953C151.785,182.154 151.895,182.363 151.995,182.573C152.095,182.743 152.185,182.913 152.255,183.093C152.385,183.334 152.495,183.573 152.605,183.823C152.765,184.153 152.905,184.504 153.045,184.853C153.165,185.154 153.275,185.463 153.395,185.783L153.446,185.933C153.555,186.254 153.656,186.584 153.765,186.913C153.975,187.603 154.155,188.323 154.325,189.064C154.385,189.334 154.445,189.603 154.495,189.883C154.555,190.173 154.605,190.473 154.655,190.763C154.765,191.404 154.865,192.073 154.935,192.754C154.966,193.013 154.995,193.274 155.015,193.533C155.055,193.924 155.085,194.314 155.105,194.713C155.135,195.113 155.155,195.513 155.165,195.923C155.185,196.444 155.196,196.964 155.196,197.493C155.196,219.504 139.736,246.283 120.665,257.294C118.39,258.606 116.169,259.634 114.019,260.391C111.17,261.393 108.447,261.919 105.895,261.994C105.684,261.999 105.473,262.003 105.265,262.003ZM94.225,245.763C95.595,250.493 98.635,255.004 105.245,255.004C108.765,255.004 112.885,253.703 117.165,251.234C133.986,241.524 148.185,216.913 148.185,197.493C148.185,192.19 147.017,179.874 136.124,179.843L136.085,179.843C134.805,179.843 133.455,180.013 132.035,180.353C129.554,180.944 126.895,182.044 124.165,183.613C122.451,184.603 120.763,185.748 119.115,187.026C118.768,187.295 118.426,187.568 118.083,187.848C115.224,190.186 112.494,192.919 109.959,195.936C105.221,201.573 101.164,208.198 98.222,215.057C95.017,222.531 93.135,230.285 93.135,237.353C93.135,239.464 93.325,242.663 94.225,245.763Z" style="fill:rgb(142,210,203);fill-rule:nonzero;"/>
        <path d="M93.233,209.04C93.578,208.321 93.934,207.605 94.3,206.894L94.302,206.895C93.935,207.606 93.578,208.32 93.233,209.04Z" style="fill:rgb(133,207,197);fill-rule:nonzero;"/>
        <path d="M105.245,255.004C98.635,255.004 95.595,250.493 94.225,245.763C94.825,247.823 95.735,249.823 97.115,251.444C97.765,251.553 98.465,251.613 99.205,251.613C102.725,251.613 106.845,250.314 111.125,247.843C127.946,238.133 142.145,213.524 142.145,194.103C142.145,190.613 141.635,184.084 138.185,180.013C137.537,179.905 136.859,179.845 136.124,179.843C147.017,179.874 148.185,192.19 148.185,197.493C148.185,216.913 133.986,241.524 117.165,251.234C112.885,253.703 108.765,255.004 105.245,255.004Z" style="fill:rgb(100,204,197);fill-rule:nonzero;"/>
        <path d="M132.035,180.353C133.455,180.013 134.805,179.843 136.085,179.843L136.119,179.843L136.085,179.843C134.805,179.843 133.455,180.013 132.035,180.353Z" style="fill:rgb(62,189,167);fill-rule:nonzero;"/>
        <path d="M94.225,245.763C93.325,242.663 93.135,239.464 93.135,237.353C93.135,230.285 95.017,222.531 98.222,215.057L98.222,244.431C96.851,245.01 95.514,245.457 94.225,245.763Z" style="fill:rgb(195,199,201);fill-rule:nonzero;"/>
        <path d="M98.222,244.431L98.222,215.057C101.164,208.198 105.221,201.573 109.959,195.936L109.959,236.737C107.437,238.986 104.801,240.932 102.095,242.493C100.784,243.248 99.489,243.896 98.222,244.431Z" style="fill:white;fill-rule:nonzero;"/>
        <path d="M109.959,236.737L109.959,195.936C112.494,192.919 115.224,190.186 118.083,187.848C118.082,187.875 118.081,187.902 118.081,187.929L118.081,198.999C118.081,199.829 118.661,200.839 119.381,201.249L120.841,202.09C120.931,202.139 121.031,202.189 121.131,202.229C121.434,202.348 121.78,202.406 122.125,202.406C122.303,202.406 122.48,202.39 122.651,202.36C122.821,202.329 122.991,202.289 123.141,202.229C123.044,202.258 122.952,202.272 122.865,202.272C122.952,202.272 123.044,202.258 123.141,202.229L123.201,202.21L123.441,202.09L132.361,196.941C132.203,197.826 132.021,198.714 131.817,199.605L119.381,206.786C119.021,206.996 118.701,207.346 118.461,207.757L122.521,210.096C122.761,209.696 123.081,209.336 123.441,209.127L130.256,205.194L123.441,209.127C123.081,209.336 122.761,209.696 122.521,210.096L118.461,207.757C118.231,208.166 118.081,208.616 118.081,209.036L118.081,220.106C118.081,220.936 118.661,221.947 119.381,222.356L120.841,223.196C120.931,223.246 121.031,223.297 121.131,223.336C121.202,223.364 121.275,223.388 121.35,223.409C118.021,228.429 114.149,233.001 109.959,236.737ZM122.863,202.272L122.862,202.272L122.863,202.272Z" style="fill:rgb(248,248,249);fill-rule:nonzero;"/>
        <path d="M122.521,188.989L119.115,187.026C120.763,185.748 122.451,184.603 124.165,183.613C126.895,182.044 129.554,180.944 132.035,180.353C132.268,181.147 132.453,181.947 132.6,182.733L123.441,188.019C123.081,188.229 122.761,188.59 122.521,188.989Z" style="fill:rgb(250,251,252);fill-rule:nonzero;"/>
        <path d="M122.865,202.272L122.862,202.272C122.433,202.271 122.143,201.932 122.141,201.346L122.141,190.269C122.141,189.849 122.281,189.4 122.521,188.989C122.761,188.59 123.081,188.229 123.441,188.019L132.6,182.733C133.026,185.019 133.125,187.191 133.125,188.754C133.125,191.403 132.86,194.15 132.361,196.941L123.441,202.09L123.201,202.21L123.141,202.229C123.044,202.258 122.952,202.272 122.865,202.272Z" style="fill:white;fill-rule:nonzero;"/>
        <path d="M122.125,202.406C121.78,202.406 121.434,202.348 121.131,202.229C121.031,202.189 120.931,202.139 120.841,202.09L119.381,201.249C118.661,200.839 118.081,199.829 118.081,198.999L118.081,187.929C118.081,187.902 118.082,187.875 118.083,187.848C118.426,187.568 118.768,187.295 119.115,187.026L122.521,188.989C122.281,189.4 122.141,189.849 122.141,190.269L122.141,201.346C122.143,201.932 122.433,202.271 122.862,202.272L122.865,202.272C122.952,202.272 123.044,202.258 123.141,202.229C122.991,202.289 122.821,202.329 122.651,202.36C122.48,202.39 122.303,202.406 122.125,202.406Z" style="fill:rgb(248,248,249);fill-rule:nonzero;"/>
        <path d="M122.521,210.096L118.461,207.757C118.701,207.346 119.021,206.996 119.381,206.786L131.817,199.605C131.391,201.461 130.868,203.327 130.256,205.194L123.441,209.127C123.081,209.336 122.761,209.696 122.521,210.096Z" style="fill:rgb(250,251,252);fill-rule:nonzero;"/>
        <path d="M122.141,222.193L122.141,211.377C122.141,210.956 122.281,210.507 122.521,210.096C122.761,209.696 123.081,209.336 123.441,209.127L130.256,205.194C128.34,211.027 125.55,216.841 122.141,222.193Z" style="fill:white;fill-rule:nonzero;"/>
        <path d="M121.35,223.409C121.275,223.388 121.202,223.364 121.131,223.336C121.031,223.297 120.931,223.246 120.841,223.196L119.381,222.356C118.661,221.947 118.081,220.936 118.081,220.106L118.081,209.036C118.081,208.616 118.231,208.166 118.461,207.757L122.521,210.096C122.281,210.507 122.141,210.956 122.141,211.377L122.141,222.193C121.881,222.601 121.617,223.007 121.35,223.409Z" style="fill:rgb(248,248,249);fill-rule:nonzero;"/>
        <path d="M136.124,179.843L136.119,179.843L136.124,179.843Z" style="fill:rgb(219,240,239);fill-rule:nonzero;"/>
        <path d="M99.205,251.613C98.465,251.613 97.765,251.553 97.115,251.444C95.735,249.823 94.825,247.823 94.225,245.763C96.705,245.174 99.365,244.064 102.095,242.493C118.915,232.783 133.125,208.173 133.125,188.754C133.125,187.191 133.026,185.019 132.6,182.733C132.453,181.947 132.268,181.147 132.035,180.353C133.455,180.013 134.805,179.843 136.085,179.843L136.124,179.843C136.859,179.845 137.537,179.905 138.185,180.013C141.635,184.084 142.145,190.613 142.145,194.103C142.145,213.524 127.946,238.133 111.125,247.843C106.845,250.314 102.725,251.613 99.205,251.613Z" style="fill:rgb(193,229,225);fill-rule:nonzero;"/>
        <path d="M100.579,338.598L102.649,284.257L102.65,284.256L100.579,338.598Z" style="fill:rgb(220,220,220);fill-rule:nonzero;"/>
        <path d="M102.649,284.257L103.24,268.738L103.24,268.775L102.65,284.256L102.649,284.257Z" style="fill:rgb(49,64,72);fill-rule:nonzero;"/>
        <path d="M106.209,343.769C105.169,343.499 104.179,343.138 103.319,342.638C101.399,341.528 100.489,340.059 100.59,338.598L100.579,338.598L102.65,284.256L103.24,268.775C103.256,269.762 103.915,270.728 105.209,271.478C105.3,271.53 105.394,271.58 105.489,271.628C106.235,272.013 107.093,272.285 107.999,272.444L106.209,343.769Z" style="fill:rgb(62,201,185);fill-rule:nonzero;"/>
        <path d="M107.999,272.444C107.093,272.285 106.235,272.013 105.489,271.628C106.236,272.009 107.094,272.279 107.999,272.439L107.999,272.444Z" style="fill:rgb(28,170,147);fill-rule:nonzero;"/>
        <path d="M373.134,202.413C373.079,201.646 371.642,193.455 370.652,188.874L361.024,191.825L362.734,200.254L370.848,206.764C373.389,206.26 373.189,203.18 373.134,202.413Z" style="fill:rgb(247,167,168);fill-rule:nonzero;"/>
        <path d="M347.975,161.17L350.025,161.17C357.945,161.17 364.366,154.749 364.366,146.828C364.366,138.342 357.487,131.462 349,131.462C340.513,131.462 333.633,138.342 333.633,146.829C333.633,154.749 340.054,161.17 347.975,161.17Z" style="fill:rgb(38,50,56);fill-rule:nonzero;"/>
        <path d="M326.565,185.145L322.013,193.489L329.093,199.558L335.578,189.276L326.565,185.145Z" style="fill:rgb(244,144,143);fill-rule:nonzero;"/>
        <path d="M343.642,166.548C339.128,166.594 334.157,168.235 332.447,171.775C330.737,175.315 325.39,186.338 325.39,186.338C325.39,186.338 329.38,192.179 335.708,191.767L343.642,166.548Z" style="fill:rgb(88,194,177);fill-rule:nonzero;"/>
        <path d="M333.349,191.537L331.009,190.921C327.471,189.383 325.39,186.338 325.39,186.338C325.39,186.338 330.737,175.315 332.447,171.775C334.157,168.235 339.128,166.594 343.642,166.548L343.634,166.572C337.895,166.989 334.955,172.894 333.359,179.168C332.633,182.023 333.014,186.799 333.349,191.537Z" style="fill:rgb(23,107,135);fill-rule:nonzero;"/>
        <path d="M358.87,314.861L358.87,313.872C358.481,315.031 356.674,320.02 353.933,322.52C351.754,324.508 348.781,326.803 348.026,329.019C347.238,331.323 352.161,332.098 354.197,331.737C356.563,331.319 359.623,329.976 361.289,327.93C362.46,326.491 363.206,324.785 364.042,323.654C364.879,322.522 366.807,321.258 367.259,319.949C367.507,319.23 367.212,317.654 366.863,316.322C366.543,315.101 366.196,313.758 365.779,313.872C365.778,314.021 365.779,314.626 365.779,314.626C365.278,315.181 363.89,315.733 362.325,315.793C361.315,315.832 358.862,315.632 358.87,314.861Z" style="fill:rgb(38,50,56);fill-rule:nonzero;"/>
        <path d="M351.96,324.269C352.636,323.665 353.316,323.076 353.933,322.513C355.848,320.766 357.308,317.804 358.146,315.782C358.625,314.629 358.871,313.397 358.871,312.147L358.871,308.21L365.779,308.21L365.779,314.791L365.744,314.808C365.412,316.244 362.241,320.063 360.441,322.552C359.234,324.222 356.939,326.345 354.197,326.711C351.6,327.058 350.272,326.238 351.96,324.269Z" style="fill:rgb(247,167,168);fill-rule:nonzero;"/>
        <path d="M333.198,308.2L333.198,307.212C332.809,308.371 331.001,313.359 328.261,315.86C326.081,317.847 323.109,320.143 322.353,322.359C321.567,324.663 326.489,325.437 328.526,325.077C330.891,324.658 333.951,323.316 335.617,321.269C336.788,319.83 337.534,318.124 338.37,316.993C339.206,315.861 341.135,314.598 341.587,313.288C341.835,312.569 341.54,310.993 341.192,309.662C340.871,308.44 340.524,307.097 340.107,307.212C340.106,307.361 340.107,307.965 340.107,307.965C339.606,308.521 338.218,309.072 336.653,309.133C335.642,309.171 333.191,308.971 333.198,308.2Z" style="fill:rgb(38,50,56);fill-rule:nonzero;"/>
        <path d="M326.288,317.608C326.964,317.005 327.644,316.415 328.261,315.853C330.176,314.106 331.635,311.143 332.474,309.122C332.952,307.968 333.198,306.736 333.198,305.487L333.198,301.549L340.107,301.549L340.107,308.13L340.072,308.148C339.739,309.583 336.57,313.402 334.768,315.891C333.561,317.561 331.267,319.684 328.526,320.05C325.928,320.397 324.6,319.578 326.288,317.608Z" style="fill:rgb(247,167,168);fill-rule:nonzero;"/>
        <path d="M364.404,207.499C369.76,219.196 364.211,260.401 364.211,260.401C364.372,262.3 366.542,266.035 367.351,274.389C368.307,284.261 365.852,309.048 365.852,309.048C365.852,309.048 362.653,311.139 358.87,309.325C358.87,309.325 352.287,271.994 351.049,262.18C349.968,253.614 347.895,233.481 347.895,233.481L342,262.134C342,262.134 343.52,267.343 343.633,272.226C343.768,278.025 340.246,303.46 340.246,303.46C339.571,304.761 334.421,305.073 333.069,303.486C333.069,303.486 330.03,267.771 329.425,260.823C329.063,256.673 333.793,205.787 333.793,205.787L364.404,207.499Z" style="fill:rgb(55,71,79);fill-rule:nonzero;"/>
        <path d="M347.895,233.481L346.155,223.916C346.155,223.916 338.8,222.392 335.463,219.256C335.463,219.256 338.963,223.609 344.162,225.035L346.115,233.4L342.701,258.727L347.895,233.481Z" style="fill:rgb(38,50,56);fill-rule:nonzero;"/>
        <path d="M354.957,166.861C359.046,167.844 362.305,170.649 364.024,174.276C365.331,177.036 365.346,180.238 364.348,183.125L359.563,196.967C359.563,196.967 361.804,202.382 364.404,207.499C352.397,214.2 337.404,210.677 333.793,205.787C333.64,204.75 333.848,200.074 333.557,194.754C333.246,189.081 332.467,182.675 333.359,179.168C335.015,172.659 338.116,166.548 344.29,166.548L354.957,166.861Z" style="fill:rgb(23,107,135);fill-rule:nonzero;"/>
        <path d="M354.957,166.861C359.055,167.44 365.435,168.252 368.252,178.211C370.999,187.922 371.642,191.309 371.642,191.309C371.642,191.309 368.279,195.222 361.481,195.19L359.366,187.706L354.957,166.861Z" style="fill:rgb(23,107,135);fill-rule:nonzero;"/>
        <path d="M339.37,139.24C337.747,140.199 335.741,144.282 335.939,152.84C336.107,160.093 338.458,161.885 339.638,162.402C340.819,162.918 343.096,162.604 345.309,162.235L345.309,166.588C345.309,166.588 342.25,170.141 342.443,172.137C342.635,174.133 346.86,174.605 349.722,172.655C352.585,170.705 354.42,167.737 354.42,167.737L354.42,157.215C354.42,157.215 355.914,159.21 358.359,157.587C360.803,155.964 360.896,151.946 359.475,150.504C358.054,149.062 354.99,149.518 354.42,151.511C354.42,151.511 350.89,151.64 346.19,149.058C341.488,146.476 339.683,142.053 339.37,139.24Z" style="fill:rgb(247,167,168);fill-rule:nonzero;"/>
        <path d="M344.037,151.018C344.011,151.541 344.398,151.984 344.901,152.008C345.404,152.031 345.833,151.627 345.86,151.104C345.885,150.582 345.499,150.139 344.995,150.115C344.492,150.091 344.064,150.495 344.037,151.018Z" style="fill:rgb(38,50,56);fill-rule:nonzero;"/>
        <path d="M343.794,157.166L341.675,157.842C341.851,158.448 342.468,158.789 343.053,158.602C343.638,158.416 343.97,157.773 343.794,157.166Z" style="fill:rgb(244,144,143);fill-rule:nonzero;"/>
        <path d="M336.559,148.217L338.404,146.938C338.068,146.411 337.381,146.27 336.871,146.624C336.362,146.977 336.222,147.69 336.559,148.217Z" style="fill:rgb(38,50,56);fill-rule:nonzero;"/>
        <path d="M336.985,150.359C336.958,150.881 337.345,151.324 337.848,151.348C338.351,151.372 338.779,150.967 338.806,150.445C338.832,149.922 338.445,149.479 337.943,149.455C337.44,149.431 337.01,149.836 336.985,150.359Z" style="fill:rgb(38,50,56);fill-rule:nonzero;"/>
        <path d="M341.287,149.836L341.142,155.327L338.252,154.432L341.287,149.836Z" style="fill:rgb(244,144,143);fill-rule:nonzero;"/>
        <path d="M345.309,162.235C347.642,161.929 352.441,160.55 353.189,158.653C353.189,158.653 352.94,159.845 351.506,161.074C350.072,162.303 345.309,163.687 345.309,163.687L345.309,162.235Z" style="fill:rgb(244,144,143);fill-rule:nonzero;"/>
        <path d="M360.646,193.835L360.645,193.835L360.894,193.115L360.895,193.115L360.646,193.835Z" style="fill:rgb(229,229,229);fill-rule:nonzero;"/>
        <path d="M360.645,193.835C359.052,190.797 358.668,185.145 358.668,185.145C358.937,186.292 359.276,187.485 359.612,188.577L360.894,193.115L360.645,193.835Z" style="fill:rgb(62,189,167);fill-rule:nonzero;"/>
        <path d="M360.895,193.115L360.894,193.115L359.612,188.577C360.324,190.887 361.024,192.742 361.024,192.742L360.895,193.115Z" style="fill:rgb(62,189,167);fill-rule:nonzero;"/>
        <path d="M307.133,184.633L333.613,191.607L341.43,224.47L316.254,217.158L307.133,184.633Z" style="fill:rgb(224,225,224);fill-rule:nonzero;"/>
        <path d="M314.242,208.774C314.131,208.774 314.017,208.771 313.901,208.765L313.52,207.406L318.678,206.378C318.442,207.024 317.091,208.774 314.242,208.774Z" style="fill:rgb(201,201,201);fill-rule:nonzero;"/>
        <path d="M335.097,211.624C333.362,211.624 331.241,211.48 329.558,210.919C326.514,209.904 324.713,208.282 324.596,207.406L337.86,209.828L338.336,211.463C338.336,211.463 336.932,211.624 335.097,211.624Z" style="fill:rgb(201,201,201);fill-rule:nonzero;"/>
        <path d="M326.166,192.317L314.886,189.391C314.886,189.391 314.788,188.939 314.667,188.381C314.605,188.092 314.992,187.947 315.661,187.947C316.285,187.947 317.155,188.073 318.138,188.328L322.04,189.34C324.077,189.868 325.827,190.749 325.947,191.306L326.166,192.317Z" style="fill:rgb(201,201,201);fill-rule:nonzero;"/>
        <path d="M313.05,185.581C312.974,185.233 313.603,185.141 314.456,185.377L316.001,185.804C316.001,185.804 315.541,183.62 318.969,184.383C322.398,185.147 323.147,187.627 323.147,187.627C323.147,187.627 323.885,187.837 324.796,188.095C325.707,188.354 326.533,188.845 326.641,189.192L326.836,189.82L313.195,186.229C313.195,186.229 313.127,185.93 313.05,185.581Z" style="fill:rgb(55,71,79);fill-rule:nonzero;"/>
        <path d="M314.929,186.672C316.179,186.974 316.698,187.14 316.885,188C317.098,188.982 317.185,189.702 317.185,189.702L323.223,191.298C323.223,191.298 322.931,190.054 322.837,189.57C322.744,189.085 322.949,188.793 323.91,189.047L323.991,188.662L314.531,186.254L314.929,186.672Z" style="fill:rgb(55,71,79);fill-rule:nonzero;"/>
        <path d="M314.721,189.487C314.721,189.487 314.623,189.034 314.503,188.476C314.382,187.919 315.936,187.895 317.974,188.423L321.875,189.435C323.912,189.963 325.662,190.844 325.783,191.402L326.001,192.412L314.721,189.487Z" style="fill:rgb(55,71,79);fill-rule:nonzero;"/>
        <path d="M370.848,206.764L362.735,200.254C362.735,200.254 344.807,203.447 342.7,203.612C340.594,203.779 338.254,202.291 337.45,200.222C336.648,198.154 335.233,198.412 335.233,198.412C335.233,198.412 335.857,201.033 336.056,201.87C336.254,202.707 331.205,203.394 328.405,202.446C325.606,201.498 321.552,202.875 324.063,206.688C326.573,210.501 331.456,210.941 334.849,210.943C335.787,210.944 337.453,210.873 339.09,210.66C340.188,210.517 341.279,210.406 342.384,210.328C349.326,209.833 367.692,207.755 370.848,206.764Z" style="fill:rgb(247,167,168);fill-rule:nonzero;"/>
        <path d="M309.827,194.24C309.827,194.24 310.777,197.623 311.002,198.431C311.229,199.238 314.308,200.705 316.254,201.239C318.2,201.774 320.329,202.408 319.408,205.13C318.559,207.639 315.357,208.212 313.726,208.141C312.095,208.07 309.862,206.511 308.983,203.999C307.861,200.794 308.465,197.371 308.02,195.499C307.574,193.628 308.852,193.124 309.827,194.24Z" style="fill:rgb(247,167,168);fill-rule:nonzero;"/>
        <path d="M372.78,172.703C367.456,172.703 363.14,168.387 363.14,163.063L363.14,140.436C368.464,140.436 372.78,144.752 372.78,150.076L372.78,172.703Z" style="fill:rgb(38,50,56);fill-rule:nonzero;"/>
        <path d="M362.833,141.229L366.834,139.082C366.267,137.935 364.91,137.487 363.806,138.08C362.701,138.673 362.266,140.083 362.833,141.229Z" style="fill:rgb(38,50,56);fill-rule:nonzero;"/>
    </g>
</svg>
