<?xml version="1.0" encoding="UTF-8" standalone="no"?>
<!DOCTYPE svg PUBLIC "-//W3C//DTD SVG 1.1//EN" "http://www.w3.org/Graphics/SVG/1.1/DTD/svg11.dtd">
<svg width="100%" height="100%" viewBox="0 0 512 512" version="1.1" xmlns="http://www.w3.org/2000/svg" xmlns:xlink="http://www.w3.org/1999/xlink" xml:space="preserve" xmlns:serif="http://www.serif.com/" style="fill-rule:evenodd;clip-rule:evenodd;stroke-linejoin:round;stroke-miterlimit:2;">
    <g>
        <g>
            <path d="M507,188.13L507,187.95C501.4,154.89 473.06,125.51 441.08,119.62L440.89,119.62C423,116.49 276.11,114.34 256,114.32C235.89,114.3 89,116.49 71.17,119.58L70.98,119.58C39,125.51 10.64,154.89 5,188L5,188.18C1.555,210.62 -0.117,233.297 0,256C-0.12,278.713 1.552,301.4 5,323.85L5,324.03C10.64,357.11 39,386.49 71,392.38L71.19,392.38C89,395.51 235.89,397.66 256,397.68C276.11,397.7 423,395.51 440.83,392.42L441.02,392.42C473.02,386.53 501.34,357.15 506.94,324.09L506.94,323.91C510.41,301.442 512.101,278.734 512,256C512.119,233.28 510.448,210.587 507,188.13Z" style="fill:rgb(21,151,125);fill-rule:nonzero;"/>
            <path d="M71.15,119.58L70.96,119.58C39,125.51 10.64,154.89 5,188L5,188.18C1.795,208.858 0.124,229.745 -0,250.67L0,261.47C0.124,282.381 1.795,303.255 5,323.92L5,324.1C10.64,357.11 39,386.49 71,392.38L71.19,392.38C80.46,393.99 124.56,395.38 167.62,396.27C298.8,374 398.71,259.74 398.71,122.16L398.71,117.16C348.16,115.43 270.29,114.35 256.03,114.34C235.88,114.34 89,116.49 71.15,119.58Z" style="fill:rgb(55,162,118);fill-rule:nonzero;"/>
            <path d="M175.23,234.4L161.61,282.21C159.519,289.43 152.876,294.445 145.36,294.48L144.49,294.48C137.709,294.489 131.553,290.409 128.92,284.16L115,251.24L101.29,284.09C98.675,290.376 92.499,294.49 85.69,294.48L84.75,294.48C77.222,294.446 70.571,289.415 68.49,282.18L55,234.38C54.667,233.206 54.499,231.991 54.499,230.77C54.499,223.501 60.48,217.52 67.749,217.52C67.756,217.52 67.763,217.52 67.77,217.52C73.745,217.53 79.013,221.571 80.57,227.34L88.11,255.41L99.45,228C102.062,221.707 108.236,217.584 115.05,217.584C121.864,217.584 128.038,221.707 130.65,228L142.14,255.55L149.69,227.43C151.236,221.654 156.51,217.606 162.489,217.606C166.645,217.606 170.568,219.561 173.07,222.88C175.554,226.167 176.355,230.437 175.23,234.4ZM303.3,234.4L289.68,282.21C287.589,289.43 280.946,294.445 273.43,294.48L272.55,294.48C265.775,294.484 259.628,290.404 257,284.16L243.08,251.24L229.36,284.09C226.75,290.377 220.577,294.491 213.77,294.48L212.82,294.48C205.292,294.446 198.641,289.415 196.56,282.18L183,234.38C182.624,233.136 182.433,231.844 182.433,230.544C182.433,223.27 188.419,217.284 195.693,217.284C201.777,217.284 207.118,221.472 208.57,227.38L216.11,255.45L227.51,228C230.126,221.709 236.301,217.588 243.115,217.588C249.929,217.588 256.104,221.709 258.72,228L270.21,255.55L277.76,227.43C279.314,221.659 284.584,217.616 290.56,217.61C297.819,217.633 303.779,223.611 303.779,230.87C303.779,232.063 303.618,233.25 303.3,234.4ZM417.57,282.21C415.479,289.43 408.836,294.445 401.32,294.48L400.44,294.48C393.662,294.488 387.509,290.408 384.88,284.16L371,251.24L357.28,284.09C354.67,290.377 348.497,294.491 341.69,294.48L340.74,294.48C333.212,294.446 326.561,289.415 324.48,282.18L310.95,234.38C310.574,233.136 310.383,231.844 310.383,230.544C310.383,223.27 316.369,217.284 323.643,217.284C329.727,217.284 335.068,221.472 336.52,227.38L344,255.41L355.4,228C358.016,221.709 364.191,217.588 371.005,217.588C377.819,217.588 383.994,221.709 386.61,228L398.1,255.55L405.65,227.43C407.204,221.659 412.474,217.616 418.45,217.61C425.718,217.619 431.694,223.602 431.694,230.87C431.694,232.094 431.524,233.312 431.19,234.49L417.57,282.21ZM446.57,291.56C438.396,291.56 431.67,284.834 431.67,276.66C431.67,268.486 438.396,261.76 446.57,261.76C454.744,261.76 461.47,268.486 461.47,276.66C461.47,284.83 454.75,291.555 446.58,291.56L446.57,291.56Z" style="fill:rgb(173,227,151);fill-rule:nonzero;"/>
        </g>
    </g>
</svg>
