<svg xmlns="http://www.w3.org/2000/svg" version="1.1" xmlns:xlink="http://www.w3.org/1999/xlink" width="512" height="512" x="0" y="0" viewBox="0 0 512 512" style="enable-background:new 0 0 512 512" xml:space="preserve" class=""><g><g data-name="Layer 9"><path fill="#12566d" d="M507 188.13v-.18c-5.6-33.06-33.94-62.44-65.92-68.33h-.19c-17.89-3.13-164.78-5.28-184.89-5.3s-167 2.17-184.83 5.26h-.19C39 125.51 10.64 154.89 5 188v.18A432.34 432.34 0 0 0 0 256a431.91 431.91 0 0 0 5 67.85v.18c5.64 33.08 34 62.46 66 68.35h.19c17.81 3.13 164.7 5.28 184.81 5.3s167-2.17 184.83-5.26h.19c32-5.89 60.32-35.27 65.92-68.33v-.18A432.34 432.34 0 0 0 512 256a432.28 432.28 0 0 0-5-67.87z" opacity="1" data-original="#72337f" class=""></path><path fill="#176b87" d="M71.15 119.58h-.19C39 125.51 10.64 154.89 5 188v.18a424.5 424.5 0 0 0-5 62.49v10.8a423.94 423.94 0 0 0 5 62.45v.18c5.64 33.01 34 62.39 66 68.28h.19c9.27 1.61 53.37 3 96.43 3.89C298.8 374 398.71 259.74 398.71 122.16v-5c-50.55-1.73-128.42-2.81-142.68-2.82-20.15 0-167.03 2.15-184.88 5.24z" opacity="1" data-original="#88438c" class=""></path><path fill="#ffffff" d="m175.23 234.4-13.62 47.81a17 17 0 0 1-16.25 12.27h-.87a16.87 16.87 0 0 1-15.57-10.32L115 251.24l-13.71 32.85a16.87 16.87 0 0 1-15.6 10.39h-.94a17 17 0 0 1-16.26-12.3L55 234.38a13.25 13.25 0 0 1 12.77-16.86 13.28 13.28 0 0 1 12.8 9.82l7.54 28.07L99.45 228a16.89 16.89 0 0 1 31.2 0l11.49 27.55 7.55-28.12a13.25 13.25 0 0 1 23.38-4.55 13.15 13.15 0 0 1 2.16 11.52zm128.07 0-13.62 47.81a17 17 0 0 1-16.25 12.27h-.88A16.86 16.86 0 0 1 257 284.16l-13.92-32.92-13.72 32.85a16.85 16.85 0 0 1-15.59 10.39h-.95a17 17 0 0 1-16.26-12.3L183 234.38a13.26 13.26 0 1 1 25.57-7l7.54 28.07 11.4-27.45a16.9 16.9 0 0 1 31.21 0l11.49 27.55 7.55-28.12a13.27 13.27 0 0 1 12.8-9.82 13.26 13.26 0 0 1 12.74 16.79zm114.27 47.81a17 17 0 0 1-16.25 12.27h-.88a16.86 16.86 0 0 1-15.56-10.32L371 251.24l-13.72 32.85a16.85 16.85 0 0 1-15.59 10.39h-.95a17 17 0 0 1-16.26-12.3l-13.53-47.8a13.26 13.26 0 1 1 25.57-7l7.48 28.03L355.4 228a16.9 16.9 0 0 1 31.21 0l11.49 27.55 7.55-28.12a13.27 13.27 0 0 1 12.8-9.82 13.26 13.26 0 0 1 12.74 16.88zm29 9.35a14.9 14.9 0 1 1 14.9-14.9 14.9 14.9 0 0 1-14.89 14.9z" opacity="1" data-original="#ffffff" class=""></path></g></g></svg>