<svg id="Icons" height="512" viewBox="0 0 60 60" width="512" xmlns="http://www.w3.org/2000/svg"><path d="m41 44c0 3.87-8.95 7-20 7s-20-3.13-20-7v-36h40z" fill="#265c6d"/><g fill="#35718a"><ellipse cx="21" cy="8" rx="20" ry="7"/><path d="m41 32c0 3.87-8.95 7-20 7s-20-3.13-20-7v-12c0 3.866 8.954 7 20 7s20-3.134 20-7z"/><path d="m59 52c0 3.87-8.95 7-20 7s-20-3.13-20-7v-36h40z"/></g><ellipse cx="39" cy="16" fill="#4184a9" rx="20" ry="7"/><path d="m59 40c0 3.87-8.95 7-20 7s-20-3.13-20-7v-12c0 3.866 8.954 7 20 7s20-3.134 20-7z" fill="#4184a9"/><path d="m6 19.631a1 1 0 0 1 -.369-.071q-.55-.219-1.054-.453a1 1 0 0 1 .846-1.813q.45.211.946.407a1 1 0 0 1 -.369 1.93z" fill="#fde05e"/><path d="m11 21.063a.967.967 0 0 1 -.2-.02q-.524-.105-1.026-.221a1 1 0 1 1 .448-1.949c.319.073.643.143.974.21a1 1 0 0 1 -.2 1.98z" fill="#69e6c3"/><path d="m24 27.631a1 1 0 0 1 -.369-.071q-.55-.219-1.054-.453a1 1 0 0 1 .846-1.813q.45.211.946.407a1 1 0 0 1 -.369 1.93z" fill="#fde05e"/><path d="m29 29.063a.967.967 0 0 1 -.2-.02q-.523-.105-1.026-.221a1 1 0 1 1 .448-1.949c.319.073.643.143.974.21a1 1 0 0 1 -.2 1.98z" fill="#69e6c3"/></svg>