<svg id="Layer_1" height="512" viewBox="0 0 512 512" width="512" xmlns="http://www.w3.org/2000/svg" data-name="Layer 1"><path d="m493.5 85.2969v267.1875h-475v-267.1875a14.8874 14.8874 0 0 1 14.8438-14.8438h445.3125a14.8873 14.8873 0 0 1 14.8437 14.8438z" fill="#8687c9"/><path d="m33.344 85.297h445.313v252.344h-445.313z" fill="#5adcff"/><path d="m478.6563 330.2188v7.4218h-445.3125v-252.3437h7.4218v230.0781a14.8438 14.8438 0 0 0 14.8438 14.8438z" fill="#27d1ff"/><path d="m307.9531 463.8125h-103.9062c0-14.8437 7.4219-14.8437 7.4219-30.8919v-28.4831h89.0625v28.4831c0 16.0482 7.4218 16.0482 7.4218 30.8919z" fill="#f6f6f6"/><path d="m493.5 352.4844v37.1094a14.8876 14.8876 0 0 1 -14.8437 14.8437h-445.3125a14.8877 14.8877 0 0 1 -14.8438-14.8437v-37.1094z" fill="#f6f6f6"/><path d="m40.7656 70.4531a14.8873 14.8873 0 0 0 -14.8437 14.8438v267.1875h-7.4219v-267.1875a14.8874 14.8874 0 0 1 14.8438-14.8438z" fill="#6364b9"/><path d="m40.7656 404.4375h-7.4218a14.8877 14.8877 0 0 1 -14.8438-14.8437v-37.1094h7.4219v37.1094a14.8876 14.8876 0 0 0 14.8437 14.8437z" fill="#ddd"/><path d="m352.4844 493.5h-192.9688l4.611-18.4439a14.8438 14.8438 0 0 1 14.4-11.2436h154.9463a14.8438 14.8438 0 0 1 14.4005 11.2436z" fill="#8687c9"/><path d="m40.766 371.039h14.844v14.844h-14.844z" fill="#b3b3b3"/><path d="m70.453 371.039h14.844v14.844h-14.844z" fill="#b3b3b3"/><path d="m100.141 371.039h14.844v14.844h-14.844z" fill="#b3b3b3"/><path d="m347.0666 472.57c-4.3293-2.078.0029-1.3359-161.1291-1.3359a14.781 14.781 0 0 0 -14.3985 11.2071l-2.746 11.0588h-9.2774l4.6016-18.48a14.7808 14.7808 0 0 1 14.3984-11.2071h154.9688a14.8818 14.8818 0 0 1 13.5822 8.7571z" fill="#6364b9"/><path d="m48.188 100.141h415.625v222.656h-415.625z" fill="#5adcff"/><path d="m270.844 48.188h44.531v192.969h-44.531z" fill="#ffb05e"/><path d="m270.844 241.156 22.265 51.953 22.266-51.953z" fill="#8687c9"/><path d="m285.688 63.031h14.844v163.281h-14.844z" fill="#fd9b3a"/><path d="m285.6875 18.5h14.8438a14.8438 14.8438 0 0 1 14.8437 14.8438v14.8437a0 0 0 0 1 0 0h-44.5313a0 0 0 0 1 0 0v-14.8438a14.8437 14.8437 0 0 1 14.8438-14.8437z" fill="#8687c9"/><path d="m270.844 48.188h7.422v192.969h-7.422z" fill="#ff972b"/><path d="m296.82 284.425-3.711 8.684-22.265-51.953h7.422z" fill="#6364b9"/><path d="m285.688 63.031h7.422v163.281h-7.422z" fill="#fc8108"/><path d="m293.1094 18.5a14.8874 14.8874 0 0 0 -14.8438 14.8438v14.8437h-7.4218v-14.8437a14.8873 14.8873 0 0 1 14.8437-14.8438z" fill="#6364b9"/><path d="m181.781 18.5h59.375v274.609h-59.375z" fill="#f6f6f6"/><path d="m181.781 18.5h7.422v274.609h-7.422z" fill="#ddd"/><path d="m218.891 44.477h22.266v14.844h-22.266z" fill="#cdcdcd"/><path d="m211.469 74.164h29.688v14.844h-29.688z" fill="#cdcdcd"/><path d="m218.891 103.852h22.266v14.844h-22.266z" fill="#cdcdcd"/><path d="m211.469 133.539h29.688v14.844h-29.688z" fill="#cdcdcd"/><path d="m218.891 163.227h22.266v14.844h-22.266z" fill="#cdcdcd"/><path d="m211.469 192.914h29.688v14.844h-29.688z" fill="#cdcdcd"/><path d="m218.891 222.602h22.266v14.844h-22.266z" fill="#cdcdcd"/><path d="m211.469 252.289h29.688v14.844h-29.688z" fill="#cdcdcd"/><g fill="#b3b3b3"><path d="m233.734 44.477h7.422v14.844h-7.422z"/><path d="m233.734 74.164h7.422v14.844h-7.422z"/><path d="m233.734 103.852h7.422v14.844h-7.422z"/><path d="m233.734 133.539h7.422v14.844h-7.422z"/><path d="m233.734 163.227h7.422v14.844h-7.422z"/><path d="m233.734 192.914h7.422v14.844h-7.422z"/><path d="m233.734 222.602h7.422v14.844h-7.422z"/><path d="m233.734 252.289h7.422v14.844h-7.422z"/></g><path d="m337.641 122.406h103.906v51.953h-103.906z" fill="#f6f6f6" transform="matrix(-1 0 0 -1 779.188 296.766)"/><path d="m337.641 189.203h103.906v51.953h-103.906z" fill="#f6f6f6" transform="matrix(-1 0 0 -1 779.188 430.359)"/><path d="m337.641 122.406h7.422v51.953h-7.422z" fill="#ddd"/><path d="m337.641 189.203h7.422v51.953h-7.422z" fill="#ddd"/><path d="m367.328 256h74.219v14.844h-74.219z" fill="#8687c9"/><path d="m367.328 285.688h74.219v14.844h-74.219z" fill="#8687c9"/><path d="m77.875 129.828h103.906v163.281h-103.906z" fill="#ffb05e"/><path d="m77.875 129.828h7.422v163.281h-7.422z" fill="#ff972b"/><path d="m337.641 256h14.844v14.844h-14.844z" fill="#8687c9"/><path d="m337.641 285.688h14.844v14.844h-14.844z" fill="#8687c9"/><path d="m107.563 159.516h44.531v37.109h-44.531z" fill="#8687c9"/><path d="m107.563 226.313h44.531v37.109h-44.531z" fill="#8687c9"/><path d="m107.563 159.516h7.422v37.109h-7.422z" fill="#6364b9"/><path d="m107.563 226.313h7.422v37.109h-7.422z" fill="#6364b9"/><path d="m337.641 256h7.422v14.844h-7.422z" fill="#6364b9"/><path d="m337.641 285.688h7.422v14.844h-7.422z" fill="#6364b9"/><path d="m367.328 256h7.422v14.844h-7.422z" fill="#6364b9"/><path d="m367.328 285.688h7.422v14.844h-7.422z" fill="#6364b9"/><path d="m300.5313 404.4375h-89.0625v28.5c0 15.4008-7.4219 16.558-7.4219 30.8753h7.4219c0-14.2549 7.4218-15.3395 7.4218-30.8753v-13.6562a7.4219 7.4219 0 0 1 7.4219-7.4219h74.2188z" fill="#ddd"/></svg>