<svg xmlns="http://www.w3.org/2000/svg" version="1.1" xmlns:xlink="http://www.w3.org/1999/xlink" width="512" height="512" x="0" y="0" viewBox="0 0 497.047 497.047" style="enable-background:new 0 0 512 512" xml:space="preserve" class=""><g><path fill="#64ccc5" d="M487.087 45.243c9.309-10.879 8.68-27.089-1.444-37.213-10.124-10.124-26.334-10.753-37.213-1.444l-84.969 72.712c-2.926 2.504-5.826 5.039-8.742 7.555l15.172 35.173 36.929 16.929c2.517-2.916 5.051-5.816 7.555-8.743z" opacity="1" data-original="#b6b4e8" class=""></path><path fill="#efc277" d="M279.217 277.128a2793.42 2793.42 0 0 0 127.606-138.179l-52.101-52.101a2793.926 2793.926 0 0 0-138.179 127.607l18.886 38.886z" opacity="1" data-original="#efc277" class=""></path><path fill="#bce9f8" d="m104.279 326.721 24.358 44.358 38.426 18.426 112.265-112.266-62.784-62.784z" opacity="1" data-original="#bce9f8" class=""></path><path fill="#4ea7a1" d="M485.703 8.081a27.315 27.315 0 0 0-10.106-6.41c2.557 8.644.79 18.33-5.45 25.622l-72.712 84.969c-2.504 2.927-5.504 6.361-8.021 9.277l-2.397 17.023 19.863.443c2.516-2.916 5.051-5.816 7.555-8.743l72.712-84.969c9.309-10.878 8.68-27.088-1.444-37.212z" opacity="1" data-original="#a7a5e8" class=""></path><path fill="#e3b466" d="M389.414 121.54c-40.83 47.291-83.704 93.668-127.612 138.115l-1.758 17.758 19.279-.174c44.074-44.615 86.583-90.754 127.555-138.234z" opacity="1" data-original="#e3b466"></path><path fill="#9ce0f6" d="M261.828 259.739 150.063 371.505l-3.622 16.754 20.622 1.246 112.265-112.266z" opacity="1" data-original="#9ce0f6"></path><path fill="#f6de91" d="m168.003 388.558-63.612-61.895c-19.574-2.028-37.871 4.413-52.871 19.412a67.397 67.397 0 0 0-15.464 23.963c5.009-.866 20.041 54.007 26.441 57.249 7.129 3.611 69.962 30.266 69.991 41.729a110.145 110.145 0 0 0 3.839-3.638c21.277-21.274 31.826-48.936 31.676-76.82z" opacity="1" data-original="#f6de91"></path><path fill="#64ccc5" d="M104.608 410.201c-7.415-2.977-15.792-3.235-22.921-6.845-6.4-3.242-24.75-25.839-30.874-29.577-4.428-2.703-9.747-4.607-14.757-3.74a67.826 67.826 0 0 0-4.336 25.488c.485 20.635-6.94 40.667-21.535 55.262l-.125.125c-11.504 11.504-7.771 31.018 7.186 37.42 37.912 16.227 83.191 9.789 115.243-19.317-.029-11.463-.816-22.376-4.819-33.154-4.121-11.102-12.072-21.25-23.062-25.662z" opacity="1" data-original="#b6b4e8" class=""></path><path fill="#4ea7a1" d="M127.672 435.863c-.2-.54-.418-1.074-.636-1.609-39.202 52.518-81.876 54.307-119.789 38.079a23.43 23.43 0 0 1-3.711-2.005c1.047 7.585 5.812 14.624 13.711 18.005 37.912 16.227 83.191 9.789 115.243-19.317-.029-11.463-.816-22.375-4.818-33.153z" opacity="1" data-original="#a7a5e8" class=""></path><path fill="#f6d879" d="M148.607 369.674c-.086 22.921-7.012 45.427-21.572 64.58.218.535-6.748 19.97-6.02 24.204 1.154 6.71 4.187 7.192 11.474 10.558a110.145 110.145 0 0 0 3.839-3.638c21.275-21.274 31.824-48.958 31.674-76.841z" opacity="1" data-original="#f6d879"></path><path fill="#9ce0f6" d="M171.392 329.892a7.472 7.472 0 0 1-5.303-2.197 7.5 7.5 0 0 1 0-10.606l40.824-40.824a7.5 7.5 0 0 1 10.606 0 7.5 7.5 0 0 1 0 10.606l-40.824 40.824a7.476 7.476 0 0 1-5.303 2.197z" opacity="1" data-original="#9ce0f6"></path></g></svg>