<svg id="Layer_1" viewBox="0 0 48 48" xmlns="http://www.w3.org/2000/svg" xmlns:xlink="http://www.w3.org/1999/xlink" data-name="Layer 1"><linearGradient id="linear-gradient" gradientUnits="userSpaceOnUse" x1="3.542" x2="46.497" y1="10.822" y2="38.491"><stop offset="0" stop-color="#f0f2f2"/><stop offset=".31" stop-color="#eaecec"/><stop offset=".715" stop-color="#d9ddde"/><stop offset="1" stop-color="#cacfd0"/></linearGradient><linearGradient id="linear-gradient-2" gradientUnits="userSpaceOnUse" x1="3.069" x2="45.918" y1="5.508" y2="14.445"><stop offset="0" stop-color="#4793eb"/><stop offset="1" stop-color="#2367ec"/></linearGradient><linearGradient id="linear-gradient-3" gradientUnits="userSpaceOnUse" x1="29.582" x2="42.117" y1="8.63" y2="11.305"><stop offset="0" stop-color="#f0f2f2"/><stop offset="1" stop-color="#cacfd0"/></linearGradient><linearGradient id="linear-gradient-4" gradientUnits="userSpaceOnUse" x1="6.293" x2="7.707" y1="9.293" y2="10.707"><stop offset="0" stop-color="#e85155"/><stop offset="1" stop-color="#c21d2c"/></linearGradient><linearGradient id="linear-gradient-5" gradientUnits="userSpaceOnUse" x1="10.293" x2="11.707" y1="9.293" y2="10.707"><stop offset="0" stop-color="#fed200"/><stop offset="1" stop-color="#f59815"/></linearGradient><linearGradient id="linear-gradient-6" gradientUnits="userSpaceOnUse" x1="14" x2="16" y1="10" y2="10"><stop offset="0" stop-color="#4aff9e"/><stop offset="1" stop-color="#35b97d"/></linearGradient><linearGradient id="linear-gradient-7" gradientUnits="userSpaceOnUse" x1="10.067" x2="35.405" y1="24.53" y2="35.078"><stop offset="0" stop-color="#2b50d2"/><stop offset="1" stop-color="#182ea5"/></linearGradient><linearGradient id="linear-gradient-8" x1="12.431" x2="37.768" xlink:href="#linear-gradient-7" y1="18.853" y2="29.401"/><linearGradient id="linear-gradient-9" x1="11.249" x2="36.587" xlink:href="#linear-gradient-7" y1="21.692" y2="32.24"/><rect fill="url(#linear-gradient)" height="36" rx="4" width="44" x="2" y="6"/><path d="m6 6h36c2.209 0 4 1.791 4 4v3h-44v-3c0-2.209 1.791-4 4-4z" fill="url(#linear-gradient-2)"/><rect fill="url(#linear-gradient-3)" height="2" rx="1" width="12" x="30" y="9"/><circle cx="7" cy="10" fill="url(#linear-gradient-4)" r="1"/><circle cx="11" cy="10" fill="url(#linear-gradient-5)" r="1"/><circle cx="15" cy="10" fill="url(#linear-gradient-6)" r="1"/><path d="m16 33c-.256 0-.512-.098-.707-.293l-5-5c-.391-.391-.391-1.023 0-1.414l5-5c.391-.391 1.023-.391 1.414 0s.391 1.023 0 1.414l-4.293 4.293 4.293 4.293c.391.391.391 1.023 0 1.414-.195.195-.451.293-.707.293z" fill="url(#linear-gradient-7)"/><path d="m32 33c-.256 0-.512-.098-.707-.293-.391-.391-.391-1.023 0-1.414l4.293-4.293-4.293-4.293c-.391-.391-.391-1.023 0-1.414s1.023-.391 1.414 0l5 5c.391.391.391 1.023 0 1.414l-5 5c-.195.195-.451.293-.707.293z" fill="url(#linear-gradient-8)"/><path d="m20.999 34c-.15 0-.303-.034-.446-.105-.494-.247-.694-.848-.447-1.342l5.999-12c.248-.494.849-.695 1.342-.447.494.247.694.848.447 1.342l-5.999 12c-.176.351-.528.553-.895.553z" fill="url(#linear-gradient-9)"/></svg>